<?xml version="1.0" encoding="UTF-8" standalone="no"?>
<!DOCTYPE svg  PUBLIC '-//W3C//DTD SVG 1.1//EN'  'http://www.w3.org/Graphics/SVG/1.1/DTD/svg11.dtd'>
<svg xmlns="http://www.w3.org/2000/svg">
<defs>
<font id="LetterGothicStd-Bold" horiz-adv-x="600">
<font-face underline-position="-50" font-weight="700" descent="-200" panose-1="2 11 5 9 2 2 2 3 3 4" units-per-em="1000" unicode-range="U+0020-2666" bbox="-5 -288 605 973" x-height="535" underline-thickness="50" font-family="LetterGothicStd" ascent="800" cap-height="720"/>
<missing-glyph d="M33 0v666h265v-666h-265zM66 33h199v600h-199v-600z"/>
<glyph glyph-name=".notdef" d="M33 0v666h265v-666h-265zM66 33h199v600h-199v-600z"/>
<glyph glyph-name=".null" horiz-adv-x="0"/>
<glyph glyph-name="nonmarkingreturn"/>
<glyph glyph-name="space" unicode=" "/>
<glyph glyph-name="exclam" d="M220 64q0 32 24 54.5t57 22.5t56.5 -22t23.5 -55t-23.5 -55.5t-56.5 -22.5t-57 22.5t-24 55.5zM349 720l-14 -501h-67l-17 501h98z" unicode="!"/>
<glyph glyph-name="quotedbl" d="M349 720h138v-130l-42 -129h-54l-42 129v130zM113 720h138v-130l-42 -129h-54l-42 129v130z" unicode='&quot;'/>
<glyph glyph-name="numbersign" d="M341 -96h-75l166 901h75l-57 -311h133l-13 -66h-133l-24 -132h134l-12 -66h-134zM255 805h75l-166 -901h-75l60 326h-133l15 66h130l24 132h-131l12 66h132z" unicode="#"/>
<glyph glyph-name="dollar" d="M265 431v169q-35 -11 -51.5 -30t-16.5 -54q0 -52 68 -85zM264 130v226q-64 22 -100 59q-42 45 -42 103t42 99t100 51v74h67v-73q81 -11 148 -70l-44 -57q-50 50 -104 61v-198q79 -33 114.5 -75.5t35.5 -104.5q0 -67 -41 -109t-109 -53v-93h-67v93q-88 6 -163 79l46 54 q61 -57 117 -66zM331 328v-199q75 22 75 94q0 39 -17 62t-58 43z" unicode="$"/>
<glyph glyph-name="percent" d="M50 546q0 74 41.5 131t112.5 57q50 0 79.5 -28.5t29.5 -78.5q0 -77 -41 -137t-114 -60q-53 0 -80.5 31t-27.5 85zM277 102q0 74 41.5 131t112.5 57q50 0 79.5 -28.5t29.5 -78.5q0 -77 -41 -137t-114 -60q-53 0 -80.5 31t-27.5 85zM242 628q0 51 -37 51q-42 0 -63 -47.5 t-21 -95.5q0 -51 39 -51t60.5 48.5t21.5 94.5zM445 734h72l-378 -748h-72zM469 184q0 51 -37 51q-41 0 -62.5 -47.5t-21.5 -95.5q0 -51 39 -51t60.5 48.5t21.5 94.5z" unicode="%"/>
<glyph glyph-name="ampersand" d="M249 450q4 7 18 27t20 29.5t14.5 26.5t12 32.5t3.5 32.5q0 26 -13.5 49.5t-38.5 23.5q-29 0 -43.5 -29.5t-14.5 -61.5q0 -59 42 -130zM456 129l87 -99l-59 -44l-68 79q-67 -79 -166 -79q-76 0 -123.5 44.5t-47.5 119.5q0 67 31 121.5t89 121.5q-22 35 -33.5 57 t-22.5 55.5t-11 64.5q0 82 42.5 123t89.5 41q57 0 92.5 -41t35.5 -99q0 -41 -17.5 -81t-33.5 -61t-53 -64l118 -190q3 16 7 50q4 42 4 120h73q-2 -158 -34 -239zM376 120l-137 208q-26 -32 -41.5 -54.5t-29.5 -56.5t-14 -66q0 -46 25 -74t71 -28q79 0 126 71z" unicode="&amp;"/>
<glyph glyph-name="quotesingle" d="M231 720h138v-130l-42 -130h-54l-42 130v130z" unicode="&apos;"/>
<glyph glyph-name="parenleft" d="M411 -29l-36 -49q-98 62 -149 173.5t-51 236.5t50.5 235.5t149.5 174.5l36 -50q-161 -115 -161 -360t161 -361z" unicode="("/>
<glyph glyph-name="parenright" d="M189 692l36 50q99 -64 149.5 -174.5t50.5 -235.5t-51 -236t-149 -174l-36 49q161 115 161 361q0 245 -161 360z" unicode=")"/>
<glyph glyph-name="asterisk" d="M264 720h71v-185l180 53l21 -65l-185 -53l116 -146l-53 -42l-114 143l-111 -143l-55 42l115 146l-185 53l20 65l180 -53v185z" unicode="*"/>
<glyph glyph-name="plus" d="M575 393v-66h-240v-237h-70v237h-240v66h240v237h70v-237h240z" unicode="+"/>
<glyph glyph-name="comma" d="M232 -112v68q39 8 64 32q-28 2 -47 21.5t-19 47.5q0 34 22.5 56t56.5 22q36 0 59.5 -27t23.5 -64q0 -58 -48.5 -99.5t-111.5 -56.5z" unicode=","/>
<glyph glyph-name="hyphen" d="M430 327h-260v63h260v-63z" unicode="-"/>
<glyph glyph-name="period" d="M220 64q0 32 24 54.5t57 22.5t56.5 -22t23.5 -55t-23.5 -55.5t-56.5 -22.5t-57 22.5t-24 55.5z" unicode="."/>
<glyph glyph-name="slash" d="M187 -27h-75l301 774h75z" unicode="/"/>
<glyph glyph-name="zero" d="M166 360v-8q0 -28 0.5 -47.5t3 -54t7.5 -58.5t15 -53t23.5 -47t35.5 -30.5t49 -12.5q28 0 49.5 12t42 43.5t31.5 96t11 159.5q0 92 -10.5 155.5t-30 96t-42 46t-51.5 13.5q-134 0 -134 -285v-26zM509 360v-9q0 -32 -0.5 -54.5t-5 -63.5t-12 -71t-23 -65t-37 -57.5 t-55.5 -38t-76 -15.5q-209 0 -209 374v30q0 25 1 48.5t6 60t13.5 66.5t24 62.5t37 55t54.5 37t73 14.5q43 0 77 -16t55.5 -39t37 -60t23 -67t11.5 -73t4.5 -65t0.5 -54z" unicode="0"/>
<glyph glyph-name="one" d="M341 742v-679h129v-63h-339v63h135v597l-141 -43v57z" unicode="1"/>
<glyph glyph-name="two" d="M175 63h328v-63h-403v32q0 76 23 134.5t56.5 96.5t98.5 94q35 29 49.5 42.5t43.5 44t42 58.5t13 57q0 51 -28.5 81.5t-78.5 30.5q-62 0 -94.5 -43t-35.5 -107h-75q5 95 58.5 154t147.5 59q81 0 131 -47t50 -127q0 -20 -4.5 -39.5t-9.5 -34t-18 -33.5t-20.5 -29t-26.5 -29 t-25.5 -25t-29 -26.5t-27.5 -24.5l-52 -47q-54 -49 -82 -97t-31 -112z" unicode="2"/>
<glyph glyph-name="three" d="M248 354v63h9q61 0 104.5 37.5t43.5 97.5q0 52 -36.5 85.5t-88.5 33.5q-44 0 -80.5 -30.5t-56.5 -73.5l-63 36q32 62 86 96.5t122 34.5q80 0 136 -54.5t56 -133.5q0 -96 -95 -155q128 -56 128 -189q0 -98 -64.5 -157t-163.5 -59q-132 0 -215 137l66 39q50 -113 152 -113 q66 0 108 38.5t42 104.5q0 77 -46.5 120t-120.5 43q-15 0 -23 -1z" unicode="3"/>
<glyph glyph-name="four" d="M348 249v383h-2l-199 -383h201zM423 734v-485h103v-63h-103v-186h-75v186h-287v49l265 499h97z" unicode="4"/>
<glyph glyph-name="five" d="M460 720v-63h-255l-20 -252q50 46 120 46q86 0 143 -62.5t57 -167.5q0 -97 -58 -166t-153 -69q-115 0 -194 120l58 43q22 -43 59 -71.5t82 -28.5q60 0 95.5 51.5t35.5 114.5q0 84 -38 128.5t-85 44.5q-73 0 -123 -82l-76 15l30 399h322z" unicode="5"/>
<glyph glyph-name="six" d="M503 690l-36 -62q-63 43 -102 43q-45 0 -82.5 -29.5t-60.5 -74.5t-36.5 -92.5t-15.5 -88.5q65 73 153 73t138 -66.5t50 -157.5q0 -100 -55 -174.5t-152 -74.5q-50 0 -88.5 20.5t-61 52t-36.5 75.5t-18.5 85t-4.5 87q0 209 81 318.5t192 109.5q65 0 135 -44zM436 234 q0 67 -30 114.5t-93 47.5q-58 0 -98 -55.5t-40 -123.5q0 -65 31.5 -116.5t92.5 -51.5q70 0 103.5 55.5t33.5 129.5z" unicode="6"/>
<glyph glyph-name="seven" d="M93 720h404l-281 -720h-81l264 657h-306v63z" unicode="7"/>
<glyph glyph-name="eight" d="M422 377q52 -20 80 -71t28 -110q0 -92 -60 -151t-170 -59q-113 0 -171.5 60.5t-58.5 149.5q0 59 28 110t80 71q-46 40 -65 75.5t-19 92.5q0 86 59 137.5t147 51.5q91 0 148 -52.5t57 -143.5q0 -53 -19.5 -88t-63.5 -73zM430 539q0 61 -34.5 96.5t-95.5 35.5 q-63 0 -97 -38t-34 -102q0 -57 37 -91t94 -34q60 0 95 36t35 97zM145 196q0 -69 42.5 -108t112.5 -39t112.5 39t42.5 108q0 68 -43 107.5t-112 39.5t-112 -39.5t-43 -107.5z" unicode="8"/>
<glyph glyph-name="nine" d="M97 30l36 62q60 -43 102 -43q45 0 82.5 29.5t60.5 75t36.5 92.5t15.5 89q-35 -38 -70 -56t-83 -18q-88 0 -138.5 66.5t-50.5 157.5q0 100 55.5 174.5t152.5 74.5q50 0 88.5 -20.5t61 -52t36.5 -75.5t18.5 -85t4.5 -87q0 -202 -79.5 -315t-193.5 -113q-65 0 -135 44z M163 486q0 -66 30.5 -114t92.5 -48q59 0 99 55t40 125q0 64 -32 115.5t-92 51.5q-70 0 -104 -55.5t-34 -129.5z" unicode="9"/>
<glyph glyph-name="colon" d="M220 403q0 32 24 54.5t57 22.5t56.5 -22t23.5 -55t-23.5 -55.5t-56.5 -22.5t-57 22.5t-24 55.5zM220 64q0 32 24 54.5t57 22.5t56.5 -22t23.5 -55t-23.5 -55.5t-56.5 -22.5t-57 22.5t-24 55.5z" unicode=":"/>
<glyph glyph-name="semicolon" d="M230 403q0 32 24 54.5t57 22.5t56.5 -22t23.5 -55t-23.5 -55.5t-56.5 -22.5t-57 22.5t-24 55.5zM232 -112v68q39 8 64 32q-28 2 -47 21.5t-19 47.5q0 34 22.5 56t56.5 22q36 0 59.5 -27t23.5 -64q0 -58 -48.5 -99.5t-111.5 -56.5z" unicode=";"/>
<glyph glyph-name="less" d="M475 720l42 -52l-333 -308l333 -308l-42 -52l-393 360z" unicode="&lt;"/>
<glyph glyph-name="equal" d="M575 334v-66h-550v66h550zM575 452v-66h-550v66h550z" unicode="="/>
<glyph glyph-name="greater" d="M82 668l42 52l393 -360l-393 -360l-42 52l333 308z" unicode="&gt;"/>
<glyph glyph-name="question" d="M222 64q0 32 24 54.5t57 22.5t56.5 -22t23.5 -55t-23.5 -55.5t-56.5 -22.5t-57 22.5t-24 55.5zM332 216h-75v106q0 44 17 69.5t72 66.5q29 22 41.5 44t12.5 56q0 51 -28.5 82t-78.5 31t-77 -30.5t-27 -79.5h-75q4 80 52 126.5t128 46.5q83 0 132 -48t49 -131 q0 -46 -15.5 -76t-48.5 -59q-16 -14 -36 -30t-26.5 -22t-11.5 -17t-5 -29v-106z" unicode="?"/>
<glyph glyph-name="at" d="M351 419l4 31q-56 -1 -91.5 -51.5t-35.5 -114.5q0 -16 7 -28.5t21 -12.5q18 0 34 12.5t34 54t27 109.5zM518 137l27 -67q-129 -84 -267 -84q-53 0 -101.5 18.5t-89.5 55t-65.5 98t-24.5 139.5q0 60 12.5 121t40 118t65.5 101t93 70.5t119 26.5q110 0 193 -88t83 -220 q0 -40 -9 -80.5t-27.5 -79t-51.5 -62.5t-76 -24q-31 0 -47.5 9t-41.5 35q-29 -24 -49 -34t-51 -10q-43 0 -70 27.5t-27 70.5q0 45 18.5 96.5t47.5 84.5q48 53 174 53h45l-27 -164l-8 -56q0 -20 9.5 -34.5t27.5 -14.5q24 0 42.5 19.5t27.5 49.5t13.5 57t4.5 50q0 65 -20 114 t-52 75t-65 38.5t-65 12.5q-51 0 -94.5 -23t-72 -59.5t-49 -84t-29.5 -96t-9 -95.5q0 -118 54 -179t158 -61q116 0 234 76z" unicode="@"/>
<glyph glyph-name="A" d="M301 566l-91 -291h183zM301 780l255 -780h-81l-64 212h-219l-64 -212h-81z" unicode="A"/>
<glyph glyph-name="B" d="M183 63h126q55 0 93.5 33t38.5 96q0 65 -41.5 108t-122.5 43h-94v-280zM183 657v-251h87q54 0 97 37t43 98q0 40 -14 65.5t-39 35.5t-43 12.5t-43 2.5h-7h-81zM314 0h-206v720h151q32 0 56.5 -2t58.5 -12.5t56 -29t38.5 -54t16.5 -84.5q0 -102 -95 -155q64 -31 95 -75 t31 -112q0 -82 -55.5 -139t-146.5 -57z" unicode="B"/>
<glyph glyph-name="C" d="M505 564h-75q-1 46 -30.5 76.5t-74.5 30.5q-162 0 -162 -317q0 -305 155 -305q55 0 87.5 36t33.5 91h75q-6 -89 -58 -139.5t-141 -50.5q-227 0 -227 370q0 54 5 101t20 100t40 90t69 62t102 25q75 0 126 -47.5t55 -122.5z" unicode="C"/>
<glyph glyph-name="D" d="M187 657v-594h92q35 0 58.5 5t47 22.5t37 49t22 86.5t8.5 134q0 80 -9.5 136.5t-24 87.5t-39 48t-46.5 21t-56 4h-90zM112 0v720h183q55 0 95.5 -17t72 -57t48 -111.5t16.5 -174.5q0 -200 -59.5 -280t-183.5 -80h-172z" unicode="D"/>
<glyph glyph-name="E" d="M513 720v-63h-299v-256h215v-63h-215v-275h306v-63h-381v720h374z" unicode="E"/>
<glyph glyph-name="F" d="M538 720v-63h-311v-250h233v-63h-233v-344h-75v720h386z" unicode="F"/>
<glyph glyph-name="G" d="M457 297h-170v63h245v-374h-75v70q-58 -70 -151 -70q-17 0 -30.5 1.5t-37.5 9t-42 20.5t-39.5 40t-35 63.5t-23 94t-9.5 129.5q0 206 58.5 298t168.5 92q88 0 133.5 -54.5t47.5 -143.5h-75q0 2 0.5 8t0.5 8q0 50 -26.5 84.5t-76.5 34.5q-36 0 -63.5 -15t-44 -44 t-27 -58.5t-14.5 -70t-5.5 -67t-1.5 -61.5q0 -33 1 -58t5 -65t14 -68.5t25.5 -56.5t41 -43t59.5 -15q60 0 103.5 50t43.5 150v48z" unicode="G"/>
<glyph glyph-name="H" d="M175 720v-315h250v315h75v-720h-75v342h-250v-342h-75v720h75z" unicode="H"/>
<glyph glyph-name="I" d="M435 720v-63h-98v-594h98v-63h-270v63h97v594h-97v63h270z" unicode="I"/>
<glyph glyph-name="J" d="M262 657v63h208v-471q0 -32 -1.5 -55t-7.5 -57t-19.5 -57.5t-35 -46.5t-57.5 -35t-83 -12q-191 0 -191 222v101h75v-129q0 -63 29.5 -97t84.5 -34q131 0 131 152v456h-133z" unicode="J"/>
<glyph glyph-name="K" d="M204 720v-317q45 5 121 98t124 228l74 -39l-59 -99q-64 -108 -106 -154.5t-84 -73.5l311 -363h-100l-275 339h-6v-339h-75v720h75z" unicode="K"/>
<glyph glyph-name="L" d="M230 720v-657h312v-63h-387v720h75z" unicode="L"/>
<glyph glyph-name="M" d="M300 361l151 359h74v-720h-75v548h-2l-148 -353l-147 353l-2 -2v-546h-75v720h73z" unicode="M"/>
<glyph glyph-name="N" d="M115 0v720h87l219 -538h3v538h75v-727h-71l-236 581l-2 -2v-572h-75z" unicode="N"/>
<glyph glyph-name="O" d="M300 49q31 0 55 12.5t45.5 44.5t33.5 96t12 158v29q0 282 -146 282q-39 0 -67.5 -21.5t-43 -51.5t-23 -72.5t-10.5 -71.5t-2 -62v-32v-14q0 -297 146 -297zM79 360q0 109 17 185t48.5 115.5t69 56.5t86.5 17q50 0 89 -17.5t62 -50.5t38 -68t21.5 -82.5t8.5 -80.5t2 -75 v-18q0 -31 -1 -54.5t-5.5 -63t-12.5 -69t-24.5 -63t-39.5 -55.5t-58.5 -36.5t-79.5 -14.5q-46 0 -82 16.5t-59 39t-39 60.5t-24 67t-12 73t-4.5 64.5t-0.5 53.5z" unicode="O"/>
<glyph glyph-name="P" d="M209 346h83q67 0 106.5 39.5t39.5 113.5q0 158 -141 158h-88v-311zM134 0v720h173q98 0 152 -57t54 -163q0 -110 -65 -163.5t-176 -53.5h-63v-283h-75z" unicode="P"/>
<glyph glyph-name="Q" d="M153 360q0 -311 147 -311q71 0 109 71.5t38 239.5q0 92 -12 156t-33.5 96.5t-46 45.5t-55.5 13q-39 0 -67.5 -21.5t-43.5 -51t-24 -71t-11 -71t-2 -61.5q0 -10 0.5 -22t0.5 -13zM300 -14q-222 0 -222 359v15q0 109 17 185t49 116t69.5 56.5t86.5 16.5q222 0 222 -344v-30 q0 -113 -14.5 -185t-57.5 -121l88 -114h-92l-50 70q-44 -24 -96 -24z" unicode="Q"/>
<glyph glyph-name="R" d="M206 362h71q78 0 120 40t42 118q0 73 -35.5 105t-123.5 32h-74v-295zM131 0v720h187q43 0 77 -12t54 -32t34 -42t20.5 -47t8.5 -41t2 -30q0 -126 -128 -199l194 -317h-91l-175 300q-18 0 -54 -1t-54 -1v-298h-75z" unicode="R"/>
<glyph glyph-name="S" d="M502 644l-45 -54q-28 25 -47 39.5t-49.5 28t-59.5 13.5q-49 0 -82.5 -30.5t-33.5 -79.5q0 -23 5 -38.5t29 -40t70 -52.5l57 -35q101 -62 134.5 -101.5t33.5 -101.5q0 -96 -58 -151t-154 -55q-127 0 -218 117l58 46q28 -45 69.5 -72.5t90.5 -27.5q57 0 97 38t40 95 q0 33 -6 50t-34 41.5t-91 62.5l-65 39q-64 38 -98.5 79t-34.5 102q0 82 55 130t139 48q101 0 198 -90z" unicode="S"/>
<glyph glyph-name="T" d="M541 720v-63h-205v-657h-75v657h-201v63h481z" unicode="T"/>
<glyph glyph-name="U" d="M424 720h75v-531q0 -96 -59.5 -149.5t-139.5 -53.5q-33 0 -64.5 10.5t-64 35.5t-52 76t-19.5 121v491h75v-531q0 -72 37.5 -106t87.5 -34q65 0 94.5 41t29.5 108v522z" unicode="U"/>
<glyph glyph-name="V" d="M297 109l129 611h83l-163 -727h-103l-160 727h82l130 -611h2z" unicode="V"/>
<glyph glyph-name="W" d="M297 519l113 -361h2l36 562h81l-55 -727h-86l-91 312l-92 -312h-83l-60 727h81l38 -562h2z" unicode="W"/>
<glyph glyph-name="X" d="M92 720h86l122 -279l122 279h87l-170 -357l175 -363h-87l-127 288l-127 -288h-86l176 364z" unicode="X"/>
<glyph glyph-name="Y" d="M282 394l138 326h83l-184 -416v-304h-75v304l-184 416h83z" unicode="Y"/>
<glyph glyph-name="Z" d="M114 720h375v-53l-296 -604h320v-63h-410v54l300 603h-289v63z" unicode="Z"/>
<glyph glyph-name="bracketleft" d="M460 -112h-292v854h292v-63h-217v-728h217v-63z" unicode="["/>
<glyph glyph-name="backslash" d="M413 -27l-301 774h75l301 -774h-75z" unicode="\"/>
<glyph glyph-name="bracketright" d="M139 -112v63h217v728h-217v63h292v-854h-292z" unicode="]"/>
<glyph glyph-name="asciicircum" d="M177 357h-74l164 323h66l164 -323h-74l-123 242z" unicode="^"/>
<glyph glyph-name="underscore" d="M600 -125h-600v50h600v-50z" unicode="_"/>
<glyph glyph-name="grave" d="M217 775l177 -142l-38 -49l-193 129z" unicode="`"/>
<glyph glyph-name="a" d="M383 144v124q-59 26 -102 26q-53 0 -79.5 -39t-26.5 -95q0 -42 22 -75t62 -33q27 0 52 16t38 31t34 45zM157 443l-17 66q94 37 154 37q74 0 119 -51.5t45 -121.5v-232q0 -79 23 -145l-70 -9l-19 67q-54 -65 -133 -65q-74 0 -116.5 50.5t-42.5 124.5q0 81 46.5 137 t124.5 56q49 0 112 -26v51q0 45 -25 73t-67 28q-11 0 -23.5 -2t-22 -4t-23.5 -7.5t-21 -8t-23 -9.5t-21 -9z" unicode="a"/>
<glyph glyph-name="b" d="M189 440v-294q44 -94 116 -94q21 0 43 10t45.5 32.5t38 67.5t14.5 107q0 105 -45 159.5t-110 54.5q-48 0 -102 -43zM114 742h75v-226q57 30 114 30q35 0 71 -15t70 -45t55.5 -86t21.5 -128q0 -75 -20 -132t-52.5 -88.5t-68.5 -47t-74 -15.5q-43 0 -67 13t-64 48l-16 -60 l-71 9q26 74 26 199v544z" unicode="b"/>
<glyph glyph-name="c" d="M470 140l51 -53q-45 -49 -89 -73.5t-102 -24.5q-40 0 -78 13.5t-74 43t-57.5 85t-21.5 131.5q0 77 20 134t54 88.5t72.5 46.5t81.5 15q118 0 197 -119l-65 -43q-49 99 -132 99q-64 0 -108.5 -52t-44.5 -162q0 -114 46.5 -165.5t108.5 -51.5q67 0 141 88z" unicode="c"/>
<glyph glyph-name="d" d="M408 144v295q-53 44 -101 44q-65 0 -109.5 -55t-44.5 -160q0 -61 14.5 -106.5t37.5 -67.5t45.5 -32t43.5 -10q76 0 114 92zM510 -2l-71 -9l-16 60q-39 -35 -63.5 -47.5t-67.5 -12.5q-38 0 -73.5 15t-68 46.5t-52.5 88.5t-20 132q0 72 21 128t55 86.5t70 45.5t71 15 q56 0 113 -31v227h75v-551q0 -115 27 -193z" unicode="d"/>
<glyph glyph-name="e" d="M161 311h282q-2 70 -39.5 121t-97.5 51q-61 0 -95 -43.5t-50 -128.5zM518 248h-356q5 -196 152 -196q74 0 167 57l32 -67q-118 -53 -205 -53q-57 0 -101 23t-69.5 62.5t-38 87.5t-12.5 102q0 55 13 103.5t39 89.5t70.5 65t102.5 24q50 0 89.5 -21.5t60.5 -52t34.5 -68.5 t17.5 -65.5t4 -49.5v-41z" unicode="e"/>
<glyph glyph-name="f" d="M535 697v-76q-9 4 -40 19.5t-53 23t-43 7.5q-95 0 -95 -110v-60h172v-63h-172v-438h-75v438h-133v63h133v51q0 89 49.5 135.5t115.5 46.5q60 0 141 -37z" unicode="f"/>
<glyph glyph-name="g" d="M412 178v239q-19 28 -51.5 47t-65.5 19q-67 0 -98.5 -57t-31.5 -131q0 -79 34.5 -133t88.5 -54q35 0 71 20.5t53 49.5zM439 546h71q-23 -83 -23 -200v-294q0 -59 -20 -103.5t-51.5 -67.5t-63.5 -33.5t-64 -10.5q-46 0 -91.5 23t-78.5 59l53 46q50 -65 126 -65 q56 0 85.5 43t29.5 105v42q-68 -45 -128 -45q-92 0 -143 72.5t-51 168.5q0 68 19 124.5t67 96t118 39.5q67 0 131 -47z" unicode="g"/>
<glyph glyph-name="h" d="M118 0v742h75v-284q66 88 161 88q29 0 49.5 -7t42.5 -29.5t34 -73.5t12 -129v-307h-75v313q0 170 -68 170q-39 0 -74.5 -29t-54.5 -68q-27 -57 -27 -163v-24v-199h-75z" unicode="h"/>
<glyph glyph-name="i" d="M311 734q26 0 44.5 -18t18.5 -45t-18.5 -45t-44.5 -18t-44.5 18t-18.5 45t18.5 45t44.5 18zM276 0v472h-152v63h227v-535h-75z" unicode="i"/>
<glyph glyph-name="j" d="M370 734q26 0 44 -18t18 -45t-18 -45t-44 -18q-27 0 -45.5 18t-18.5 45t18.5 45t45.5 18zM73 52h75q0 -79 20.5 -115.5t73.5 -36.5q46 0 71 37.5t25 69.5v465h-155v63h230v-524q0 -82 -53 -128t-117 -46q-84 0 -127 57.5t-43 157.5z" unicode="j"/>
<glyph glyph-name="k" d="M416 535h95q-30 -34 -66 -77t-53.5 -63.5t-43 -48.5t-53.5 -56l263 -290h-99l-210 246l-34 -34v-212h-75v742h75v-441q144 148 201 234z" unicode="k"/>
<glyph glyph-name="l" d="M268 0v679h-152v63h227v-742h-75z" unicode="l"/>
<glyph glyph-name="m" d="M68 0v369q0 74 -22 177h75l11 -48q55 48 105 48q35 0 51.5 -9.5t39.5 -39.5q54 49 103 49q54 0 86 -32.5t32 -86.5v-427h-75v427q0 27 -13 41.5t-36 14.5q-47 0 -79 -56v-427h-75v422q0 61 -42 61q-26 0 -50.5 -19.5t-35.5 -45.5v-418h-75z" unicode="m"/>
<glyph glyph-name="n" d="M186 223v-223h-75v269q0 164 -24 266h72l17 -98q29 49 78 79t104 30q61 0 95 -48.5t34 -120.5v-377h-75v355q0 21 -0.5 33.5t-4 33t-10 32t-19.5 20.5t-32 9q-62 0 -111 -65.5t-49 -194.5z" unicode="n"/>
<glyph glyph-name="o" d="M300 52q138 0 138 215q0 216 -138 216q-137 0 -137 -216q0 -215 137 -215zM300 -11q-38 0 -73 13.5t-67.5 43.5t-52 87t-19.5 134q0 143 62.5 211t149.5 68q54 0 94.5 -21t62.5 -51.5t35.5 -71.5t17 -72t3.5 -63q0 -143 -62.5 -210.5t-150.5 -67.5z" unicode="o"/>
<glyph glyph-name="p" d="M189 390v-294q55 -44 102 -44q68 0 111.5 57t43.5 158q0 62 -14.5 107t-38 67t-45.5 32t-43 10q-72 0 -116 -93zM160 545l15 -59q39 35 63.5 47.5t67.5 12.5q38 0 74 -15t68.5 -46.5t52.5 -88.5t20 -132q0 -72 -21.5 -128t-55.5 -86.5t-70 -45.5t-71 -15q-55 0 -114 31 v-225h-75v543q0 121 -25 198z" unicode="p"/>
<glyph glyph-name="q" d="M408 96v299q-23 43 -48.5 65.5t-65.5 22.5q-22 0 -44 -10t-45.5 -32t-38 -67t-14.5 -107q0 -101 43.5 -158t111.5 -57q48 0 101 44zM483 -205h-75v225q-57 -31 -113 -31q-35 0 -71 15t-70 45.5t-55.5 86.5t-21.5 128q0 75 20 132t52.5 88.5t68.5 46.5t74 15 q43 0 67.5 -12.5t63.5 -47.5l15 59l71 -9q-26 -82 -26 -192v-549z" unicode="q"/>
<glyph glyph-name="r" d="M232 223v-223h-75v307q0 127 -21 228h73l17 -102q36 55 73.5 84t92.5 29q36 0 61.5 -16t38.5 -43.5t18.5 -57t5.5 -62.5h-75q0 4 -0.5 18.5t-1 22.5t-2 21t-5 21t-9 16.5t-14.5 12.5t-21 4q-51 0 -103.5 -70.5t-52.5 -189.5z" unicode="r"/>
<glyph glyph-name="s" d="M464 484l-33 -61q-84 60 -143 60q-35 0 -61 -23t-26 -58q0 -55 103 -93q32 -12 51 -20t45 -23.5t40.5 -31.5t25 -41t10.5 -56q0 -64 -49 -106t-114 -42q-116 0 -220 93l41 60q35 -37 82.5 -63.5t91.5 -26.5q40 0 66.5 21.5t26.5 60.5q0 25 -8 43t-28.5 31t-32.5 19 t-42 17q-37 14 -59 24.5t-50 30t-41.5 46t-13.5 60.5q0 59 48 100t117 41q87 0 173 -62z" unicode="s"/>
<glyph glyph-name="t" d="M462 535v-63h-191v-305q0 -26 1.5 -41t7.5 -35t21 -29.5t39 -9.5q71 0 113 94l72 -18q-65 -139 -187 -139q-71 0 -106.5 44.5t-35.5 157.5v281h-115v63h115v164h75v-164h191z" unicode="t"/>
<glyph glyph-name="u" d="M415 316v219h75v-259q0 -176 23 -276h-71l-17 103q-28 -47 -77 -80.5t-99 -33.5q-67 0 -101 49.5t-34 124.5v372h75v-350q0 -27 1.5 -43t6.5 -40.5t20 -37t38 -12.5q62 0 111 69t49 195z" unicode="u"/>
<glyph glyph-name="v" d="M429 535h78l-166 -542h-85l-166 542h78l130 -415z" unicode="v"/>
<glyph glyph-name="w" d="M129 -7l-94 542h84l61 -401h2l77 270h73l77 -270h2l61 401h84l-94 -542h-80l-87 290l-86 -290h-80z" unicode="w"/>
<glyph glyph-name="x" d="M507 535l-166 -246l211 -289h-95l-158 231l-156 -231h-95l210 286l-170 249h87l125 -188l122 188h85z" unicode="x"/>
<glyph glyph-name="y" d="M445 535h80l-198 -502q-12 -31 -20.5 -51t-26 -50.5t-34 -48.5t-42 -32t-53.5 -14q-49 0 -85 33t-51 83l63 33q32 -86 73 -86q42 0 81 90l35 81l-172 464h81l130 -364z" unicode="y"/>
<glyph glyph-name="z" d="M496 535v-56l-307 -416h319v-63h-416v55l309 417h-265v63h360z" unicode="z"/>
<glyph glyph-name="braceleft" d="M488 742v-28h-33q-127 0 -127 -92v-180v-6q0 -23 -1 -35t-5.5 -28.5t-15 -28t-28.5 -21.5q33 -18 41.5 -42.5t8.5 -69.5v-6v-180q0 -92 127 -92h33v-28h-55q-104 0 -142 35.5t-38 120.5v169q0 23 -6 38.5t-19.5 24t-25 12.5t-34 9t-34.5 9q12 4 34 9.5t34 9.5t25.5 12.5 t19.5 24t6 38.5v169q0 85 38 120.5t142 35.5h55z" unicode="{"/>
<glyph glyph-name="bar" d="M267 -288v1080h66v-1080h-66z" unicode="|"/>
<glyph glyph-name="braceright" d="M114 714v28h55q104 0 142 -35.5t38 -120.5v-169q0 -23 6 -38.5t19.5 -24t25.5 -12.5t34 -9.5t34 -9.5q-12 -4 -34.5 -9t-34 -9t-25 -12.5t-19.5 -24t-6 -38.5v-169q0 -85 -38 -120.5t-142 -35.5h-55v28h33q127 0 127 92v180v6q0 30 2 46t13.5 35t34.5 31q-33 18 -41.5 43 t-8.5 70v6v180q0 92 -127 92h-33z" unicode="}"/>
<glyph glyph-name="asciitilde" d="M183 434q43 0 127 -37t107 -37q35 0 65 30t47 68l52 -38q-27 -52 -69.5 -89t-93.5 -37q-11 0 -25.5 3t-32.5 9t-29.5 10.5t-31.5 12.5l-25 10q-69 29 -91 29q-17 0 -31 -5.5t-27 -20.5t-19.5 -23t-20 -30.5t-15.5 -26.5l-52 39q18 31 31 49.5t33.5 40.5t45.5 32.5 t55 10.5z" unicode="~"/>
<glyph glyph-name="uni00A0" unicode=" "/>
<glyph glyph-name="exclamdown" d="M219 657q0 32 24 54.5t57 22.5t56.5 -22t23.5 -55t-23.5 -55.5t-56.5 -22.5t-57 22.5t-24 55.5zM251 0l14 501h67l17 -501h-98z" unicode="¡"/>
<glyph glyph-name="cent" d="M287 164v419q-113 -33 -113 -208q0 -174 113 -211zM526 533l-68 -45q-21 40 -42 63t-54 33v-422q51 15 108 84l51 -53q-78 -81 -159 -95v-128h-75v127q-96 20 -142 93t-46 178q0 239 188 280v94h75v-93q54 -11 89.5 -37.5t74.5 -78.5z" unicode="¢"/>
<glyph glyph-name="sterling" d="M258 387h188v-63h-169q12 -48 12 -91q0 -27 -8.5 -55.5t-15.5 -43t-27 -52.5q47 9 64 9q33 0 75 -19q31 -14 57 -14q8 0 16.5 2.5t17 8t14 9.5t15 12.5t12.5 10.5l43 -48q-54 -58 -112 -58q-29 0 -76 17q-41 16 -72 16q-47 0 -123 -42l-40 51q12 25 37 65.5t36.5 68 t11.5 57.5q0 50 -13 96h-128v63h110q-35 111 -35 161q0 77 57 124.5t136 47.5q62 0 114 -34t74 -90l-70 -23q-40 84 -120 84q-50 0 -84 -33q-32 -29 -32 -84q0 -33 35 -153z" unicode="£"/>
<glyph glyph-name="currency" d="M300 169q81 0 136 55t55 136t-55 136.5t-136 55.5t-136 -55.5t-55 -136.5t55 -136t136 -55zM120 506l-109 107l33 32l108 -107q64 52 148 52t148 -52l108 107l33 -32l-109 -107q50 -68 50 -146t-50 -146l109 -107l-33 -32l-108 107q-64 -52 -148 -52t-148 52l-108 -107 l-33 32l109 107q-50 68 -50 146t50 146z" unicode="¤"/>
<glyph glyph-name="yen" d="M102 220h142v82h-142v56h118l-160 362h86l137 -325l134 325h86l-160 -362h118v-56h-142v-82h142v-56h-142v-164h-75v164h-142v56z" unicode="¥"/>
<glyph glyph-name="brokenbar" d="M267 -175v350h66v-350h-66zM267 325v350h66v-350h-66z" unicode="¦"/>
<glyph glyph-name="section" d="M292 502l59 -44q6 -5 30 -22t35 -25.5t30.5 -26t28.5 -31t17 -33t8 -39.5q0 -36 -18.5 -60t-53.5 -49q1 -1 6 -9t6.5 -10t5.5 -9t5 -9.5t4 -9t3.5 -10.5t1.5 -10t1 -12q0 -66 -45 -103t-113 -37q-70 0 -118 38t-48 113q0 16 1 24h72v-15q0 -97 91 -97q35 0 60 17.5 t25 51.5q0 12 -4 23t-8 18.5t-14.5 17.5t-15.5 14t-19 14t-18 13l-58 44q-5 4 -36 26t-43.5 33t-33 32t-29 42t-8.5 44q0 36 18.5 60t53.5 49q-32 49 -32 79q0 67 44.5 103.5t112.5 36.5q70 0 118.5 -37.5t48.5 -113.5q0 -16 -1 -24h-73v15q0 97 -90 97q-35 0 -60 -17.5 t-25 -50.5q0 -10 2 -19.5t7.5 -18t9.5 -14.5t14 -14.5t14 -11.5l16 -12t15 -11zM390 338l-175 136q-41 -20 -41 -63q0 -33 36 -62l175 -135q40 18 40 62q0 34 -35 62z" unicode="§"/>
<glyph glyph-name="dieresis" d="M320 678q0 28 20.5 47.5t48.5 19.5t48.5 -19.5t20.5 -47.5t-20.5 -47.5t-48.5 -19.5t-48.5 19.5t-20.5 47.5zM141 678q0 28 20.5 47.5t48.5 19.5t48.5 -19.5t20.5 -47.5t-20.5 -47.5t-48.5 -19.5t-48.5 19.5t-20.5 47.5z" unicode="¨"/>
<glyph glyph-name="copyright" d="M378 293h69q-5 -67 -43.5 -107.5t-91.5 -40.5q-71 0 -115.5 63t-44.5 155q0 95 43 155.5t116 60.5q53 0 90.5 -37.5t45.5 -102.5h-69q-4 34 -22.5 52.5t-45.5 18.5q-44 0 -66.5 -42t-22.5 -103q0 -59 24.5 -105t66.5 -46q26 0 45.5 22.5t20.5 56.5zM300 659 q-85 0 -150 -85t-65 -214q0 -124 62.5 -211.5t152.5 -87.5q83 0 149 88t66 211q0 144 -66.5 221.5t-148.5 77.5zM300 734q120 0 205 -109.5t85 -264.5t-85 -264.5t-205 -109.5q-121 0 -205.5 109.5t-84.5 264.5t84.5 264.5t205.5 109.5z" unicode="©"/>
<glyph glyph-name="ordfeminine" d="M425 319v-59h-261v59h261zM342 495v59q-31 11 -53 11q-28 0 -42.5 -19t-14.5 -47q0 -21 11.5 -37t31.5 -16q31 0 67 49zM423 393l-61 -8l-10 31q-23 -17 -38.5 -23t-39.5 -6q-51 0 -79.5 33t-28.5 84q0 55 34.5 87.5t89.5 32.5q22 0 52 -7v5q0 21 -11.5 37t-32.5 16 q-14 0 -30 -5t-37 -14t-31 -12l-11 71q76 19 110 19q54 0 81.5 -36.5t27.5 -96.5v-114q0 -49 15 -94z" unicode="ª"/>
<glyph glyph-name="guillemotleft" d="M292 615l47 -48l-224 -211l224 -211l-47 -50l-273 261zM534 615l47 -48l-224 -211l224 -211l-46 -50l-274 261z" unicode="«"/>
<glyph glyph-name="logicalnot" d="M505 161v225h-480v66h550v-291h-70z" unicode="¬"/>
<glyph glyph-name="uni00AD" d="M430 327h-260v63h260v-63z" unicode="­"/>
<glyph glyph-name="registered" d="M243 387h90q29 0 43.5 13t14.5 48q0 19 -6.5 30.5t-19.5 16t-22 5.5t-25 1h-75v-114zM368 328l76 -171h-71l-70 171h-60v-171h-63v403h152q66 0 94 -28t28 -95q0 -54 -21 -79t-65 -30zM300 61q24 0 51 9.5t56.5 32t53 55.5t39 86t15.5 116q0 129 -66 214t-149 85 t-149 -83t-66 -216q0 -124 66 -211.5t149 -87.5zM300 -14q-121 0 -205.5 109.5t-84.5 264.5t84.5 264.5t205.5 109.5q120 0 205 -109.5t85 -264.5t-85 -264.5t-205 -109.5z" unicode="®"/>
<glyph glyph-name="macron" d="M455 610h-311v63h311v-63z" unicode="¯"/>
<glyph glyph-name="degree" d="M167 556q0 -55 39 -93.5t94 -38.5t94 38.5t39 93.5t-39 94t-94 39t-94 -39t-39 -94zM87 556q0 88 63 148.5t150 60.5q88 0 150.5 -60.5t62.5 -148.5q0 -87 -62.5 -147.5t-150.5 -60.5q-87 0 -150 60.5t-63 147.5z" unicode="°"/>
<glyph glyph-name="plusminus" d="M575 105v-66h-550v66h550zM575 444v-66h-240v-237h-70v237h-240v66h240v237h70v-237h240z" unicode="±"/>
<glyph glyph-name="twosuperior" d="M239 392h172v-42h-222v22q0 57 22.5 92t73.5 77q22 18 33.5 28.5t26.5 31.5t15 39q0 24 -13 38t-37 14q-31 0 -46 -22t-16 -54h-51q2 52 31.5 85t81.5 33q46 0 73 -25.5t27 -69.5q0 -29 -17 -55.5t-41.5 -47t-49.5 -41.5t-43 -47.5t-20 -55.5z" unicode="²"/>
<glyph glyph-name="threesuperior" d="M267 530v42h5q31 0 54 17.5t23 47.5q0 24 -17.5 39.5t-41.5 15.5q-22 0 -40.5 -16t-28.5 -39l-43 24q17 33 46.5 53t65.5 20q46 0 77.5 -28t31.5 -73q0 -50 -45 -78q62 -28 62 -97q0 -51 -34 -83t-86 -32q-44 0 -71.5 18.5t-52.5 57.5l45 26q14 -31 31 -45.5t48 -14.5 t50.5 18.5t19.5 49.5q0 41 -23.5 58.5t-75.5 18.5z" unicode="³"/>
<glyph glyph-name="acute" d="M383 775l54 -62l-193 -129l-38 49z" unicode="´"/>
<glyph glyph-name="mu" d="M410 0v45q-40 -56 -108 -56q-71 0 -111 52v-271h-75v765h75v-311q0 -95 32 -133.5t74 -38.5q18 0 35.5 7t36 24.5t30 55.5t11.5 92v304h75v-535h-75z" unicode="µ"/>
<glyph glyph-name="paragraph" d="M265 -109v431h-8q-88 0 -148.5 55.5t-60.5 142.5q0 38 12 71t38.5 63t77.5 48t121 18h261v-63h-46v-766h-75v766h-97v-766h-75z" unicode="¶"/>
<glyph glyph-name="periodcentered" d="M220 360q0 32 24 56t56 24t56 -24t24 -56t-24 -56t-56 -24t-56 24t-24 56z" unicode="·"/>
<glyph glyph-name="cedilla" d="M351 38l-23 -69q37 -2 62 -21.5t25 -55.5q0 -37 -31 -59t-70 -22q-46 0 -110 29l22 55q48 -21 79 -21q35 0 35 22q0 14 -15 19t-58 9q-13 1 -20 2l40 112h64z" unicode="¸"/>
<glyph glyph-name="onesuperior" d="M326 742v-354h68v-42h-188v42h70v293l-73 -22v45z" unicode="¹"/>
<glyph glyph-name="ordmasculine" d="M300 446q29 0 47.5 19t24 42.5t5.5 52.5q0 115 -77 115t-77 -115q0 -29 5.5 -52.5t24 -42.5t47.5 -19zM300 387q-66 0 -104.5 47t-38.5 126q0 76 36 125t107 49q67 0 105 -48t38 -125q0 -76 -36 -125t-107 -49zM431 319v-59h-261v59h261z" unicode="º"/>
<glyph glyph-name="guillemotright" d="M308 615l274 -259l-274 -261l-47 50l224 211l-224 211zM66 615l273 -259l-273 -261l-47 50l224 211l-224 211z" unicode="»"/>
<glyph glyph-name="onequarter" d="M176 742v-354h68v-42h-188v42h70v293l-73 -22v45zM519 384v-247h54v-42h-54v-95h-50v95h-149v31l140 258h59zM463 720h58l-330 -720h-56zM469 137v168h-2l-88 -168h90z" unicode="¼"/>
<glyph glyph-name="onehalf" d="M176 742v-354h68v-42h-188v42h70v293l-73 -22v45zM391 42h172v-42h-222v22q0 57 22.5 92t73.5 77q22 18 33.5 28.5t26.5 31.5t15 39q0 24 -13 38t-37 14q-31 0 -46 -22t-16 -54h-51q2 52 31.5 85t81.5 33q46 0 73 -25.5t27 -69.5q0 -29 -17 -55.5t-41.5 -47t-49.5 -41.5 t-43 -47.5t-20 -55.5zM446 720h58l-330 -720h-56z" unicode="½"/>
<glyph glyph-name="threequarters" d="M117 530v42h5q31 0 54 17.5t23 47.5q0 24 -17.5 39.5t-41.5 15.5q-22 0 -40.5 -16t-28.5 -39l-43 24q17 33 46.5 53t65.5 20q46 0 77.5 -28t31.5 -73q0 -50 -45 -78q62 -28 62 -97q0 -51 -34 -83t-86 -32q-44 0 -71.5 18.5t-52.5 57.5l45 26q14 -31 31 -45.5t48 -14.5 t50.5 18.5t19.5 49.5q0 41 -23.5 58.5t-75.5 18.5zM460 720h58l-330 -720h-56zM519 384v-247h54v-42h-54v-95h-50v95h-149v31l140 258h59zM469 137v168h-2l-88 -168h90z" unicode="¾"/>
<glyph glyph-name="questiondown" d="M218 657q0 32 24 54.5t57 22.5t56.5 -22t23.5 -55t-23.5 -55.5t-56.5 -22.5t-57 22.5t-24 55.5zM269 504h75v-106q0 -44 -17 -69.5t-72 -66.5q-29 -22 -41.5 -44t-12.5 -56q0 -51 28.5 -82t78.5 -31t77 30.5t27 79.5h75q-4 -80 -52 -126.5t-128 -46.5q-83 0 -132 48 t-49 131q0 46 15.5 76t48.5 59q16 14 36 30t26.5 22t11.5 17t5 29v106z" unicode="¿"/>
<glyph glyph-name="Agrave" d="M217 960l177 -142l-38 -49l-193 129zM301 566l-91 -291h183zM301 780l255 -780h-81l-64 212h-219l-64 -212h-81z" unicode="À"/>
<glyph glyph-name="Aacute" d="M383 960l54 -62l-193 -129l-38 49zM301 566l-91 -291h183zM301 780l255 -780h-81l-64 212h-219l-64 -212h-81z" unicode="Á"/>
<glyph glyph-name="Acircumflex" d="M300 869l-139 -103l-40 43l179 153l179 -153l-39 -43zM301 566l-91 -291h183zM301 780l255 -780h-81l-64 212h-219l-64 -212h-81z" unicode="Â"/>
<glyph glyph-name="Atilde" d="M437 919l61 -25q-14 -41 -44.5 -68t-71.5 -27q-36 0 -87 31q-48 31 -69 31q-34 0 -63 -68l-62 22q23 50 52 79.5t75 29.5q16 0 33 -5.5t24.5 -9.5t29.5 -17q3 -1 14 -8t18 -11t16.5 -7.5t16.5 -3.5q15 0 27.5 10.5t17 19.5t12.5 27zM301 566l-91 -291h183zM301 780 l255 -780h-81l-64 212h-219l-64 -212h-81z" unicode="Ã"/>
<glyph glyph-name="Adieresis" d="M320 863q0 28 20.5 47.5t48.5 19.5t48.5 -19.5t20.5 -47.5t-20.5 -47.5t-48.5 -19.5t-48.5 19.5t-20.5 47.5zM141 863q0 28 20.5 47.5t48.5 19.5t48.5 -19.5t20.5 -47.5t-20.5 -47.5t-48.5 -19.5t-48.5 19.5t-20.5 47.5zM301 566l-91 -291h183zM301 780l255 -780h-81 l-64 212h-219l-64 -212h-81z" unicode="Ä"/>
<glyph glyph-name="Aring" d="M272 878q0 -13 9 -22.5t22 -9.5t22 9.5t9 22.5t-9 22.5t-22 9.5t-22 -9.5t-9 -22.5zM209 878q0 39 28 67t66 28t66 -28t28 -67t-28 -67t-66 -28t-66 28t-28 67zM301 566l-91 -291h183zM301 780l255 -780h-81l-64 212h-219l-64 -212h-81z" unicode="Å"/>
<glyph glyph-name="AE" d="M271 278v379h-2l-97 -379h99zM549 720v-63h-203v-253h138v-63h-138v-278h211v-63h-286v215h-116l-57 -215h-78l199 720h330z" unicode="Æ"/>
<glyph glyph-name="Ccedilla" d="M505 564h-75q-1 46 -30.5 76.5t-74.5 30.5q-162 0 -162 -317q0 -305 155 -305q55 0 87.5 36t33.5 91h75q-6 -84 -52.5 -133.5t-127.5 -54.5l-6 -19q37 -2 62 -21.5t25 -55.5q0 -37 -31 -59t-70 -22q-46 0 -110 29l22 55q48 -21 79 -21q35 0 35 22q0 14 -15 19t-58 9 q-13 1 -20 2l23 65q-182 34 -182 365q0 54 5 101t20 100t40 90t69 62t102 25q75 0 126 -47.5t55 -122.5z" unicode="Ç"/>
<glyph glyph-name="Egrave" d="M237 960l177 -142l-38 -49l-193 129zM513 720v-63h-299v-256h215v-63h-215v-275h306v-63h-381v720h374z" unicode="È"/>
<glyph glyph-name="Eacute" d="M383 960l54 -62l-193 -129l-38 49zM513 720v-63h-299v-256h215v-63h-215v-275h306v-63h-381v720h374z" unicode="É"/>
<glyph glyph-name="Ecircumflex" d="M315 869l-139 -103l-40 43l179 153l179 -153l-39 -43zM513 720v-63h-299v-256h215v-63h-215v-275h306v-63h-381v720h374z" unicode="Ê"/>
<glyph glyph-name="Edieresis" d="M335 863q0 28 20.5 47.5t48.5 19.5t48.5 -19.5t20.5 -47.5t-20.5 -47.5t-48.5 -19.5t-48.5 19.5t-20.5 47.5zM156 863q0 28 20.5 47.5t48.5 19.5t48.5 -19.5t20.5 -47.5t-20.5 -47.5t-48.5 -19.5t-48.5 19.5t-20.5 47.5zM513 720v-63h-299v-256h215v-63h-215v-275h306 v-63h-381v720h374z" unicode="Ë"/>
<glyph glyph-name="Igrave" d="M217 960l177 -142l-38 -49l-193 129zM435 720v-63h-98v-594h98v-63h-270v63h97v594h-97v63h270z" unicode="Ì"/>
<glyph glyph-name="Iacute" d="M383 960l54 -62l-193 -129l-38 49zM435 720v-63h-98v-594h98v-63h-270v63h97v594h-97v63h270z" unicode="Í"/>
<glyph glyph-name="Icircumflex" d="M300 869l-139 -103l-40 43l179 153l179 -153l-39 -43zM435 720v-63h-98v-594h98v-63h-270v63h97v594h-97v63h270z" unicode="Î"/>
<glyph glyph-name="Idieresis" d="M320 863q0 28 20.5 47.5t48.5 19.5t48.5 -19.5t20.5 -47.5t-20.5 -47.5t-48.5 -19.5t-48.5 19.5t-20.5 47.5zM141 863q0 28 20.5 47.5t48.5 19.5t48.5 -19.5t20.5 -47.5t-20.5 -47.5t-48.5 -19.5t-48.5 19.5t-20.5 47.5zM435 720v-63h-98v-594h98v-63h-270v63h97v594h-97 v63h270z" unicode="Ï"/>
<glyph glyph-name="Eth" d="M187 657v-252h121v-63h-121v-279h92q35 0 58.5 5t47 22.5t37 49t22 86.5t8.5 134q0 80 -9.5 136.5t-24 87.5t-39 48t-46.5 21t-56 4h-90zM112 405v315h183q55 0 95.5 -17t72 -57t48 -111.5t16.5 -174.5q0 -200 -59.5 -280t-183.5 -80h-172v342h-96v63h96z" unicode="Ð"/>
<glyph glyph-name="Ntilde" d="M437 919l61 -25q-14 -41 -44.5 -68t-71.5 -27q-36 0 -87 31q-48 31 -69 31q-34 0 -63 -68l-62 22q23 50 52 79.5t75 29.5q16 0 33 -5.5t24.5 -9.5t29.5 -17q3 -1 14 -8t18 -11t16.5 -7.5t16.5 -3.5q15 0 27.5 10.5t17 19.5t12.5 27zM115 0v720h87l219 -538h3v538h75v-727 h-71l-236 581l-2 -2v-572h-75z" unicode="Ñ"/>
<glyph glyph-name="Ograve" d="M237 960l177 -142l-38 -49l-193 129zM300 49q31 0 55 12.5t45.5 44.5t33.5 96t12 158v29q0 282 -146 282q-39 0 -67.5 -21.5t-43 -51.5t-23 -72.5t-10.5 -71.5t-2 -62v-32v-14q0 -297 146 -297zM79 360q0 109 17 185t48.5 115.5t69 56.5t86.5 17q50 0 89 -17.5t62 -50.5 t38 -68t21.5 -82.5t8.5 -80.5t2 -75v-18q0 -31 -1 -54.5t-5.5 -63t-12.5 -69t-24.5 -63t-39.5 -55.5t-58.5 -36.5t-79.5 -14.5q-46 0 -82 16.5t-59 39t-39 60.5t-24 67t-12 73t-4.5 64.5t-0.5 53.5z" unicode="Ò"/>
<glyph glyph-name="Oacute" d="M383 960l54 -62l-193 -129l-38 49zM300 49q31 0 55 12.5t45.5 44.5t33.5 96t12 158v29q0 282 -146 282q-39 0 -67.5 -21.5t-43 -51.5t-23 -72.5t-10.5 -71.5t-2 -62v-32v-14q0 -297 146 -297zM79 360q0 109 17 185t48.5 115.5t69 56.5t86.5 17q50 0 89 -17.5t62 -50.5 t38 -68t21.5 -82.5t8.5 -80.5t2 -75v-18q0 -31 -1 -54.5t-5.5 -63t-12.5 -69t-24.5 -63t-39.5 -55.5t-58.5 -36.5t-79.5 -14.5q-46 0 -82 16.5t-59 39t-39 60.5t-24 67t-12 73t-4.5 64.5t-0.5 53.5z" unicode="Ó"/>
<glyph glyph-name="Ocircumflex" d="M300 869l-139 -103l-40 43l179 153l179 -153l-39 -43zM300 49q31 0 55 12.5t45.5 44.5t33.5 96t12 158v29q0 282 -146 282q-39 0 -67.5 -21.5t-43 -51.5t-23 -72.5t-10.5 -71.5t-2 -62v-32v-14q0 -297 146 -297zM79 360q0 109 17 185t48.5 115.5t69 56.5t86.5 17 q50 0 89 -17.5t62 -50.5t38 -68t21.5 -82.5t8.5 -80.5t2 -75v-18q0 -31 -1 -54.5t-5.5 -63t-12.5 -69t-24.5 -63t-39.5 -55.5t-58.5 -36.5t-79.5 -14.5q-46 0 -82 16.5t-59 39t-39 60.5t-24 67t-12 73t-4.5 64.5t-0.5 53.5z" unicode="Ô"/>
<glyph glyph-name="Otilde" d="M437 919l61 -25q-14 -41 -44.5 -68t-71.5 -27q-36 0 -87 31q-48 31 -69 31q-34 0 -63 -68l-62 22q23 50 52 79.5t75 29.5q16 0 33 -5.5t24.5 -9.5t29.5 -17q3 -1 14 -8t18 -11t16.5 -7.5t16.5 -3.5q15 0 27.5 10.5t17 19.5t12.5 27zM300 49q31 0 55 12.5t45.5 44.5 t33.5 96t12 158v29q0 282 -146 282q-39 0 -67.5 -21.5t-43 -51.5t-23 -72.5t-10.5 -71.5t-2 -62v-32v-14q0 -297 146 -297zM79 360q0 109 17 185t48.5 115.5t69 56.5t86.5 17q50 0 89 -17.5t62 -50.5t38 -68t21.5 -82.5t8.5 -80.5t2 -75v-18q0 -31 -1 -54.5t-5.5 -63 t-12.5 -69t-24.5 -63t-39.5 -55.5t-58.5 -36.5t-79.5 -14.5q-46 0 -82 16.5t-59 39t-39 60.5t-24 67t-12 73t-4.5 64.5t-0.5 53.5z" unicode="Õ"/>
<glyph glyph-name="Odieresis" d="M320 863q0 28 20.5 47.5t48.5 19.5t48.5 -19.5t20.5 -47.5t-20.5 -47.5t-48.5 -19.5t-48.5 19.5t-20.5 47.5zM141 863q0 28 20.5 47.5t48.5 19.5t48.5 -19.5t20.5 -47.5t-20.5 -47.5t-48.5 -19.5t-48.5 19.5t-20.5 47.5zM300 49q31 0 55 12.5t45.5 44.5t33.5 96t12 158 v29q0 282 -146 282q-39 0 -67.5 -21.5t-43 -51.5t-23 -72.5t-10.5 -71.5t-2 -62v-32v-14q0 -297 146 -297zM79 360q0 109 17 185t48.5 115.5t69 56.5t86.5 17q50 0 89 -17.5t62 -50.5t38 -68t21.5 -82.5t8.5 -80.5t2 -75v-18q0 -31 -1 -54.5t-5.5 -63t-12.5 -69t-24.5 -63 t-39.5 -55.5t-58.5 -36.5t-79.5 -14.5q-46 0 -82 16.5t-59 39t-39 60.5t-24 67t-12 73t-4.5 64.5t-0.5 53.5z" unicode="Ö"/>
<glyph glyph-name="multiply" d="M300 312l-227 -228l-48 48l228 228l-228 228l48 48l227 -228l227 228l48 -48l-228 -228l228 -228l-48 -48z" unicode="×"/>
<glyph glyph-name="Oslash" d="M441 677l28 49l56 -33l-43 -75q40 -86 40 -258q0 -35 -1 -62.5t-6 -68.5t-13.5 -72t-25 -65t-39.5 -55.5t-58 -36t-79 -14.5q-83 0 -142 59l-42 -73l-56 33l57 100q-38 86 -38 255q0 34 1 59.5t5.5 67t13 72t25 65.5t39 57.5t58 37.5t79.5 15q84 0 141 -57zM434 532 l-238 -420q37 -63 104 -63q24 0 43.5 6.5t39.5 27t33.5 53.5t22 90t8.5 134q0 106 -13 172zM166 191l238 419q-40 61 -104 61q-31 0 -55 -12.5t-45.5 -44.5t-33.5 -96t-12 -158q0 -109 12 -169z" unicode="Ø"/>
<glyph glyph-name="Ugrave" d="M217 960l177 -142l-38 -49l-193 129zM424 720h75v-531q0 -96 -59.5 -149.5t-139.5 -53.5q-33 0 -64.5 10.5t-64 35.5t-52 76t-19.5 121v491h75v-531q0 -72 37.5 -106t87.5 -34q65 0 94.5 41t29.5 108v522z" unicode="Ù"/>
<glyph glyph-name="Uacute" d="M383 960l54 -62l-193 -129l-38 49zM424 720h75v-531q0 -96 -59.5 -149.5t-139.5 -53.5q-33 0 -64.5 10.5t-64 35.5t-52 76t-19.5 121v491h75v-531q0 -72 37.5 -106t87.5 -34q65 0 94.5 41t29.5 108v522z" unicode="Ú"/>
<glyph glyph-name="Ucircumflex" d="M300 869l-139 -103l-40 43l179 153l179 -153l-39 -43zM424 720h75v-531q0 -96 -59.5 -149.5t-139.5 -53.5q-33 0 -64.5 10.5t-64 35.5t-52 76t-19.5 121v491h75v-531q0 -72 37.5 -106t87.5 -34q65 0 94.5 41t29.5 108v522z" unicode="Û"/>
<glyph glyph-name="Udieresis" d="M320 863q0 28 20.5 47.5t48.5 19.5t48.5 -19.5t20.5 -47.5t-20.5 -47.5t-48.5 -19.5t-48.5 19.5t-20.5 47.5zM141 863q0 28 20.5 47.5t48.5 19.5t48.5 -19.5t20.5 -47.5t-20.5 -47.5t-48.5 -19.5t-48.5 19.5t-20.5 47.5zM424 720h75v-531q0 -96 -59.5 -149.5 t-139.5 -53.5q-33 0 -64.5 10.5t-64 35.5t-52 76t-19.5 121v491h75v-531q0 -72 37.5 -106t87.5 -34q65 0 94.5 41t29.5 108v522z" unicode="Ü"/>
<glyph glyph-name="Yacute" d="M383 960l54 -62l-193 -129l-38 49zM282 394l138 326h83l-184 -416v-304h-75v304l-184 416h83z" unicode="Ý"/>
<glyph glyph-name="Thorn" d="M209 205h83q67 0 106.5 39.5t39.5 113.5q0 158 -141 158h-88v-311zM134 0v720h75v-141h98q98 0 152 -57t54 -163q0 -110 -65 -163.5t-176 -53.5h-63v-142h-75z" unicode="Þ"/>
<glyph glyph-name="germandbls" d="M250 352v63h2q62 0 103.5 37t41.5 98q0 49 -28 85t-75 36q-42 0 -62.5 -29.5t-20.5 -98.5v-543h-75v574q0 58 46 109t122 51q71 0 119.5 -55t48.5 -127q0 -99 -87 -162q115 -50 115 -189q0 -60 -16 -104t-42 -66t-52.5 -32t-54.5 -10q-49 0 -96 35l34 55q39 -27 65 -27 q32 0 52.5 24.5t27.5 53t7 59.5q0 163 -168 163h-7z" unicode="ß"/>
<glyph glyph-name="agrave" d="M217 775l177 -142l-38 -49l-193 129zM383 144v124q-59 26 -102 26q-53 0 -79.5 -39t-26.5 -95q0 -42 22 -75t62 -33q27 0 52 16t38 31t34 45zM157 443l-17 66q94 37 154 37q74 0 119 -51.5t45 -121.5v-232q0 -79 23 -145l-70 -9l-19 67q-54 -65 -133 -65 q-74 0 -116.5 50.5t-42.5 124.5q0 81 46.5 137t124.5 56q49 0 112 -26v51q0 45 -25 73t-67 28q-11 0 -23.5 -2t-22 -4t-23.5 -7.5t-21 -8t-23 -9.5t-21 -9z" unicode="à"/>
<glyph glyph-name="aacute" d="M383 775l54 -62l-193 -129l-38 49zM383 144v124q-59 26 -102 26q-53 0 -79.5 -39t-26.5 -95q0 -42 22 -75t62 -33q27 0 52 16t38 31t34 45zM157 443l-17 66q94 37 154 37q74 0 119 -51.5t45 -121.5v-232q0 -79 23 -145l-70 -9l-19 67q-54 -65 -133 -65q-74 0 -116.5 50.5 t-42.5 124.5q0 81 46.5 137t124.5 56q49 0 112 -26v51q0 45 -25 73t-67 28q-11 0 -23.5 -2t-22 -4t-23.5 -7.5t-21 -8t-23 -9.5t-21 -9z" unicode="á"/>
<glyph glyph-name="acircumflex" d="M300 684l-139 -103l-40 43l179 153l179 -153l-39 -43zM383 144v124q-59 26 -102 26q-53 0 -79.5 -39t-26.5 -95q0 -42 22 -75t62 -33q27 0 52 16t38 31t34 45zM157 443l-17 66q94 37 154 37q74 0 119 -51.5t45 -121.5v-232q0 -79 23 -145l-70 -9l-19 67q-54 -65 -133 -65 q-74 0 -116.5 50.5t-42.5 124.5q0 81 46.5 137t124.5 56q49 0 112 -26v51q0 45 -25 73t-67 28q-11 0 -23.5 -2t-22 -4t-23.5 -7.5t-21 -8t-23 -9.5t-21 -9z" unicode="â"/>
<glyph glyph-name="atilde" d="M437 734l61 -25q-14 -41 -44.5 -68t-71.5 -27q-36 0 -87 31q-48 31 -69 31q-34 0 -63 -68l-62 22q23 50 52 79.5t75 29.5q16 0 33 -5.5t24.5 -9.5t29.5 -17q3 -1 14 -8t18 -11t16.5 -7.5t16.5 -3.5q15 0 27.5 10.5t17 19.5t12.5 27zM383 144v124q-59 26 -102 26 q-53 0 -79.5 -39t-26.5 -95q0 -42 22 -75t62 -33q27 0 52 16t38 31t34 45zM157 443l-17 66q94 37 154 37q74 0 119 -51.5t45 -121.5v-232q0 -79 23 -145l-70 -9l-19 67q-54 -65 -133 -65q-74 0 -116.5 50.5t-42.5 124.5q0 81 46.5 137t124.5 56q49 0 112 -26v51q0 45 -25 73 t-67 28q-11 0 -23.5 -2t-22 -4t-23.5 -7.5t-21 -8t-23 -9.5t-21 -9z" unicode="ã"/>
<glyph glyph-name="adieresis" d="M141 678q0 28 20.5 47.5t48.5 19.5t48.5 -19.5t20.5 -47.5t-20.5 -47.5t-48.5 -19.5t-48.5 19.5t-20.5 47.5zM320 678q0 28 20.5 47.5t48.5 19.5t48.5 -19.5t20.5 -47.5t-20.5 -47.5t-48.5 -19.5t-48.5 19.5t-20.5 47.5zM383 144v124q-59 26 -102 26q-53 0 -79.5 -39 t-26.5 -95q0 -42 22 -75t62 -33q27 0 52 16t38 31t34 45zM157 443l-17 66q94 37 154 37q74 0 119 -51.5t45 -121.5v-232q0 -79 23 -145l-70 -9l-19 67q-54 -65 -133 -65q-74 0 -116.5 50.5t-42.5 124.5q0 81 46.5 137t124.5 56q49 0 112 -26v51q0 45 -25 73t-67 28 q-11 0 -23.5 -2t-22 -4t-23.5 -7.5t-21 -8t-23 -9.5t-21 -9z" unicode="ä"/>
<glyph glyph-name="aring" d="M265 689q0 -13 9 -22.5t22 -9.5t22 9.5t9 22.5t-9 22.5t-22 9.5t-22 -9.5t-9 -22.5zM202 689q0 39 28 67t66 28t66 -28t28 -67t-28 -67t-66 -28t-66 28t-28 67zM383 144v124q-59 26 -102 26q-53 0 -79.5 -39t-26.5 -95q0 -42 22 -75t62 -33q27 0 52 16t38 31t34 45z M157 443l-17 66q94 37 154 37q74 0 119 -51.5t45 -121.5v-232q0 -79 23 -145l-70 -9l-19 67q-54 -65 -133 -65q-74 0 -116.5 50.5t-42.5 124.5q0 81 46.5 137t124.5 56q49 0 112 -26v51q0 45 -25 73t-67 28q-11 0 -23.5 -2t-22 -4t-23.5 -7.5t-21 -8t-23 -9.5t-21 -9z" unicode="å"/>
<glyph glyph-name="ae" d="M334 249v-111q0 -25 2.5 -41t15.5 -30.5t37 -14.5t54.5 11.5t45.5 20.5t49 29l27 -62q-107 -62 -181 -62q-29 0 -48.5 8t-41.5 29q-42 -37 -106 -37q-71 0 -110.5 50t-39.5 123q0 95 49 143.5t103 48.5q29 0 69 -10v33q0 106 -46 106q-16 0 -34.5 -7t-30 -14t-32.5 -21 t-28 -18l-17 68q90 55 144 55q26 0 42 -7t41 -26q38 33 93 33q20 0 39.5 -5t43 -22t40.5 -45t28.5 -78.5t11.5 -117.5v-29h-220zM259 158v116q-25 17 -57 17q-47 0 -68 -40.5t-21 -91.5q0 -43 22 -75t63 -32q22 0 35 8.5t18.5 26.5t6.5 31.5t1 39.5zM334 312h145q0 27 -4 53 t-13.5 54.5t-29.5 46t-48 17.5q-27 0 -38.5 -19t-11.5 -64v-88z" unicode="æ"/>
<glyph glyph-name="ccedilla" d="M470 140l51 -53q-44 -48 -87 -72.5t-99 -25.5l-7 -20q37 -2 62 -21.5t25 -55.5q0 -37 -31 -59t-70 -22q-46 0 -110 29l22 55q48 -21 79 -21q35 0 35 22q0 14 -15 19t-58 9q-13 1 -20 2l25 71q-74 17 -123.5 81.5t-49.5 183.5q0 77 20 134t54 88.5t72.5 46.5t81.5 15 q118 0 197 -119l-65 -43q-49 99 -132 99q-64 0 -108.5 -52t-44.5 -162q0 -114 46.5 -165.5t108.5 -51.5q67 0 141 88z" unicode="ç"/>
<glyph glyph-name="egrave" d="M237 775l177 -142l-38 -49l-193 129zM161 311h282q-2 70 -39.5 121t-97.5 51q-61 0 -95 -43.5t-50 -128.5zM518 248h-356q5 -196 152 -196q74 0 167 57l32 -67q-118 -53 -205 -53q-57 0 -101 23t-69.5 62.5t-38 87.5t-12.5 102q0 55 13 103.5t39 89.5t70.5 65t102.5 24 q50 0 89.5 -21.5t60.5 -52t34.5 -68.5t17.5 -65.5t4 -49.5v-41z" unicode="è"/>
<glyph glyph-name="eacute" d="M383 775l54 -62l-193 -129l-38 49zM161 311h282q-2 70 -39.5 121t-97.5 51q-61 0 -95 -43.5t-50 -128.5zM518 248h-356q5 -196 152 -196q74 0 167 57l32 -67q-118 -53 -205 -53q-57 0 -101 23t-69.5 62.5t-38 87.5t-12.5 102q0 55 13 103.5t39 89.5t70.5 65t102.5 24 q50 0 89.5 -21.5t60.5 -52t34.5 -68.5t17.5 -65.5t4 -49.5v-41z" unicode="é"/>
<glyph glyph-name="ecircumflex" d="M300 684l-139 -103l-40 43l179 153l179 -153l-39 -43zM161 311h282q-2 70 -39.5 121t-97.5 51q-61 0 -95 -43.5t-50 -128.5zM518 248h-356q5 -196 152 -196q74 0 167 57l32 -67q-118 -53 -205 -53q-57 0 -101 23t-69.5 62.5t-38 87.5t-12.5 102q0 55 13 103.5t39 89.5 t70.5 65t102.5 24q50 0 89.5 -21.5t60.5 -52t34.5 -68.5t17.5 -65.5t4 -49.5v-41z" unicode="ê"/>
<glyph glyph-name="edieresis" d="M320 678q0 28 20.5 47.5t48.5 19.5t48.5 -19.5t20.5 -47.5t-20.5 -47.5t-48.5 -19.5t-48.5 19.5t-20.5 47.5zM141 678q0 28 20.5 47.5t48.5 19.5t48.5 -19.5t20.5 -47.5t-20.5 -47.5t-48.5 -19.5t-48.5 19.5t-20.5 47.5zM161 311h282q-2 70 -39.5 121t-97.5 51 q-61 0 -95 -43.5t-50 -128.5zM518 248h-356q5 -196 152 -196q74 0 167 57l32 -67q-118 -53 -205 -53q-57 0 -101 23t-69.5 62.5t-38 87.5t-12.5 102q0 55 13 103.5t39 89.5t70.5 65t102.5 24q50 0 89.5 -21.5t60.5 -52t34.5 -68.5t17.5 -65.5t4 -49.5v-41z" unicode="ë"/>
<glyph glyph-name="igrave" d="M217 775l177 -142l-38 -49l-193 129zM276 0v472h-152v63h227v-535h-75z" unicode="ì"/>
<glyph glyph-name="iacute" d="M383 775l54 -62l-193 -129l-38 49zM276 0v472h-152v63h227v-535h-75z" unicode="í"/>
<glyph glyph-name="icircumflex" d="M260 684l-139 -103l-40 43l179 153l179 -153l-39 -43zM276 0v472h-152v63h227v-535h-75z" unicode="î"/>
<glyph glyph-name="idieresis" d="M320 678q0 28 20.5 47.5t48.5 19.5t48.5 -19.5t20.5 -47.5t-20.5 -47.5t-48.5 -19.5t-48.5 19.5t-20.5 47.5zM141 678q0 28 20.5 47.5t48.5 19.5t48.5 -19.5t20.5 -47.5t-20.5 -47.5t-48.5 -19.5t-48.5 19.5t-20.5 47.5zM276 0v472h-152v63h227v-535h-75z" unicode="ï"/>
<glyph glyph-name="eth" d="M302 632l-136 -62l-44 34l132 63q-52 34 -130 53l50 22q73 -9 139 -48l107 48l46 -35l-103 -47q150 -125 150 -352q0 -319 -213 -319q-38 0 -73 13.5t-67.5 43.5t-52 87t-19.5 134q0 142 63 210.5t147 68.5q54 0 110 -50l2 2q-34 77 -108 134zM300 52q138 0 138 215 q0 216 -138 216q-137 0 -137 -216q0 -215 137 -215z" unicode="ð"/>
<glyph glyph-name="ntilde" d="M427 734l61 -25q-14 -41 -44.5 -68t-71.5 -27q-36 0 -87 31q-48 31 -69 31q-34 0 -63 -68l-62 22q23 50 52 79.5t75 29.5q16 0 33 -5.5t24.5 -9.5t29.5 -17q3 -1 14 -8t18 -11t16.5 -7.5t16.5 -3.5q15 0 27.5 10.5t17 19.5t12.5 27zM186 223v-223h-75v269q0 164 -24 266 h72l17 -98q29 49 78 79t104 30q61 0 95 -48.5t34 -120.5v-377h-75v355q0 21 -0.5 33.5t-4 33t-10 32t-19.5 20.5t-32 9q-62 0 -111 -65.5t-49 -194.5z" unicode="ñ"/>
<glyph glyph-name="ograve" d="M237 775l177 -142l-38 -49l-193 129zM300 52q138 0 138 215q0 216 -138 216q-137 0 -137 -216q0 -215 137 -215zM300 -11q-38 0 -73 13.5t-67.5 43.5t-52 87t-19.5 134q0 143 62.5 211t149.5 68q54 0 94.5 -21t62.5 -51.5t35.5 -71.5t17 -72t3.5 -63q0 -143 -62.5 -210.5 t-150.5 -67.5z" unicode="ò"/>
<glyph glyph-name="oacute" d="M383 775l54 -62l-193 -129l-38 49zM300 52q138 0 138 215q0 216 -138 216q-137 0 -137 -216q0 -215 137 -215zM300 -11q-38 0 -73 13.5t-67.5 43.5t-52 87t-19.5 134q0 143 62.5 211t149.5 68q54 0 94.5 -21t62.5 -51.5t35.5 -71.5t17 -72t3.5 -63q0 -143 -62.5 -210.5 t-150.5 -67.5z" unicode="ó"/>
<glyph glyph-name="ocircumflex" d="M300 684l-139 -103l-40 43l179 153l179 -153l-39 -43zM300 52q138 0 138 215q0 216 -138 216q-137 0 -137 -216q0 -215 137 -215zM300 -11q-38 0 -73 13.5t-67.5 43.5t-52 87t-19.5 134q0 143 62.5 211t149.5 68q54 0 94.5 -21t62.5 -51.5t35.5 -71.5t17 -72t3.5 -63 q0 -143 -62.5 -210.5t-150.5 -67.5z" unicode="ô"/>
<glyph glyph-name="otilde" d="M437 734l61 -25q-14 -41 -44.5 -68t-71.5 -27q-36 0 -87 31q-48 31 -69 31q-34 0 -63 -68l-62 22q23 50 52 79.5t75 29.5q16 0 33 -5.5t24.5 -9.5t29.5 -17q3 -1 14 -8t18 -11t16.5 -7.5t16.5 -3.5q15 0 27.5 10.5t17 19.5t12.5 27zM300 52q138 0 138 215q0 216 -138 216 q-137 0 -137 -216q0 -215 137 -215zM300 -11q-38 0 -73 13.5t-67.5 43.5t-52 87t-19.5 134q0 143 62.5 211t149.5 68q54 0 94.5 -21t62.5 -51.5t35.5 -71.5t17 -72t3.5 -63q0 -143 -62.5 -210.5t-150.5 -67.5z" unicode="õ"/>
<glyph glyph-name="odieresis" d="M320 678q0 28 20.5 47.5t48.5 19.5t48.5 -19.5t20.5 -47.5t-20.5 -47.5t-48.5 -19.5t-48.5 19.5t-20.5 47.5zM141 678q0 28 20.5 47.5t48.5 19.5t48.5 -19.5t20.5 -47.5t-20.5 -47.5t-48.5 -19.5t-48.5 19.5t-20.5 47.5zM300 52q138 0 138 215q0 216 -138 216 q-137 0 -137 -216q0 -215 137 -215zM300 -11q-38 0 -73 13.5t-67.5 43.5t-52 87t-19.5 134q0 143 62.5 211t149.5 68q54 0 94.5 -21t62.5 -51.5t35.5 -71.5t17 -72t3.5 -63q0 -143 -62.5 -210.5t-150.5 -67.5z" unicode="ö"/>
<glyph glyph-name="divide" d="M355 510q0 -22 -16.5 -38.5t-38.5 -16.5t-38.5 16.5t-16.5 38.5t16.5 38.5t38.5 16.5t38.5 -16.5t16.5 -38.5zM355 210q0 -22 -16.5 -38.5t-38.5 -16.5t-38.5 16.5t-16.5 38.5t16.5 38.5t38.5 16.5t38.5 -16.5t16.5 -38.5zM575 393v-66h-550v66h550z" unicode="÷"/>
<glyph glyph-name="oslash" d="M417 403l-197 -323q34 -28 81 -28q138 0 138 221q0 72 -22 130zM182 140l194 318q-32 25 -75 25q-138 0 -138 -222q0 -68 19 -121zM409 514l35 57l53 -37l-40 -64q57 -72 57 -203q0 -143 -63 -210.5t-150 -67.5q-63 0 -115 36l-35 -59l-53 36l42 68q-52 71 -52 197 q0 143 63 211t150 68q59 0 108 -32z" unicode="ø"/>
<glyph glyph-name="ugrave" d="M217 775l177 -142l-38 -49l-193 129zM415 316v219h75v-259q0 -176 23 -276h-71l-17 103q-28 -47 -77 -80.5t-99 -33.5q-67 0 -101 49.5t-34 124.5v372h75v-350q0 -27 1.5 -43t6.5 -40.5t20 -37t38 -12.5q62 0 111 69t49 195z" unicode="ù"/>
<glyph glyph-name="uacute" d="M383 775l54 -62l-193 -129l-38 49zM415 316v219h75v-259q0 -176 23 -276h-71l-17 103q-28 -47 -77 -80.5t-99 -33.5q-67 0 -101 49.5t-34 124.5v372h75v-350q0 -27 1.5 -43t6.5 -40.5t20 -37t38 -12.5q62 0 111 69t49 195z" unicode="ú"/>
<glyph glyph-name="ucircumflex" d="M300 684l-139 -103l-40 43l179 153l179 -153l-39 -43zM415 316v219h75v-259q0 -176 23 -276h-71l-17 103q-28 -47 -77 -80.5t-99 -33.5q-67 0 -101 49.5t-34 124.5v372h75v-350q0 -27 1.5 -43t6.5 -40.5t20 -37t38 -12.5q62 0 111 69t49 195z" unicode="û"/>
<glyph glyph-name="udieresis" d="M320 678q0 28 20.5 47.5t48.5 19.5t48.5 -19.5t20.5 -47.5t-20.5 -47.5t-48.5 -19.5t-48.5 19.5t-20.5 47.5zM141 678q0 28 20.5 47.5t48.5 19.5t48.5 -19.5t20.5 -47.5t-20.5 -47.5t-48.5 -19.5t-48.5 19.5t-20.5 47.5zM415 316v219h75v-259q0 -176 23 -276h-71l-17 103 q-28 -47 -77 -80.5t-99 -33.5q-67 0 -101 49.5t-34 124.5v372h75v-350q0 -27 1.5 -43t6.5 -40.5t20 -37t38 -12.5q62 0 111 69t49 195z" unicode="ü"/>
<glyph glyph-name="yacute" d="M383 775l54 -62l-193 -129l-38 49zM445 535h80l-198 -502q-12 -31 -20.5 -51t-26 -50.5t-34 -48.5t-42 -32t-53.5 -14q-49 0 -85 33t-51 83l63 33q32 -86 73 -86q42 0 81 90l35 81l-172 464h81l130 -364z" unicode="ý"/>
<glyph glyph-name="thorn" d="M189 390v-294q55 -44 102 -44q68 0 111.5 57t43.5 158q0 62 -14.5 107t-38 67t-45.5 32t-43 10q-72 0 -116 -93zM189 742v-246q52 50 117 50q38 0 74 -15t68.5 -46.5t52.5 -88.5t20 -132q0 -72 -21.5 -128t-55.5 -86.5t-70 -45.5t-71 -15q-55 0 -114 31v-225h-75v947h75z " unicode="þ"/>
<glyph glyph-name="OE" d="M313 63v593q-41 15 -61 15q-24 0 -44 -7.5t-40 -27.5t-33 -53t-21.5 -88t-8.5 -128q0 -98 10.5 -162.5t31 -97.5t45 -45.5t60.5 -12.5q28 0 61 14zM591 720v-63h-203v-253h138v-63h-138v-278h211v-63h-269q-32 -14 -79 -14q-44 0 -79 13.5t-57.5 33.5t-39 53t-25 63 t-13.5 72.5t-6 72t-1 71.5v6q0 34 0.5 56.5t5 64t12.5 70.5t25 64t40 56.5t59.5 36.5t82.5 15q35 0 75 -14h261z" unicode="Œ"/>
<glyph glyph-name="oe" d="M335 312h144q0 27 -4 53t-13.5 54.5t-29.5 46t-48 17.5q-26 0 -37.5 -19t-11.5 -64v-88zM260 80v388q-21 15 -36 15q-16 0 -33.5 -10t-35 -32.5t-29 -67.5t-11.5 -106q0 -77 19.5 -128.5t41 -69t41.5 -17.5q25 0 43 28zM554 249h-219v-111q0 -20 1 -31t5.5 -26t16.5 -22 t31 -7q24 0 54.5 11.5t45.5 20.5t49 29l27 -62q-107 -62 -181 -62q-48 0 -88 33q-41 -33 -71 -33q-31 0 -61.5 14.5t-59.5 45t-46.5 87t-17.5 131.5t17 132t45 87.5t58 45t61 14.5q30 0 82 -29q43 29 88 29q23 0 47 -9t52 -32.5t46 -77.5t18 -130v-48z" unicode="œ"/>
<glyph glyph-name="Scaron" d="M300 859l140 103l39 -43l-179 -153l-179 153l39 43zM502 644l-45 -54q-28 25 -47 39.5t-49.5 28t-59.5 13.5q-49 0 -82.5 -30.5t-33.5 -79.5q0 -23 5 -38.5t29 -40t70 -52.5l57 -35q101 -62 134.5 -101.5t33.5 -101.5q0 -96 -58 -151t-154 -55q-127 0 -218 117l58 46 q28 -45 69.5 -72.5t90.5 -27.5q57 0 97 38t40 95q0 33 -6 50t-34 41.5t-91 62.5l-65 39q-64 38 -98.5 79t-34.5 102q0 82 55 130t139 48q101 0 198 -90z" unicode="Š"/>
<glyph glyph-name="scaron" d="M300 674l140 103l39 -43l-179 -153l-179 153l39 43zM464 484l-33 -61q-84 60 -143 60q-35 0 -61 -23t-26 -58q0 -55 103 -93q32 -12 51 -20t45 -23.5t40.5 -31.5t25 -41t10.5 -56q0 -64 -49 -106t-114 -42q-116 0 -220 93l41 60q35 -37 82.5 -63.5t91.5 -26.5 q40 0 66.5 21.5t26.5 60.5q0 25 -8 43t-28.5 31t-32.5 19t-42 17q-37 14 -59 24.5t-50 30t-41.5 46t-13.5 60.5q0 59 48 100t117 41q87 0 173 -62z" unicode="š"/>
<glyph glyph-name="Ydieresis" d="M300 863q0 28 20.5 47.5t48.5 19.5t48.5 -19.5t20.5 -47.5t-20.5 -47.5t-48.5 -19.5t-48.5 19.5t-20.5 47.5zM121 863q0 28 20.5 47.5t48.5 19.5t48.5 -19.5t20.5 -47.5t-20.5 -47.5t-48.5 -19.5t-48.5 19.5t-20.5 47.5zM282 394l138 326h83l-184 -416v-304h-75v304 l-184 416h83z" unicode="Ÿ"/>
<glyph glyph-name="circumflex" d="M300 684l-139 -103l-40 43l179 153l179 -153l-39 -43z" unicode="ˆ"/>
<glyph glyph-name="tilde" d="M437 734l61 -25q-14 -41 -44.5 -68t-71.5 -27q-36 0 -87 31q-48 31 -69 31q-34 0 -63 -68l-62 22q23 50 52 79.5t75 29.5q16 0 33 -5.5t24.5 -9.5t29.5 -17q3 -1 14 -8t18 -11t16.5 -7.5t16.5 -3.5q15 0 27.5 10.5t17 19.5t12.5 27z" unicode="˜"/>
<glyph glyph-name="Gamma" d="M149 720h359v-63h-284v-657h-75v720z" unicode="Γ"/>
<glyph glyph-name="Theta" d="M171 398h257v-63h-257v63zM300 49q32 0 65.5 18.5t64.5 54.5t51 98t20 140q0 81 -21 144.5t-53 98t-65 51.5t-62 17q-76 0 -138.5 -81.5t-62.5 -229.5q0 -82 20.5 -145.5t52.5 -97.5t65 -51t63 -17zM300 -14q-49 0 -97.5 24.5t-88.5 70t-65 118.5t-25 161 q0 89 25.5 162.5t66 118.5t88.5 69t96 24q49 0 97.5 -24.5t88.5 -70t65 -118.5t25 -161q0 -167 -83.5 -270.5t-192.5 -103.5z" unicode="Θ"/>
<glyph glyph-name="Phi" d="M336 608v-496h1q56 0 96 41.5t56.5 95.5t16.5 110q0 41 -9.5 82.5t-28.5 80t-53.5 62.5t-77.5 24h-1zM261 111v497h-3q-55 0 -94 -43t-54.5 -98t-15.5 -110q0 -54 16.5 -108t55.5 -96t93 -42h2zM261 734h75v-67q76 0 133.5 -47.5t84.5 -115.5t27 -143q0 -118 -66.5 -213 t-178.5 -95v-67h-75v66q-75 1 -132 48t-83.5 114.5t-26.5 142.5q0 55 16 109.5t45 99.5t76.5 73t104.5 28v67z" unicode="Φ"/>
<glyph glyph-name="alpha" d="M421 385l53 161l70 -11l-95 -260l77 -275h-72l-38 156h-2q-41 -167 -171 -167q-23 0 -46.5 7t-50 26.5t-46.5 48.5t-33 78t-13 110q0 63 18 125.5t64 112t111 49.5q68 0 112 -45t62 -116zM246 52q46 0 85 65.5t39 163.5q0 29 -7 62t-21 65.5t-39 53.5t-56 21 q-44 0 -81 -60.5t-37 -169.5q0 -100 35.5 -150.5t81.5 -50.5z" unicode="α"/>
<glyph glyph-name="delta" d="M210 657l217 -217q88 -88 88 -198q0 -100 -60 -178t-157 -78q-94 0 -153.5 77.5t-59.5 174.5q0 120 56.5 178.5t143.5 70.5l-141 146v87h316v-63h-250zM440 241q0 71 -37.5 127t-104.5 56t-102.5 -59t-35.5 -130q0 -67 37.5 -126.5t100.5 -59.5q66 0 104 60.5t38 131.5z " unicode="δ"/>
<glyph glyph-name="epsilon" d="M348 315v-63q-92 0 -141 -25.5t-49 -87.5q0 -30 37 -60t113 -30q93 0 152 68l66 -29q-82 -102 -215 -102q-99 0 -163.5 44t-64.5 117q0 98 128 140q-94 44 -94 116q0 59 56 101t135 42q67 0 121 -27.5t87 -73.5l-63 -27q-48 65 -137 65q-39 0 -66 -8t-38.5 -21.5 t-15.5 -24.5t-4 -22q0 -44 42 -68t103 -24h11z" unicode="ε"/>
<glyph glyph-name="uni03BC" d="M410 0v45q-40 -56 -108 -56q-71 0 -111 52v-271h-75v765h75v-311q0 -95 32 -133.5t74 -38.5q18 0 35.5 7t36 24.5t30 55.5t11.5 92v304h75v-535h-75z" unicode="μ"/>
<glyph glyph-name="pi" d="M48 535h504v-63h-100v-472h-75v472h-154v-472h-75v472h-100v63z" unicode="π"/>
<glyph glyph-name="sigma" d="M269 52q45 0 78 37.5t46 85t13 93.5q0 71 -37 138t-101 67q-45 0 -78 -36t-46.5 -81t-13.5 -90q0 -58 15.5 -102.5t38.5 -67t45 -33.5t40 -11zM544 536v-61l-162 9q49 -38 74 -99t25 -128q0 -108 -58 -188t-153 -80q-65 0 -116 43.5t-75 105t-24 126.5q0 105 58.5 187.5 t168.5 83.5z" unicode="σ"/>
<glyph glyph-name="tau" d="M508 535v-63h-166v-472h-75v472h-71q-68 0 -103 -18v64q33 17 77 17h338z" unicode="τ"/>
<glyph glyph-name="endash" d="M476 327h-352v63h352v-63z" unicode="–"/>
<glyph glyph-name="emdash" d="M600 327h-600v63h600v-63z" unicode="—"/>
<glyph glyph-name="quoteleft" d="M389 734v-68q-39 -8 -64 -32q28 -2 47 -21.5t19 -47.5q0 -34 -22.5 -56t-56.5 -22q-36 0 -59.5 27t-23.5 64q0 58 48.5 99.5t111.5 56.5z" unicode="‘"/>
<glyph glyph-name="quotesinglbase" d="M221 -112v68q39 8 64 32q-28 2 -47 21.5t-19 47.5q0 34 22.5 56t56.5 22q36 0 59.5 -27t23.5 -64q0 -58 -48.5 -99.5t-111.5 -56.5z" unicode="‚"/>
<glyph glyph-name="quotedblleft" d="M498 734v-68q-39 -8 -64 -32q28 -2 47 -21.5t19 -47.5q0 -34 -22.5 -56t-56.5 -22q-36 0 -59.5 27t-23.5 64q0 58 48.5 99.5t111.5 56.5zM280 734v-68q-39 -8 -64 -32q28 -2 47 -21.5t19 -47.5q0 -34 -22.5 -56t-56.5 -22q-36 0 -59.5 27t-23.5 64q0 58 48.5 99.5 t111.5 56.5z" unicode="“"/>
<glyph glyph-name="quotedblright" d="M340 487v68q39 8 64 32q-28 2 -47 21.5t-19 47.5q0 34 22.5 56t56.5 22q36 0 59.5 -27t23.5 -64q0 -58 -48.5 -99.5t-111.5 -56.5zM122 487v68q39 8 64 32q-28 2 -47 21.5t-19 47.5q0 34 22.5 56t56.5 22q36 0 59.5 -27t23.5 -64q0 -58 -48.5 -99.5t-111.5 -56.5z" unicode="”"/>
<glyph glyph-name="dagger" d="M255 720h90l-7 -198l128 7v-79l-128 7l6 -81l-11 -376h-66l-11 376l6 81l-128 -7v79l128 -7z" unicode="†"/>
<glyph glyph-name="daggerdbl" d="M263 474l-128 -7v79l128 -7l-7 181h89l-7 -181l128 7v-79l-128 7v-228l128 7v-79l-128 7l7 -181h-89l7 181l-128 -7v79l128 -7v228z" unicode="‡"/>
<glyph glyph-name="ellipsis" d="M501 -14q-30 0 -51.5 20.5t-21.5 49.5q0 30 21.5 50t51.5 20t51 -20t21 -50q0 -29 -21.5 -49.5t-50.5 -20.5zM301 -14q-30 0 -51.5 20.5t-21.5 49.5q0 30 21.5 50t51.5 20t51 -20t21 -50q0 -29 -21.5 -49.5t-50.5 -20.5zM101 -14q-30 0 -51.5 20.5t-21.5 49.5 q0 30 21.5 50t51.5 20t51 -20t21 -50q0 -29 -21.5 -49.5t-50.5 -20.5z" unicode="…"/>
<glyph glyph-name="perthousand" d="M309 183q0 51 -23 51q-29 0 -43 -50.5t-14 -90.5q0 -52 24 -52q15 0 27 17.5t17.5 42.5t8.5 46.5t3 35.5zM166 101q0 41 10.5 81.5t39.5 73.5t71 33q43 0 64 -31t21 -76q0 -43 -10 -84.5t-39 -76.5t-72 -35q-85 0 -85 115zM2 546q0 41 10.5 81.5t39.5 73.5t71 33 q43 0 64 -31t21 -76q0 -43 -10 -84.5t-39 -76.5t-72 -35q-85 0 -85 115zM392 101q0 41 10.5 81.5t39.5 73.5t71 33q43 0 64 -31t21 -76q0 -43 -10 -84.5t-39 -76.5t-72 -35q-85 0 -85 115zM145 628q0 51 -23 51q-29 0 -43 -50.5t-14 -90.5q0 -52 24 -52q15 0 27 17.5 t17.5 42.5t8.5 46.5t3 35.5zM312 734h54l-302 -748h-54zM535 183q0 51 -23 51q-29 0 -43 -50.5t-14 -90.5q0 -52 24 -52q15 0 27 17.5t17.5 42.5t8.5 46.5t3 35.5z" unicode="‰"/>
<glyph glyph-name="guilsinglleft" d="M392 615l47 -48l-224 -211l224 -211l-47 -50l-273 261z" unicode="‹"/>
<glyph glyph-name="guilsinglright" d="M208 615l274 -259l-274 -261l-47 50l224 211l-224 211z" unicode="›"/>
<glyph glyph-name="uni203E" d="M532 -104h-464v55h464v-55z" unicode="‾"/>
<glyph glyph-name="fraction" d="M435 720h58l-330 -720h-56z" unicode="⁄"/>
<glyph glyph-name="Euro" d="M531 564h-75q-1 46 -30.5 76.5t-74.5 30.5q-135 0 -157 -209h202v-57h-206q-1 -17 -1 -51q0 -21 1 -30h185v-57h-182q18 -218 151 -218q55 0 87.5 36t33.5 91h75q-6 -89 -58 -139.5t-141 -50.5q-58 0 -101.5 24.5t-67.5 67.5t-36.5 88.5t-17.5 100.5h-56v57h52v32 q0 36 1 49h-53v57h58q6 54 19.5 98.5t39 85.5t69.5 64.5t102 23.5q75 0 126 -47.5t55 -122.5z" unicode="€"/>
<glyph glyph-name="trademark" d="M241 742v-54h-85v-224h-66v224h-85v54h236zM594 742v-278h-60v224h-2l-79 -224h-36l-81 224h-1v-224h-60v278h97l63 -164l62 164h97z" unicode="™"/>
<glyph glyph-name="uni2190" d="M136 382h460v-44h-460q13 -20 31 -63t18 -60q0 -16 -14 -16q-8 0 -21 20q-56 83 -125 123q-21 10 -21 18t21 18q69 40 125 123q13 20 21 20q14 0 14 -16q0 -17 -18 -60t-31 -63z" unicode="←"/>
<glyph glyph-name="arrowup" d="M322 524v-460h-44v460q-20 -13 -63 -31t-60 -18q-16 0 -16 14q0 8 20 21q83 56 123 125q10 21 18 21t18 -21q40 -69 123 -125q20 -13 20 -21q0 -14 -16 -14q-17 0 -60 18t-63 31z" unicode="↑"/>
<glyph glyph-name="uni2192" d="M4 382h460q-13 20 -31 63t-18 60q0 16 14 16q8 0 21 -20q56 -83 125 -123q21 -10 21 -18t-21 -18q-69 -40 -125 -123q-13 -20 -21 -20q-14 0 -14 16q0 17 18 60t31 63h-460v44z" unicode="→"/>
<glyph glyph-name="arrowdown" d="M322 656v-460q20 13 63 31t60 18q16 0 16 -14q0 -8 -20 -21q-83 -56 -123 -125q-10 -21 -18 -21t-18 21q-40 69 -123 125q-20 13 -20 21q0 14 16 14q17 0 60 -18t63 -31v460h44z" unicode="↓"/>
<glyph glyph-name="partialdiff" d="M270 45q77 0 128.5 77.5t65.5 190.5q-15 44 -60.5 83t-105.5 39q-70 0 -120.5 -60t-50.5 -145q0 -81 39.5 -133t103.5 -52zM124 700l-27 47q72 58 176 58q110 0 188.5 -102t78.5 -288q0 -119 -30 -213.5t-93.5 -153t-151.5 -58.5q-98 0 -151.5 71t-53.5 167 q0 116 67 188.5t160 72.5q68 0 116.5 -35.5t68.5 -71.5q2 13 2 49q0 142 -60.5 230.5t-145.5 88.5q-84 0 -144 -50z" unicode="∂"/>
<glyph glyph-name="product" d="M605 662h-101v-760h-65v760h-278v-760h-66v760h-100v60h610v-60z" unicode="∏"/>
<glyph glyph-name="summation" d="M191 657l200 -277l-207 -317h302v-63h-371v72l198 309l-198 269v70h367v-63h-291z" unicode="∑"/>
<glyph glyph-name="minus" d="M575 393v-66h-550v66h550z" unicode="−"/>
<glyph glyph-name="radical" d="M2 443h157l68 -249l178 601h193v-66h-143l-230 -776l-116 424h-107v66z" unicode="√"/>
<glyph glyph-name="infinity" d="M517 360q0 36 -15 63.5t-48 27.5q-61 0 -115 -91q54 -91 115 -91q33 0 48 27.5t15 63.5zM83 360q0 -36 15 -63.5t48 -27.5q61 0 115 91q-54 91 -115 91q-33 0 -48 -27.5t-15 -63.5zM300 302q-68 -99 -153 -99q-64 0 -99 45.5t-35 111.5q0 63 36.5 110t97.5 47 q46 0 81.5 -26t71.5 -71q71 97 154 97q61 0 97 -45t36 -108q0 -65 -33.5 -113t-96.5 -48q-12 0 -22.5 1.5t-21 5.5t-18.5 7.5t-18.5 11t-16 12t-16 15l-14.5 14.5t-15.5 16t-14.5 16z" unicode="∞"/>
<glyph glyph-name="intersection" d="M590 0h-70v432q0 100 -67 168t-153 68t-153 -68t-67 -168v-432h-70v433q0 127 83.5 214t206.5 87t206.5 -87t83.5 -214v-433z" unicode="∩"/>
<glyph glyph-name="approxequal" d="M194 372q43 0 127 -37t107 -37q36 0 66.5 22.5t45.5 55.5l52 -38q-24 -48 -66.5 -77t-96.5 -29q-25 0 -72.5 17t-71.5 28q-69 29 -91 29q-17 0 -31 -5.5t-27 -20.5t-19.5 -23t-20 -30.5t-15.5 -26.5l-52 39q18 31 31 49.5t33.5 40.5t45.5 32.5t55 10.5zM173 496 q43 0 127 -37t107 -37q35 0 65 30t47 68l52 -38q-27 -52 -69.5 -89t-93.5 -37q-11 0 -25.5 3t-32.5 9t-29.5 10.5t-31.5 12.5l-25 10q-69 29 -91 29q-28 0 -50.5 -14.5t-33.5 -28.5t-29 -43l-52 39q32 55 69.5 84t95.5 29z" unicode="≈"/>
<glyph glyph-name="notequal" d="M279 256l-68 -131l-54 25l55 106h-170v64h204l39 79h-243v65h276l65 129l54 -28l-53 -101h174v-65h-207l-40 -79h247v-64h-279z" unicode="≠"/>
<glyph glyph-name="equivalence" d="M575 275v-66h-550v66h550zM575 393v-66h-550v66h550zM575 511v-66h-550v66h550z" unicode="≡"/>
<glyph glyph-name="lessequal" d="M88 0v66h424v-66h-424zM476 720l43 -54l-325 -239l325 -239l-43 -54l-396 293z" unicode="≤"/>
<glyph glyph-name="greaterequal" d="M88 0v66h424v-66h-424zM80 666l43 54l396 -293l-396 -293l-43 54l325 239z" unicode="≥"/>
<glyph glyph-name="dotmath" d="M250 360q0 15 10.5 25.5t25.5 10.5t25.5 -10.5t10.5 -25.5t-10.5 -25.5t-25.5 -10.5t-25.5 10.5t-10.5 25.5z" unicode="⋅"/>
<glyph glyph-name="lozenge" d="M482 359l-161 303q-6 12 -21 51h-2q-9 -27 -21 -51l-159 -299l162 -304q11 -21 19 -51h3q10 31 19 50zM544 361l-218 -408h-54l-216 408l218 409h54z" unicode="◊"/>
<glyph glyph-name="spade" d="M542 0h-484l4 22q229 7 229 247h-2q-22 -50 -62 -80t-93 -30t-92 37.5t-39 90.5q0 37 22 75t39.5 55.5t60.5 54.5q7 7 11 10q69 59 108 109.5t55 120.5h2q16 -70 55 -120.5t108 -109.5q71 -61 93 -89q40 -52 40 -106q0 -53 -39 -90.5t-92 -37.5t-93 30t-62 80h-2 q0 -240 229 -247z" unicode="♠"/>
<glyph glyph-name="club" d="M503 0h-406l6 21q46 11 77 26t59 44.5t42 80t14 124.5h-2q-18 -54 -60 -96t-93 -42q-62 0 -99.5 49t-37.5 113q0 55 30.5 107.5t78.5 52.5q38 0 86 -30q-32 62 -32 106q0 59 36.5 107.5t97.5 48.5t97.5 -48.5t36.5 -107.5q0 -44 -32 -106q48 30 86 30q48 0 78.5 -52.5 t30.5 -107.5q0 -64 -37.5 -113t-99.5 -49q-51 0 -93 42t-60 96h-2q0 -74 14 -124.5t42 -80t59 -44.5t77 -26z" unicode="♣"/>
<glyph glyph-name="heart" d="M301 -12h-2q-14 56 -45.5 118t-59 101t-75.5 103q-35 47 -55.5 79t-40.5 81.5t-20 92.5q0 63 40.5 106t103.5 43q56 0 98 -43.5t54 -101.5h2q12 58 54 101.5t98 43.5q63 0 103.5 -43t40.5 -106q0 -43 -20 -92.5t-40.5 -81.5t-55.5 -79q-48 -64 -75.5 -103t-59 -101 t-45.5 -118z" unicode="♥"/>
<glyph glyph-name="diamond" d="M300 712q108 -166 297 -362q-189 -196 -297 -362q-108 166 -297 362q189 196 297 362z" unicode="♦"/>
</font>
</defs>
</svg>
