<?xml version="1.0" encoding="UTF-8" standalone="no"?>
<!DOCTYPE svg  PUBLIC '-//W3C//DTD SVG 1.1//EN'  'http://www.w3.org/Graphics/SVG/1.1/DTD/svg11.dtd'>
<svg xmlns="http://www.w3.org/2000/svg">
<defs>
<font id="LetterGothicStd-Regular" horiz-adv-x="600">
<font-face underline-position="-50" font-weight="400" descent="-200" panose-1="2 11 4 9 2 2 2 3 3 4" units-per-em="1000" unicode-range="U+0020-2666" bbox="-1 -288 601 928" x-height="529" underline-thickness="50" font-family="LetterGothicStd" ascent="800" cap-height="720"/>
<missing-glyph d="M33 0v666h265v-666h-265zM66 33h199v600h-199v-600z"/>
<glyph glyph-name=".notdef" d="M33 0v666h265v-666h-265zM66 33h199v600h-199v-600z"/>
<glyph glyph-name=".null" horiz-adv-x="0"/>
<glyph glyph-name="nonmarkingreturn"/>
<glyph glyph-name="space" unicode=" "/>
<glyph glyph-name="exclam" d="M230 53q0 28 19.5 48t47.5 20t48 -20t20 -48t-20 -47.5t-48 -19.5t-47.5 19.5t-19.5 47.5zM335 720l-13 -493h-40l-17 493h70z" unicode="!"/>
<glyph glyph-name="quotedbl" d="M333 720h94v-111l-27 -135h-40l-27 135v111zM174 720h94v-111l-27 -135h-40l-27 135v111z" unicode='&quot;'/>
<glyph glyph-name="numbersign" d="M329 -96h-45l165 901h44l-58 -321h135l-9 -44h-134l-28 -157h134l-8 -44h-134zM267 805h44l-162 -901h-45l61 335h-134l8 44h134l28 157h-134l8 44h134z" unicode="#"/>
<glyph glyph-name="dollar" d="M320 354v-250q44 2 73.5 35.5t29.5 78.5q0 94 -103 136zM273 409v218q-39 -6 -65.5 -35.5t-26.5 -70.5q0 -38 27.5 -68t64.5 -44zM464 606l-28 -37q-58 55 -116 60v-231q71 -25 110.5 -66.5t39.5 -111.5q0 -68 -41 -109t-109 -47v-95h-47v95q-86 1 -157 71l29 35 q66 -61 128 -66v260q-60 19 -99.5 60t-39.5 100q0 58 41 98t98 47v73h47v-73q77 -7 144 -63z" unicode="$"/>
<glyph glyph-name="percent" d="M318 87q0 -68 54 -68q33 0 56.5 29.5t32.5 64.5t9 67q0 28 -12.5 47t-39.5 19q-49 0 -74.5 -52t-25.5 -107zM274 95q0 70 38 125.5t105 55.5q97 0 97 -104q0 -81 -43.5 -132t-100.5 -51q-96 0 -96 106zM86 553q0 70 38 125.5t105 55.5q97 0 97 -104q0 -81 -43.5 -132 t-100.5 -51q-96 0 -96 106zM463 734h42l-368 -734h-42zM130 545q0 -68 54 -68q33 0 56.5 29.5t32.5 64.5t9 67q0 28 -12.5 47t-39.5 19q-49 0 -74.5 -52t-25.5 -107z" unicode="%"/>
<glyph glyph-name="ampersand" d="M264 694q-36 0 -53.5 -33t-17.5 -73q0 -44 12.5 -78t40.5 -81q10 15 23 35t19 29t14.5 21.5t11.5 18.5t7.5 13.5t5.5 12.5t2.5 10t2 11.5t0.5 11.5v15q0 32 -18 59.5t-50 27.5zM272 392l141 -230q17 57 17 193h50q-5 -157 -37 -235l86 -102l-34 -32l-77 91 q-65 -91 -169 -91q-72 0 -117.5 42t-45.5 113q0 35 8 66t29.5 66t33 50.5t45.5 57.5q7 9 11 14q-23 38 -34.5 59t-23.5 56.5t-12 66.5q0 65 32 111t95 46q48 0 80 -39t32 -92q0 -13 -2 -25.5t-4 -22.5t-8 -23.5t-8.5 -20.5t-12 -21.5t-12.5 -19t-15.5 -20.5t-14.5 -18.5 t-17 -20t-16 -19.5zM394 112l-156 238q-36 -46 -50.5 -66t-33 -61t-18.5 -79q0 -53 29.5 -85.5t82.5 -32.5q97 0 146 86z" unicode="&amp;"/>
<glyph glyph-name="quotesingle" d="M253 720h94v-111l-27 -135h-40l-27 135v111z" unicode="&apos;"/>
<glyph glyph-name="parenleft" d="M395 -40l-22 -29q-92 63 -138.5 173.5t-46.5 231.5q0 122 46.5 232.5t138.5 173.5l22 -30q-160 -121 -160 -376t160 -376z" unicode="("/>
<glyph glyph-name="parenright" d="M205 712l22 30q92 -63 138.5 -173.5t46.5 -232.5q0 -121 -46.5 -231.5t-138.5 -173.5l-22 29q160 121 160 376q0 116 -38.5 215t-121.5 161z" unicode=")"/>
<glyph glyph-name="asterisk" d="M278 720h43v-197l189 56l13 -42l-195 -56l124 -157l-33 -26l-119 151l-116 -151l-34 26l121 157l-194 56l12 42l189 -56v197z" unicode="*"/>
<glyph glyph-name="plus" d="M566 382v-44h-244v-244h-44v244h-244v44h244v244h44v-244h244z" unicode="+"/>
<glyph glyph-name="comma" d="M245 -111v42q61 18 78 59q-9 -3 -19 -3q-28 0 -44.5 17t-16.5 45t19.5 46.5t46.5 18.5q31 0 50.5 -24.5t19.5 -57.5q0 -50 -40.5 -89t-93.5 -54z" unicode=","/>
<glyph glyph-name="hyphen" d="M418 339h-236v40h236v-40z" unicode="-"/>
<glyph glyph-name="period" d="M233 53q0 28 19.5 48t47.5 20t48 -20t20 -48t-20 -47.5t-48 -19.5t-47.5 19.5t-19.5 47.5z" unicode="."/>
<glyph glyph-name="slash" d="M175 -27h-46l296 774h46z" unicode="/"/>
<glyph glyph-name="zero" d="M451 360q0 142 -19 206q-15 55 -48 92t-84 37q-54 0 -87.5 -40t-48.5 -100q-15 -66 -15 -195q0 -142 19 -207q15 -54 48 -91t84 -37q54 0 87.5 40t48.5 100q15 65 15 195zM498 360q0 -159 -24 -231q-21 -65 -65.5 -104t-108.5 -39q-62 0 -106 37t-65 98q-27 77 -27 239 q0 158 24 231q21 65 65 104t109 39q62 0 106 -37t65 -98q27 -78 27 -239z" unicode="0"/>
<glyph glyph-name="one" d="M326 742v-702h133v-40h-317v40h137v642l-144 -45v44z" unicode="1"/>
<glyph glyph-name="two" d="M157 40h336v-40h-383q0 119 32.5 184.5t143.5 162.5q3 3 19.5 17t21.5 19t20.5 19t21.5 21t19 21t18.5 23t14 23t12.5 25.5t7 25.5t3 28q0 57 -33.5 91t-90.5 34q-65 0 -102.5 -43.5t-42.5 -110.5h-47q7 87 57 140.5t136 53.5q78 0 124 -45t46 -123q0 -46 -25.5 -91.5 t-47.5 -68t-72 -66.5q-9 -8 -13 -12q-109 -97 -141 -152.5t-34 -135.5z" unicode="2"/>
<glyph glyph-name="three" d="M261 369v40q67 0 114 43t47 109q0 55 -40.5 94t-97.5 39q-48 0 -87 -27.5t-63 -71.5l-40 22q30 55 81 86t113 31q76 0 128.5 -53t52.5 -127q0 -54 -31.5 -96t-83.5 -65q69 -22 108.5 -73t39.5 -121q0 -92 -60 -151t-153 -59q-69 0 -117 31t-88 93l42 25q52 -109 161 -109 q75 0 121.5 43t46.5 118q0 89 -54.5 134t-139.5 45z" unicode="3"/>
<glyph glyph-name="four" d="M363 233v468h-2l-240 -468h242zM410 734v-501h102v-40h-102v-193h-47v193h-293v35l266 506h74z" unicode="4"/>
<glyph glyph-name="five" d="M449 720v-40h-260l-24 -312q55 75 140 75q79 0 134 -59.5t55 -164.5q0 -95 -54 -162.5t-147 -67.5q-104 0 -178 108l35 27q24 -42 63.5 -68.5t85.5 -26.5q65 0 106.5 54.5t41.5 131.5q0 51 -14 89.5t-36.5 59t-45.5 30t-45 9.5q-80 0 -131 -82l-56 11l29 388h301z" unicode="5"/>
<glyph glyph-name="six" d="M488 697l-23 -40q-51 37 -98 37q-52 0 -95 -34.5t-68 -87t-38.5 -109t-13.5 -106.5v-18q65 111 171 111q84 0 130.5 -66t46.5 -154q0 -101 -52.5 -171t-150.5 -70q-38 0 -70.5 15.5t-61 50t-44.5 98t-16 151.5q0 207 78 318.5t186 111.5q62 0 119 -37zM453 230 q0 74 -34.5 127t-104.5 53q-56 0 -106 -54t-50 -145q0 -71 36 -126.5t104 -55.5q78 0 116.5 59.5t38.5 141.5z" unicode="6"/>
<glyph glyph-name="seven" d="M103 720h378l-277 -720h-52l269 680h-318v40z" unicode="7"/>
<glyph glyph-name="eight" d="M206 376q-47 20 -75 67.5t-28 101.5q0 86 55 137.5t142 51.5q88 0 141 -51t53 -138q0 -54 -26.5 -101.5t-73.5 -67.5q126 -44 126 -186q0 -94 -57 -147.5t-163 -53.5q-108 0 -164 54t-56 147q0 141 126 186zM447 545q0 69 -40 109t-108 40q-71 0 -110 -41.5t-39 -114.5 q0 -65 41.5 -104t107.5 -39q68 0 108 40.5t40 109.5zM127 190q0 -76 47.5 -118.5t125.5 -42.5t125.5 42.5t47.5 118.5t-48 120.5t-125 44.5t-125 -44.5t-48 -120.5z" unicode="8"/>
<glyph glyph-name="nine" d="M146 490q0 -74 35 -127t105 -53q63 0 114 64q42 56 42 135q0 72 -36.5 128.5t-104.5 56.5q-78 0 -116.5 -60.5t-38.5 -143.5zM111 23l23 40q48 -34 99 -34q68 0 119.5 58.5t73.5 132.5t22 143v18q-67 -111 -171 -111q-84 0 -131 66t-47 153q0 101 53 173t151 72 q105 0 157 -111q35 -76 35 -207q0 -155 -49 -265q-32 -71 -87.5 -116.5t-127.5 -45.5q-66 0 -120 34z" unicode="9"/>
<glyph glyph-name="colon" d="M232 404q0 28 19.5 48t47.5 20t48 -20t20 -48t-20 -47.5t-48 -19.5t-47.5 19.5t-19.5 47.5zM232 53q0 28 19.5 48t47.5 20t48 -20t20 -48t-20 -47.5t-48 -19.5t-47.5 19.5t-19.5 47.5z" unicode=":"/>
<glyph glyph-name="semicolon" d="M243 404q0 28 19.5 48t47.5 20t48 -20t20 -48t-20 -47.5t-48 -19.5t-47.5 19.5t-19.5 47.5zM245 -111v42q61 18 78 59q-9 -3 -19 -3q-28 0 -44.5 17t-16.5 45t19.5 46.5t46.5 18.5q31 0 50.5 -24.5t19.5 -57.5q0 -50 -40.5 -89t-93.5 -54z" unicode=";"/>
<glyph glyph-name="less" d="M98 360l379 360l25 -32l-340 -328l340 -328l-25 -32z" unicode="&lt;"/>
<glyph glyph-name="equal" d="M566 315v-44h-532v44h532zM566 449v-44h-532v44h532z" unicode="="/>
<glyph glyph-name="greater" d="M123 720l379 -360l-379 -360l-25 32l340 328l-340 328z" unicode="&gt;"/>
<glyph glyph-name="question" d="M235 53q0 28 19.5 48t47.5 20t48 -20t20 -48t-20 -47.5t-48 -19.5t-47.5 19.5t-19.5 47.5zM318 224h-47v98q0 36 8 53q11 26 76 76q32 26 46.5 51t14.5 63q0 58 -33 93.5t-90 35.5q-52 0 -83.5 -31t-33.5 -82h-50q6 72 51 112.5t117 40.5q79 0 124 -46.5t45 -125.5 q0 -54 -19.5 -84.5t-67.5 -68.5q-42 -33 -50 -50t-8 -67v-7v-61z" unicode="?"/>
<glyph glyph-name="at" d="M363 403l10 67q-62 -4 -96 -31q-26 -20 -45.5 -70t-19.5 -86q0 -22 11 -39.5t31 -17.5q34 0 64 39.5t45 137.5zM515 110l17 -45q-124 -79 -254 -79q-50 0 -96.5 18t-87 54t-65 98t-24.5 142q0 112 38 211t111.5 162t166.5 63q113 0 194 -83t81 -219q0 -37 -8.5 -77 t-25.5 -78.5t-48.5 -63t-71.5 -24.5q-31 0 -55.5 15.5t-32.5 43.5q-43 -62 -105 -62q-38 0 -61 25.5t-23 65.5q0 44 16 93.5t42 81.5q47 58 170 58h32l-26 -156q-6 -34 -6 -57q0 -68 50 -68q29 0 50.5 21t33 53t17 63t5.5 58q0 69 -22 123.5t-56.5 85t-71.5 46t-73 15.5 q-69 0 -123.5 -38t-86 -98t-48 -126.5t-16.5 -131.5q0 -73 21 -128.5t56 -86t73.5 -45t80.5 -14.5q102 0 232 84z" unicode="@"/>
<glyph glyph-name="A" d="M301 621l-112 -362h225zM301 749l241 -749h-53l-65 219h-245l-66 -219h-52z" unicode="A"/>
<glyph glyph-name="B" d="M166 395h73q90 0 138.5 41t48.5 111q0 63 -34.5 98t-118.5 35h-107v-285zM325 0h-206v720h176q80 0 129 -47.5t49 -128.5q0 -112 -115 -163q70 -20 108.5 -69.5t38.5 -121.5q0 -80 -48.5 -135t-131.5 -55zM166 40h151q52 0 96.5 38t44.5 110q0 69 -45.5 118t-122.5 49 h-124v-315z" unicode="B"/>
<glyph glyph-name="C" d="M492 584h-47q-2 47 -36.5 78.5t-82.5 31.5q-180 0 -180 -339q0 -329 174 -329q56 0 94.5 37t40.5 93h47q-8 -80 -57 -125t-129 -45q-67 0 -113.5 35t-68 94t-30 115t-8.5 120q0 384 230 384q66 0 113 -42t53 -108z" unicode="C"/>
<glyph glyph-name="D" d="M170 680v-640h89q33 0 57 3t48.5 12.5t43 28.5t31.5 48q30 69 30 228q0 169 -33 235q-26 52 -68 68.5t-109 16.5h-89zM123 0v720h180q60 0 104 -28.5t68 -73.5q44 -81 44 -258q0 -195 -58 -280q-56 -80 -172 -80h-166z" unicode="D"/>
<glyph glyph-name="E" d="M503 720v-40h-305v-290h219v-40h-219v-310h312v-40h-359v720h352z" unicode="E"/>
<glyph glyph-name="F" d="M529 720v-40h-322v-284h242v-40h-242v-356h-47v720h369z" unicode="F"/>
<glyph glyph-name="G" d="M475 307h-173v40h220v-361h-47v114h-2q-16 -52 -63 -83t-104 -31q-45 0 -80.5 16.5t-65 55t-45 109t-15.5 170.5q0 116 16 196t46.5 122.5t67.5 60.5t86 18q80 0 123.5 -48.5t50.5 -130.5h-50v7q0 54 -32.5 93t-86.5 39q-40 0 -70.5 -16t-48.5 -46.5t-29 -61.5t-16 -75.5 t-6 -72.5t-1 -68q0 -37 1 -63.5t5.5 -69.5t15 -73.5t27.5 -60.5t45.5 -45.5t65.5 -15.5q67 0 116 52.5t49 170.5v58z" unicode="G"/>
<glyph glyph-name="H" d="M157 720v-326h285v326h47v-720h-47v354h-285v-354h-47v720h47z" unicode="H"/>
<glyph glyph-name="I" d="M423 720v-40h-100v-640h100v-40h-247v40h100v640h-100v40h247z" unicode="I"/>
<glyph glyph-name="J" d="M276 720h183v-492q0 -129 -47 -185.5t-147 -56.5q-90 0 -135 54t-45 177v77h47v-103q0 -85 31 -125t98 -40h3q74 1 111 44.5t37 120.5v489h-136v40z" unicode="J"/>
<glyph glyph-name="K" d="M187 720v-330q75 1 171 140q64 94 102 193l49 -26q-28 -49 -86 -145q-81 -134 -170 -186l308 -366h-65l-285 350h-24v-350h-47v720h47z" unicode="K"/>
<glyph glyph-name="L" d="M216 720v-680h316v-40h-363v720h47z" unicode="L"/>
<glyph glyph-name="M" d="M300 324l164 396h52v-720h-47v625h-2l-167 -400l-167 400l-2 -2v-623h-47v720h52z" unicode="M"/>
<glyph glyph-name="N" d="M438 -7l-264 662l-2 -2v-653h-47v720h68l245 -617l2 2v615h47v-727h-49z" unicode="N"/>
<glyph glyph-name="O" d="M138 360q0 -97 12.5 -165t36 -103.5t51.5 -50.5t64 -15q78 0 119.5 75t41.5 259q0 97 -12 164.5t-34.5 103.5t-50 51t-64.5 15q-82 0 -123 -77.5t-41 -256.5zM302 -14q-37 0 -66.5 9t-58 34t-47.5 66t-30.5 108t-11.5 157q0 58 3.5 103t16.5 98.5t35 89t62.5 59.5 t96.5 24q44 0 78.5 -15.5t56 -36.5t37 -57.5t23 -65t11.5 -73t4.5 -66.5t0.5 -60q0 -111 -16 -187t-47 -115.5t-66 -55.5t-82 -16z" unicode="O"/>
<glyph glyph-name="P" d="M310 680h-118v-347h84q91 0 135 45.5t44 125.5q0 94 -41.5 135t-103.5 41zM145 0v720h162q104 0 151 -61.5t47 -153.5q0 -104 -59 -158t-163 -54h-91v-293h-47z" unicode="P"/>
<glyph glyph-name="Q" d="M135 360q0 -32 0.5 -52t3.5 -59t9 -65t18 -58.5t29 -52t43.5 -33.5t60.5 -14q164 0 164 317v17q0 97 -12.5 164.5t-36 103.5t-51 51t-64.5 15q-34 0 -60.5 -13.5t-43.5 -32t-29 -51t-18 -57.5t-9 -64.5t-3.5 -60t-0.5 -55.5zM434 43l81 -105h-59l-55 78q-45 -30 -102 -30 q-102 0 -158 87t-56 287q0 198 55.5 286t158.5 88q100 0 157 -85t57 -289q0 -65 -3.5 -112t-22.5 -108t-53 -97z" unicode="Q"/>
<glyph glyph-name="R" d="M191 680v-329h117q56 0 102 44.5t46 130.5q0 68 -34.5 111t-106.5 43h-124zM144 0v720h171q89 0 140 -54.5t51 -143.5q0 -70 -37 -124.5t-102 -75.5l194 -322h-59l-179 311h-132v-311h-47z" unicode="R"/>
<glyph glyph-name="S" d="M487 653l-28 -35q-88 76 -158 76q-56 0 -94.5 -35t-38.5 -91q0 -43 24 -75t89 -72l59 -36q94 -57 130 -96.5t36 -102.5q0 -92 -55.5 -146t-148.5 -54q-121 0 -203 106l36 29q66 -95 167 -95q64 0 109 42t45 106q0 55 -23 86t-118 87l-67 40q-62 37 -96 77t-34 99 q0 79 53 125t133 46q95 0 183 -81z" unicode="S"/>
<glyph glyph-name="T" d="M531 720v-40h-208v-680h-47v680h-207v40h462z" unicode="T"/>
<glyph glyph-name="U" d="M441 720h47v-535q0 -97 -58.5 -148t-129.5 -51q-76 0 -133 55t-57 133v546h47v-511q0 -96 39.5 -139.5t103.5 -43.5q65 0 103 41.5t38 125.5v527z" unicode="U"/>
<glyph glyph-name="V" d="M301 33l140 687h54l-157 -727h-76l-163 727h55l145 -687h2z" unicode="V"/>
<glyph glyph-name="W" d="M296 477l125 -400h2l42 643h55l-56 -727h-63l-105 362l-104 -362h-63l-56 727h55l42 -643h2z" unicode="W"/>
<glyph glyph-name="X" d="M109 720h56l135 -311l135 311h56l-167 -357l172 -363h-56l-141 319l-139 -319h-56l174 364z" unicode="X"/>
<glyph glyph-name="Y" d="M281 360l152 360h53l-181 -415v-305h-47v305l-181 415h53z" unicode="Y"/>
<glyph glyph-name="Z" d="M124 720h355v-40l-310 -640h334v-40h-390v40l313 640h-302v40z" unicode="Z"/>
<glyph glyph-name="bracketleft" d="M180 742h268v-40h-221v-750h221v-40h-268v830z" unicode="["/>
<glyph glyph-name="backslash" d="M425 -27l-296 774h46l296 -774h-46z" unicode="\"/>
<glyph glyph-name="bracketright" d="M422 742v-830h-268v40h221v750h-221v40h268z" unicode="]"/>
<glyph glyph-name="asciicircum" d="M162 357h-51l164 323h52l162 -323h-50l-137 275z" unicode="^"/>
<glyph glyph-name="underscore" d="M600 -125h-600v50h600v-50z" unicode="_"/>
<glyph glyph-name="grave" d="M217 734l159 -130l-22 -30l-174 118z" unicode="`"/>
<glyph glyph-name="a" d="M396 136v137q-62 32 -115 32q-62 0 -92.5 -44t-30.5 -108q0 -49 26.5 -86.5t73.5 -37.5q45 0 77 28.5t61 78.5zM466 -5l-43 -6q-15 45 -20 90q-31 -45 -64 -67.5t-81 -22.5q-69 0 -108 48.5t-39 119.5q0 79 42.5 133.5t116.5 54.5q57 0 129 -35v21q0 91 -24 130t-84 39 q-50 0 -127 -35l-11 43q82 32 141 32q72 0 112 -46.5t40 -130.5v-9l-6 -216v-6q0 -53 26 -137z" unicode="a"/>
<glyph glyph-name="b" d="M173 448v-313q48 -106 132 -106q25 0 50.5 11.5t51 36.5t41.5 74t16 114q0 68 -18 117.5t-46.5 73.5t-55.5 34t-53 10q-59 0 -118 -52zM126 742h47v-247q56 45 130 45q31 0 64 -13.5t67 -42.5t55.5 -85t21.5 -131q0 -73 -19.5 -129.5t-50.5 -87.5t-65.5 -46.5 t-69.5 -15.5q-97 0 -141 87l-19 -87l-44 6q24 78 24 191v556z" unicode="b"/>
<glyph glyph-name="c" d="M474 112l32 -34q-82 -89 -175 -89q-38 0 -74 13t-70.5 42t-55.5 84.5t-21 130.5q0 77 19.5 134t52.5 87.5t69 45t76 14.5q111 0 182 -107l-42 -28q-48 95 -140 95q-22 0 -43 -5.5t-45 -21.5t-41.5 -41t-29 -67.5t-11.5 -97.5q0 -124 52 -181t121 -57q75 0 144 83z" unicode="c"/>
<glyph glyph-name="d" d="M425 135v313q-59 52 -118 52q-26 0 -53 -10t-55.5 -34t-46.5 -73.5t-18 -117.5q0 -65 16 -113.5t41.5 -73.5t51 -37t50.5 -12q91 0 132 106zM472 742v-556q0 -113 24 -191l-44 -6l-19 87q-44 -87 -141 -87q-36 0 -70 15t-65.5 46.5t-50.5 87.5t-19 130q0 75 21.5 131 t55.5 85t67 42.5t64 13.5q74 0 130 -45v247h47z" unicode="d"/>
<glyph glyph-name="e" d="M144 297h315v12q0 73 -41.5 132t-111.5 59q-72 0 -117 -61t-45 -136v-6zM478 81l20 -44q-108 -48 -189 -48q-73 0 -123 41.5t-69.5 100.5t-19.5 131t20 132t70.5 103t124.5 43q36 0 68.5 -14t61.5 -44.5t46.5 -88.5t17.5 -136h-362q11 -228 167 -228q80 0 167 52z" unicode="e"/>
<glyph glyph-name="f" d="M526 701v-50q-12 5 -33.5 15.5t-32.5 15t-27 8.5t-32 4q-52 0 -81.5 -28t-29.5 -80v-93h175v-40h-175v-453h-47v453h-136v40h136v60q0 94 44.5 137.5t108.5 43.5q52 0 130 -33z" unicode="f"/>
<glyph glyph-name="g" d="M430 168v255q-24 34 -60.5 55.5t-77.5 21.5q-51 0 -85.5 -34.5t-47 -79t-12.5 -94.5q0 -59 15.5 -102t39 -64t45 -30t40.5 -9q41 0 81.5 23t61.5 58zM134 -98l33 29q50 -60 130 -60q53 0 94 42.5t41 133.5v65q-27 -29 -68.5 -47t-80.5 -18q-60 0 -103 37t-61.5 89 t-18.5 110q0 105 47.5 181t146.5 76q41 0 72.5 -15t71.5 -46l14 61h48q-23 -88 -23 -258v-21v-220q0 -56 -18 -98.5t-46.5 -65.5t-60 -34.5t-64.5 -11.5q-40 0 -82.5 20.5t-71.5 50.5z" unicode="g"/>
<glyph glyph-name="h" d="M130 0v742h47v-328h2q26 54 72.5 90t103.5 36q46 0 86 -38.5t40 -116.5v-385h-47v332q0 168 -87 168q-67 0 -118.5 -71t-51.5 -163v-266h-47z" unicode="h"/>
<glyph glyph-name="i" d="M311 734q22 0 37.5 -15t15.5 -37t-15.5 -37t-37.5 -15t-37 15t-15 37t15 37t37 15zM289 0v489h-154v40h201v-529h-47z" unicode="i"/>
<glyph glyph-name="j" d="M371 734q22 0 37.5 -15t15.5 -37t-15.5 -37t-37.5 -15t-37 15t-15 37t15 37t37 15zM86 28h47q0 -74 23.5 -115.5t84.5 -41.5q51 0 82 33t31 82v503h-159v40h206v-528q0 -72 -45.5 -121t-113.5 -49q-81 0 -118.5 56t-37.5 141z" unicode="j"/>
<glyph glyph-name="k" d="M427 529h61q-23 -28 -54 -65.5t-45 -54t-34 -40t-38 -42t-40 -39.5l256 -288h-63l-221 261l-50 -49v-212h-47v742h47v-474q144 137 228 261z" unicode="k"/>
<glyph glyph-name="l" d="M282 0v702h-156v40h203v-742h-47z" unicode="l"/>
<glyph glyph-name="m" d="M77 0v369q0 93 -19 171h48l13 -69q49 69 124 69q57 0 82 -64q51 64 109 64q50 0 77 -30t27 -81v-429h-47v427q0 74 -63 74q-58 0 -97 -68v-433h-47v406q0 26 -2.5 43.5t-15.5 34t-38 16.5q-32 0 -61 -22.5t-43 -54.5v-423h-47z" unicode="m"/>
<glyph glyph-name="n" d="M168 218v-218h-47v265q0 165 -21 270h44l19 -152h2q15 61 71 109t117 48q66 0 94.5 -46.5t28.5 -116.5v-377h-47v355q0 25 -0.5 39t-5 37.5t-12.5 36t-24 22.5t-40 10q-30 0 -60 -15.5t-57.5 -47.5t-44.5 -89t-17 -130z" unicode="n"/>
<glyph glyph-name="o" d="M300 29q46 0 78.5 21.5t48.5 58.5t22.5 74.5t6.5 81.5t-6.5 81t-22.5 74t-48.5 58.5t-78.5 21.5t-78.5 -21.5t-48 -58.5t-22 -74t-6.5 -81t6.5 -81.5t22 -74.5t48 -58.5t78.5 -21.5zM300 -11q-36 0 -69.5 13.5t-64.5 43t-49.5 86t-18.5 133.5q0 142 59.5 208.5 t142.5 66.5q36 0 69.5 -13.5t64.5 -42.5t50 -85.5t19 -133.5t-18.5 -133.5t-50 -86t-65 -43t-69.5 -13.5z" unicode="o"/>
<glyph glyph-name="p" d="M173 394v-313q59 -52 118 -52q26 0 53 10.5t55.5 34t46.5 73t18 117.5q0 65 -16 114t-41.5 74t-51 36.5t-50.5 11.5q-84 0 -132 -106zM126 -212v556q0 112 -24 190l44 6l18 -87h2q43 87 140 87q35 0 69.5 -15t65.5 -46t50.5 -87.5t19.5 -130.5q0 -75 -22 -131.5t-56 -85 t-67 -42t-63 -13.5q-74 0 -130 45v-246h-47z" unicode="p"/>
<glyph glyph-name="q" d="M426 81v313q-24 50 -54.5 78t-78.5 28q-25 0 -50.5 -12t-51 -37t-41.5 -73.5t-16 -113.5q0 -68 18 -117.5t46.5 -73t55.5 -34t53 -10.5q58 0 119 52zM473 -212h-47v246q-57 -45 -131 -45q-30 0 -63 13.5t-67 42t-56 85t-22 131.5q0 74 19 130.5t50.5 87.5t65.5 46t70 15 q97 0 140 -87h2l18 87l44 -6q-23 -75 -23 -190v-556z" unicode="q"/>
<glyph glyph-name="r" d="M216 215v-215h-47v366l-19 169h45l18 -150q74 155 181 155q60 0 85.5 -47.5t25.5 -112.5h-47q-1 25 -2.5 40.5t-7.5 36.5t-20.5 32t-37.5 11q-22 0 -50 -17t-56.5 -49.5t-48 -90t-19.5 -128.5z" unicode="r"/>
<glyph glyph-name="s" d="M449 484l-20 -39q-77 55 -142 55q-41 0 -73 -27.5t-32 -68.5q0 -29 21.5 -52.5t42.5 -34t53 -22.5q33 -13 49.5 -20t43 -22t39.5 -30t23.5 -39.5t10.5 -54.5q0 -63 -47.5 -101.5t-111.5 -38.5q-48 0 -104.5 25t-94.5 60l26 38q35 -35 83 -59t92 -24q47 0 78.5 25.5 t31.5 71.5q0 23 -7.5 41.5t-17 30t-29.5 23t-32.5 16.5l-37.5 15q-37 14 -57.5 24t-48 28.5t-40.5 44.5t-13 59q0 55 47 93.5t108 38.5q82 0 159 -56z" unicode="s"/>
<glyph glyph-name="t" d="M451 529v-40h-194v-361q0 -99 84 -99q80 0 123 94l45 -11q-27 -55 -70.5 -89t-99.5 -34q-129 0 -129 167v333h-119v40h119v170h47v-170h194z" unicode="t"/>
<glyph glyph-name="u" d="M433 315v214h47v-261q0 -165 21 -268h-44l-20 150h-2q-16 -61 -71.5 -111t-115.5 -50q-66 0 -94.5 48.5t-28.5 118.5v373h47v-351q0 -149 82 -149q68 0 123.5 74t55.5 212z" unicode="u"/>
<glyph glyph-name="v" d="M443 529h50l-167 -536h-55l-167 536h50l144 -465z" unicode="v"/>
<glyph glyph-name="w" d="M144 -7l-94 536h52l73 -457h2l93 321h51l93 -321h2l73 457h51l-94 -536h-51l-100 342l-100 -342h-51z" unicode="w"/>
<glyph glyph-name="x" d="M485 529l-160 -243l206 -286h-63l-169 252l-167 -252h-63l205 284l-165 245h55l136 -208l133 208h52z" unicode="x"/>
<glyph glyph-name="y" d="M458 529h54l-198 -503q-13 -34 -19.5 -49.5t-24 -49t-32.5 -50t-39 -31.5t-51 -15q-43 0 -75.5 29t-46.5 72l40 21q30 -82 82 -82q18 0 33 8.5t27.5 27t18.5 30t16 33.5l40 91l-172 468h52l143 -406z" unicode="y"/>
<glyph glyph-name="z" d="M147 529h339v-40l-325 -449h337v-40h-396v40l328 449h-283v40z" unicode="z"/>
<glyph glyph-name="braceleft" d="M314 197v-156q0 -58 21.5 -89.5t77.5 -37.5l-2 -2q-84 1 -114 32t-30 113v151q0 55 -14.5 79.5t-65.5 37.5v2q51 13 65.5 37.5t14.5 78.5v161q0 77 32 106.5t112 31.5l2 -2q-57 -9 -78 -38.5t-21 -89.5v-161q0 -57 -16 -84.5t-68 -39.5v-2q53 -12 68.5 -41t15.5 -87z" unicode="{"/>
<glyph glyph-name="bar" d="M278 -288v1080h44v-1080h-44z" unicode="|"/>
<glyph glyph-name="braceright" d="M287 457v156q0 58 -21.5 89.5t-77.5 37.5l2 2q84 -1 114 -32t30 -113v-151q0 -55 14.5 -79.5t65.5 -37.5v-2q-51 -13 -65.5 -37.5t-14.5 -78.5v-161q0 -77 -32 -106.5t-112 -31.5l-2 2q57 9 78 38.5t21 89.5v161q0 57 16 84.5t68 39.5v2q-53 12 -68.5 41t-15.5 87z" unicode="}"/>
<glyph glyph-name="asciitilde" d="M538 441l32 -23q-25 -47 -64.5 -80.5t-85.5 -33.5q-30 0 -122.5 37.5t-117.5 37.5q-27 0 -50.5 -16t-34.5 -30.5t-29 -45.5q-3 -5 -5 -8l-31 23q68 121 145 121q44 0 131.5 -37.5t112.5 -37.5q36 0 68.5 28t50.5 65z" unicode="~"/>
<glyph glyph-name="uni00A0" unicode=" "/>
<glyph glyph-name="exclamdown" d="M230 666q0 28 19.5 48t47.5 20t48 -20t20 -48t-20 -47.5t-48 -19.5t-47.5 19.5t-19.5 47.5zM265 0l13 493h40l17 -493h-70z" unicode="¡"/>
<glyph glyph-name="cent" d="M300 139v467q-143 -28 -143 -231q0 -204 143 -236zM511 541l-45 -30q-40 85 -119 96v-469q61 8 127 82l32 -34q-75 -77 -159 -88v-138h-47v138q-97 15 -143.5 89t-46.5 180q0 249 190 280v95h47v-95q94 -7 164 -106z" unicode="¢"/>
<glyph glyph-name="sterling" d="M246 376h188v-40h-176q16 -57 16 -102q0 -48 -20 -92t-56 -97l2 -2q58 27 96 27q46 0 80 -15q49 -20 61 -20q29 0 75 39l26 -31q-44 -48 -96 -48q-31 0 -74 17q-46 18 -76 18q-53 0 -121 -41l-28 38q50 85 67 126.5t17 73.5q0 55 -17 109h-127v40h116q-39 131 -39 189 q0 73 51.5 121t123.5 48q59 0 108 -29t72 -81l-45 -15q-42 85 -130 85q-56 0 -94.5 -36.5t-38.5 -99.5q0 -40 39 -182z" unicode="£"/>
<glyph glyph-name="currency" d="M300 169q81 0 136 55t55 136t-55 136.5t-136 55.5t-136 -55.5t-55 -136.5t55 -136t136 -55zM120 506l-109 107l33 32l108 -107q64 52 148 52t148 -52l108 107l33 -32l-109 -107q50 -68 50 -146t-50 -146l109 -107l-33 -32l-108 107q-64 -52 -148 -52t-148 52l-108 -107 l-33 32l109 107q-50 68 -50 146t50 146z" unicode="¤"/>
<glyph glyph-name="yen" d="M120 220h138v80h-138v41h122l-165 379h56l149 -360l148 360h56l-166 -379h123v-41h-138v-80h138v-41h-138v-179h-47v179h-138v41z" unicode="¥"/>
<glyph glyph-name="brokenbar" d="M278 175h44v-350h-44v350zM278 675h44v-350h-44v350z" unicode="¦"/>
<glyph glyph-name="section" d="M315 188l-59 46q-5 4 -33.5 25t-40.5 32t-32 31.5t-28.5 40.5t-8.5 41q0 74 77 112q-37 37 -37 87q0 62 39.5 96.5t102.5 34.5q70 0 113.5 -37.5t43.5 -106.5v-12h-47v8q0 51 -27 79.5t-79 28.5q-42 0 -70.5 -21.5t-28.5 -61.5q0 -11 2.5 -21t4.5 -17t9 -16t10 -13.5 t13.5 -13t13.5 -11t16 -12t15 -11.5l60 -46q5 -3 28 -20.5t33 -25.5t29 -25.5t27.5 -31t16.5 -31.5t8 -36q0 -74 -77 -112q38 -38 38 -87q0 -62 -40 -96.5t-102 -34.5q-70 0 -113.5 37t-43.5 107v12h46v-8q0 -51 27 -79.5t80 -28.5q41 0 70 21.5t29 61.5q0 14 -4 27t-8 21 t-16 19.5t-16 15.5t-21 17t-20 15zM401 346l-185 146q-26 -9 -41 -31t-15 -50q0 -37 38 -73l186 -146q25 9 40 31t15 50q0 43 -38 73z" unicode="§"/>
<glyph glyph-name="dieresis" d="M335 652q0 23 16.5 39.5t39.5 16.5t39.5 -16.5t16.5 -39.5t-16.5 -39.5t-39.5 -16.5t-39.5 16.5t-16.5 39.5zM152 652q0 23 16.5 39.5t39.5 16.5t39.5 -16.5t16.5 -39.5t-16.5 -39.5t-39.5 -16.5t-39.5 16.5t-16.5 39.5z" unicode="¨"/>
<glyph glyph-name="copyright" d="M406 293h40q-6 -65 -44 -105.5t-91 -40.5q-72 0 -118.5 62.5t-46.5 154.5q0 94 44.5 154.5t118.5 60.5q54 0 91.5 -38t45.5 -103h-40q-6 43 -33.5 72t-62.5 29q-56 0 -90 -50.5t-34 -123.5q0 -70 35 -124t90 -54q36 0 63.5 30.5t31.5 75.5zM298 26q107 0 181.5 99 t74.5 236q0 136 -75 234.5t-181 98.5q-107 0 -182.5 -98.5t-75.5 -234.5q0 -137 75.5 -236t182.5 -99zM298 -14q-124 0 -211 109.5t-87 265.5q0 155 87 264t211 109t210 -109t86 -264q0 -156 -86 -265.5t-210 -109.5z" unicode="©"/>
<glyph glyph-name="ordfeminine" d="M413 349v-34h-237v34h237zM355 495v75q-44 16 -67 16q-35 0 -52.5 -24t-17.5 -60q0 -27 15 -47t41 -20q41 0 81 60zM395 610v-120q0 -16 1.5 -28t6 -28.5t6.5 -28.5l-36 -5l-11 45q-41 -44 -88 -44q-43 0 -69.5 29t-26.5 73q0 52 28 84.5t80 32.5q32 0 71 -12 q0 92 -59 92q-35 0 -88 -27l-8 45q73 16 97 16q43 0 69.5 -31t26.5 -93z" unicode="ª"/>
<glyph glyph-name="guillemotleft" d="M292 605l29 -30l-229 -219l229 -219l-29 -32l-259 251zM539 605l29 -30l-229 -219l229 -219l-29 -32l-259 251z" unicode="«"/>
<glyph glyph-name="logicalnot" d="M522 173v232h-488v44h532v-276h-44z" unicode="¬"/>
<glyph glyph-name="uni00AD" d="M418 339h-236v40h236v-40z" unicode="­"/>
<glyph glyph-name="registered" d="M230 529v-145h101q82 0 82 76q0 23 -7 38t-21.5 21t-27 8t-31.5 2h-96zM349 344l101 -193h-49l-95 193h-76v-193h-40v418h145q118 0 118 -111q0 -110 -104 -114zM301 26q108 0 183.5 98.5t75.5 236.5q0 137 -75.5 235t-183.5 98q-109 0 -185 -98t-76 -235 q0 -138 76 -236.5t185 -98.5zM301 -14q-125 0 -213 109.5t-88 265.5q0 155 88 264t213 109q124 0 211.5 -109t87.5 -264q0 -156 -87.5 -265.5t-211.5 -109.5z" unicode="®"/>
<glyph glyph-name="macron" d="M444 631h-288v40h288v-40z" unicode="¯"/>
<glyph glyph-name="degree" d="M149 549q0 -62 44.5 -106.5t106.5 -44.5t106.5 44.5t44.5 106.5t-44.5 106.5t-106.5 44.5t-106.5 -44.5t-44.5 -106.5zM107 549q0 80 56.5 136.5t136.5 56.5t136.5 -56.5t56.5 -136.5t-56.5 -136.5t-136.5 -56.5t-136.5 56.5t-56.5 136.5z" unicode="°"/>
<glyph glyph-name="plusminus" d="M566 91v-44h-532v44h532zM566 429v-44h-244v-244h-44v244h-244v44h244v244h44v-244h244z" unicode="±"/>
<glyph glyph-name="twosuperior" d="M230 370h181v-32h-221v8q0 56 16.5 92t66.5 79q3 3 15.5 13t19 16t18 16.5t17.5 18.5t13.5 18.5t10.5 21t3 20.5q0 28 -16 44.5t-44 16.5q-33 0 -51 -23t-20 -58h-40q3 51 32 82t80 31q46 0 72.5 -25t26.5 -70q0 -14 -5.5 -29t-11 -25t-20 -25.5t-20.5 -21t-24.5 -22 t-21.5 -18.5q-27 -24 -39.5 -37.5t-24.5 -37.5t-13 -53z" unicode="²"/>
<glyph glyph-name="threesuperior" d="M272 531v32h6q34 0 57.5 20.5t23.5 53.5q0 28 -20.5 46.5t-49.5 18.5q-24 0 -44 -16.5t-31 -39.5l-34 19q38 69 114 69q43 0 74 -29t31 -72q0 -53 -54 -84q71 -31 71 -102q0 -52 -34 -84.5t-86 -32.5q-42 0 -70 18t-52 55l35 21q29 -62 87 -62q35 0 57.5 22t22.5 57 q0 90 -104 90z" unicode="³"/>
<glyph glyph-name="acute" d="M383 734l37 -42l-174 -118l-22 30z" unicode="´"/>
<glyph glyph-name="mu" d="M426 226v303h47v-529h-47v93h-2q-17 -43 -49 -73.5t-73 -30.5q-43 0 -76 28t-50 70h-2v-319h-47v761h47v-319q0 -95 38.5 -138t84.5 -43q21 0 41.5 9t41.5 29.5t33.5 61.5t12.5 97z" unicode="µ"/>
<glyph glyph-name="paragraph" d="M278 -113v446q-3 0 -9.5 -0.5t-9.5 -0.5q-85 0 -143.5 53.5t-58.5 139.5q0 23 3 44t17.5 50.5t38.5 50t71 35.5t110 15h246v-40h-46v-793h-47v793h-125v-793h-47z" unicode="¶"/>
<glyph glyph-name="periodcentered" d="M250 360q0 21 14.5 35.5t35.5 14.5t35.5 -14.5t14.5 -35.5t-14.5 -35.5t-35.5 -14.5t-35.5 14.5t-14.5 35.5z" unicode="·"/>
<glyph glyph-name="cedilla" d="M297 13h36l-23 -68q39 -1 65.5 -17t26.5 -52q0 -33 -27 -53t-61 -20q-36 0 -94 25l12 33q46 -18 71 -18q17 0 34.5 9.5t17.5 25.5q0 33 -58 33q-10 0 -22 -1t-14 -1z" unicode="¸"/>
<glyph glyph-name="onesuperior" d="M322 734v-375h72v-32h-186v32h74v327l-78 -24v35z" unicode="¹"/>
<glyph glyph-name="ordmasculine" d="M300 435q50 0 70.5 38.5t20.5 93.5q0 133 -91 133t-91 -133q0 -132 91 -132zM300 401q-64 0 -97.5 45t-33.5 121q0 70 32 118.5t99 48.5q64 0 97.5 -46.5t33.5 -120.5q0 -73 -33 -119.5t-98 -46.5zM419 349v-34h-238v34h238z" unicode="º"/>
<glyph glyph-name="guillemotright" d="M309 605l259 -249l-259 -251l-29 32l229 219l-229 219zM61 605l259 -249l-259 -251l-29 32l229 219l-229 219z" unicode="»"/>
<glyph glyph-name="onequarter" d="M171 734v-375h72v-32h-186v32h74v327l-78 -24v35zM517 396v-263h57v-32h-57v-101h-40v101h-158v25l146 270h52zM469 734h40l-329 -734h-40zM477 133v212h-2l-111 -212h113z" unicode="¼"/>
<glyph glyph-name="onehalf" d="M380 32h181v-32h-221v8q0 56 16.5 92t66.5 79q3 3 15.5 13t19 16t18 16.5t17.5 18.5t13.5 18.5t10.5 21t3 20.5q0 28 -16 44.5t-44 16.5q-33 0 -51 -23t-20 -58h-40q3 51 32 82t80 31q46 0 72.5 -25t26.5 -70q0 -14 -5.5 -29t-11 -25t-20 -25.5t-20.5 -21t-24.5 -22 t-21.5 -18.5q-27 -24 -39.5 -37.5t-24.5 -37.5t-13 -53zM454 734h41l-331 -734h-40zM171 734v-375h72v-32h-186v32h74v327l-78 -24v35z" unicode="½"/>
<glyph glyph-name="threequarters" d="M122 531v32h6q34 0 57.5 20.5t23.5 53.5q0 28 -20.5 46.5t-49.5 18.5q-24 0 -44 -16.5t-31 -39.5l-34 19q38 69 114 69q43 0 74 -29t31 -72q0 -53 -54 -84q71 -31 71 -102q0 -52 -34 -84.5t-86 -32.5q-42 0 -70 18t-52 55l35 21q29 -62 87 -62q35 0 57.5 22t22.5 57 q0 90 -104 90zM517 396v-263h57v-32h-57v-101h-40v101h-158v25l146 270h52zM477 133v212h-2l-111 -212h113zM469 734h40l-329 -734h-40z" unicode="¾"/>
<glyph glyph-name="questiondown" d="M230 666q0 28 19.5 48t47.5 20t48 -20t20 -48t-20 -47.5t-48 -19.5t-47.5 19.5t-19.5 47.5zM283 496h47v-98q0 -36 -8 -53q-11 -26 -76 -76q-32 -26 -46.5 -51t-14.5 -63q0 -58 33 -93.5t90 -35.5q52 0 83.5 31t33.5 82h50q-6 -72 -51 -112.5t-117 -40.5q-79 0 -124 46.5 t-45 125.5q0 54 19.5 84.5t67.5 68.5q42 33 50 50t8 67v7v61z" unicode="¿"/>
<glyph glyph-name="Agrave" d="M217 925l159 -130l-22 -30l-174 118zM301 621l-112 -362h225zM301 749l241 -749h-53l-65 219h-245l-66 -219h-52z" unicode="À"/>
<glyph glyph-name="Aacute" d="M403 925l37 -42l-174 -118l-22 30zM301 621l-112 -362h225zM301 749l241 -749h-53l-65 219h-245l-66 -219h-52z" unicode="Á"/>
<glyph glyph-name="Acircumflex" d="M300 866l-140 -105l-23 25l163 142l163 -142l-23 -25zM301 621l-112 -362h225zM301 749l241 -749h-53l-65 219h-245l-66 -219h-52z" unicode="Â"/>
<glyph glyph-name="Atilde" d="M447 883l37 -15q-14 -33 -40.5 -55.5t-60.5 -22.5q-33 0 -84 32q-48 32 -76 32q-42 0 -71 -67l-36 13q42 94 111 94q9 0 17.5 -1.5t18.5 -6t14 -6.5t16.5 -9.5t14.5 -8.5q55 -33 74 -33q44 0 65 54zM301 621l-112 -362h225zM301 749l241 -749h-53l-65 219h-245l-66 -219 h-52z" unicode="Ã"/>
<glyph glyph-name="Adieresis" d="M335 843q0 23 16.5 39.5t39.5 16.5t39.5 -16.5t16.5 -39.5t-16.5 -39.5t-39.5 -16.5t-39.5 16.5t-16.5 39.5zM152 843q0 23 16.5 39.5t39.5 16.5t39.5 -16.5t16.5 -39.5t-16.5 -39.5t-39.5 -16.5t-39.5 16.5t-16.5 39.5zM301 621l-112 -362h225zM301 749l241 -749h-53 l-65 219h-245l-66 -219h-52z" unicode="Ä"/>
<glyph glyph-name="Aring" d="M254 834q0 -19 13.5 -32.5t32.5 -13.5t32.5 13.5t13.5 32.5t-13.5 32.5t-32.5 13.5t-32.5 -13.5t-13.5 -32.5zM218 834q0 34 24 58t58 24t58 -24t24 -58t-24 -58t-58 -24t-58 24t-24 58zM301 621l-112 -362h225zM301 749l241 -749h-53l-65 219h-245l-66 -219h-52z" unicode="Å"/>
<glyph glyph-name="AE" d="M285 262v418h-26l-108 -418h134zM229 720h311v-40h-208v-287h145v-40h-145v-313h216v-40h-263v222h-145l-57 -222h-51z" unicode="Æ"/>
<glyph glyph-name="Ccedilla" d="M492 584h-47q-2 47 -36.5 78.5t-82.5 31.5q-180 0 -180 -339q0 -329 174 -329q56 0 94.5 37t40.5 93h47q-8 -78 -54.5 -123t-123.5 -46l-14 -42q39 -1 65.5 -17t26.5 -52q0 -33 -27 -53t-61 -20q-36 0 -94 25l12 33q46 -18 71 -18q17 0 34.5 9.5t17.5 25.5q0 33 -58 33 q-10 0 -22 -1t-14 -1l27 79q-47 6 -83 32.5t-56 63t-32.5 85.5t-16.5 91.5t-4 89.5q0 384 230 384q66 0 113 -42t53 -108z" unicode="Ç"/>
<glyph glyph-name="Egrave" d="M227 925l159 -130l-22 -30l-174 118zM503 720v-40h-305v-290h219v-40h-219v-310h312v-40h-359v720h352z" unicode="È"/>
<glyph glyph-name="Eacute" d="M403 925l37 -42l-174 -118l-22 30zM503 720v-40h-305v-290h219v-40h-219v-310h312v-40h-359v720h352z" unicode="É"/>
<glyph glyph-name="Ecircumflex" d="M320 866l-140 -105l-23 25l163 142l163 -142l-23 -25zM503 720v-40h-305v-290h219v-40h-219v-310h312v-40h-359v720h352z" unicode="Ê"/>
<glyph glyph-name="Edieresis" d="M350 843q0 23 16.5 39.5t39.5 16.5t39.5 -16.5t16.5 -39.5t-16.5 -39.5t-39.5 -16.5t-39.5 16.5t-16.5 39.5zM167 843q0 23 16.5 39.5t39.5 16.5t39.5 -16.5t16.5 -39.5t-16.5 -39.5t-39.5 -16.5t-39.5 16.5t-16.5 39.5zM503 720v-40h-305v-290h219v-40h-219v-310h312 v-40h-359v720h352z" unicode="Ë"/>
<glyph glyph-name="Igrave" d="M217 925l159 -130l-22 -30l-174 118zM423 720v-40h-100v-640h100v-40h-247v40h100v640h-100v40h247z" unicode="Ì"/>
<glyph glyph-name="Iacute" d="M383 925l37 -42l-174 -118l-22 30zM423 720v-40h-100v-640h100v-40h-247v40h100v640h-100v40h247z" unicode="Í"/>
<glyph glyph-name="Icircumflex" d="M300 866l-140 -105l-23 25l163 142l163 -142l-23 -25zM423 720v-40h-100v-640h100v-40h-247v40h100v640h-100v40h247z" unicode="Î"/>
<glyph glyph-name="Idieresis" d="M335 843q0 23 16.5 39.5t39.5 16.5t39.5 -16.5t16.5 -39.5t-16.5 -39.5t-39.5 -16.5t-39.5 16.5t-16.5 39.5zM152 843q0 23 16.5 39.5t39.5 16.5t39.5 -16.5t16.5 -39.5t-16.5 -39.5t-39.5 -16.5t-39.5 16.5t-16.5 39.5zM423 720v-40h-100v-640h100v-40h-247v40h100v640 h-100v40h247z" unicode="Ï"/>
<glyph glyph-name="Eth" d="M170 354v-314h89q33 0 57 3t48.5 12.5t43 28.5t31.5 48q30 69 30 228q0 169 -33 235q-26 52 -68 68.5t-109 16.5h-89v-286h144v-40h-144zM123 394v326h180q60 0 104 -28.5t68 -73.5q44 -81 44 -258q0 -195 -58 -280q-56 -80 -172 -80h-166v354h-99v40h99z" unicode="Ð"/>
<glyph glyph-name="Ntilde" d="M447 883l37 -15q-14 -33 -40.5 -55.5t-60.5 -22.5q-33 0 -84 32q-48 32 -76 32q-42 0 -71 -67l-36 13q42 94 111 94q9 0 17.5 -1.5t18.5 -6t14 -6.5t16.5 -9.5t14.5 -8.5q55 -33 74 -33q44 0 65 54zM438 -7l-264 662l-2 -2v-653h-47v720h68l245 -617l2 2v615h47v-727h-49 z" unicode="Ñ"/>
<glyph glyph-name="Ograve" d="M217 925l159 -130l-22 -30l-174 118zM138 360q0 -97 12.5 -165t36 -103.5t51.5 -50.5t64 -15q78 0 119.5 75t41.5 259q0 97 -12 164.5t-34.5 103.5t-50 51t-64.5 15q-82 0 -123 -77.5t-41 -256.5zM302 -14q-37 0 -66.5 9t-58 34t-47.5 66t-30.5 108t-11.5 157 q0 58 3.5 103t16.5 98.5t35 89t62.5 59.5t96.5 24q44 0 78.5 -15.5t56 -36.5t37 -57.5t23 -65t11.5 -73t4.5 -66.5t0.5 -60q0 -111 -16 -187t-47 -115.5t-66 -55.5t-82 -16z" unicode="Ò"/>
<glyph glyph-name="Oacute" d="M383 925l37 -42l-174 -118l-22 30zM138 360q0 -97 12.5 -165t36 -103.5t51.5 -50.5t64 -15q78 0 119.5 75t41.5 259q0 97 -12 164.5t-34.5 103.5t-50 51t-64.5 15q-82 0 -123 -77.5t-41 -256.5zM302 -14q-37 0 -66.5 9t-58 34t-47.5 66t-30.5 108t-11.5 157q0 58 3.5 103 t16.5 98.5t35 89t62.5 59.5t96.5 24q44 0 78.5 -15.5t56 -36.5t37 -57.5t23 -65t11.5 -73t4.5 -66.5t0.5 -60q0 -111 -16 -187t-47 -115.5t-66 -55.5t-82 -16z" unicode="Ó"/>
<glyph glyph-name="Ocircumflex" d="M300 866l-140 -105l-23 25l163 142l163 -142l-23 -25zM138 360q0 -97 12.5 -165t36 -103.5t51.5 -50.5t64 -15q78 0 119.5 75t41.5 259q0 97 -12 164.5t-34.5 103.5t-50 51t-64.5 15q-82 0 -123 -77.5t-41 -256.5zM302 -14q-37 0 -66.5 9t-58 34t-47.5 66t-30.5 108 t-11.5 157q0 58 3.5 103t16.5 98.5t35 89t62.5 59.5t96.5 24q44 0 78.5 -15.5t56 -36.5t37 -57.5t23 -65t11.5 -73t4.5 -66.5t0.5 -60q0 -111 -16 -187t-47 -115.5t-66 -55.5t-82 -16z" unicode="Ô"/>
<glyph glyph-name="Otilde" d="M447 883l37 -15q-14 -33 -40.5 -55.5t-60.5 -22.5q-33 0 -84 32q-48 32 -76 32q-42 0 -71 -67l-36 13q42 94 111 94q9 0 17.5 -1.5t18.5 -6t14 -6.5t16.5 -9.5t14.5 -8.5q55 -33 74 -33q44 0 65 54zM138 360q0 -97 12.5 -165t36 -103.5t51.5 -50.5t64 -15q78 0 119.5 75 t41.5 259q0 97 -12 164.5t-34.5 103.5t-50 51t-64.5 15q-82 0 -123 -77.5t-41 -256.5zM302 -14q-37 0 -66.5 9t-58 34t-47.5 66t-30.5 108t-11.5 157q0 58 3.5 103t16.5 98.5t35 89t62.5 59.5t96.5 24q44 0 78.5 -15.5t56 -36.5t37 -57.5t23 -65t11.5 -73t4.5 -66.5t0.5 -60 q0 -111 -16 -187t-47 -115.5t-66 -55.5t-82 -16z" unicode="Õ"/>
<glyph glyph-name="Odieresis" d="M335 843q0 23 16.5 39.5t39.5 16.5t39.5 -16.5t16.5 -39.5t-16.5 -39.5t-39.5 -16.5t-39.5 16.5t-16.5 39.5zM152 843q0 23 16.5 39.5t39.5 16.5t39.5 -16.5t16.5 -39.5t-16.5 -39.5t-39.5 -16.5t-39.5 16.5t-16.5 39.5zM138 360q0 -97 12.5 -165t36 -103.5t51.5 -50.5 t64 -15q78 0 119.5 75t41.5 259q0 97 -12 164.5t-34.5 103.5t-50 51t-64.5 15q-82 0 -123 -77.5t-41 -256.5zM302 -14q-37 0 -66.5 9t-58 34t-47.5 66t-30.5 108t-11.5 157q0 58 3.5 103t16.5 98.5t35 89t62.5 59.5t96.5 24q44 0 78.5 -15.5t56 -36.5t37 -57.5t23 -65 t11.5 -73t4.5 -66.5t0.5 -60q0 -111 -16 -187t-47 -115.5t-66 -55.5t-82 -16z" unicode="Ö"/>
<glyph glyph-name="multiply" d="M566 126l-31 -32l-235 235l-235 -235l-31 32l235 234l-235 235l31 31l235 -235l235 235l31 -31l-235 -235z" unicode="×"/>
<glyph glyph-name="Oslash" d="M452 658l34 62l33 -20l-45 -80q40 -93 40 -254q0 -35 -1 -62.5t-5.5 -69t-12.5 -73t-24 -66.5t-38 -57t-56 -37t-77 -15q-88 0 -143 66l-42 -75l-33 19l51 91q-45 90 -45 267q0 39 0.5 65t5 69.5t12.5 73.5t23.5 65t37.5 56.5t56 36t77 14.5q96 0 152 -76zM162 139 l264 474q-45 81 -126 81q-44 0 -75.5 -20.5t-48 -49t-25.5 -73t-11 -77t-2 -76.5v-44q0 -144 24 -215zM444 566l-263 -470q43 -70 119 -70q48 0 81.5 26.5t51 75.5t24.5 106t7 132q0 129 -20 200z" unicode="Ø"/>
<glyph glyph-name="Ugrave" d="M217 925l159 -130l-22 -30l-174 118zM441 720h47v-535q0 -97 -58.5 -148t-129.5 -51q-76 0 -133 55t-57 133v546h47v-511q0 -96 39.5 -139.5t103.5 -43.5q65 0 103 41.5t38 125.5v527z" unicode="Ù"/>
<glyph glyph-name="Uacute" d="M383 925l37 -42l-174 -118l-22 30zM441 720h47v-535q0 -97 -58.5 -148t-129.5 -51q-76 0 -133 55t-57 133v546h47v-511q0 -96 39.5 -139.5t103.5 -43.5q65 0 103 41.5t38 125.5v527z" unicode="Ú"/>
<glyph glyph-name="Ucircumflex" d="M300 866l-140 -105l-23 25l163 142l163 -142l-23 -25zM441 720h47v-535q0 -97 -58.5 -148t-129.5 -51q-76 0 -133 55t-57 133v546h47v-511q0 -96 39.5 -139.5t103.5 -43.5q65 0 103 41.5t38 125.5v527z" unicode="Û"/>
<glyph glyph-name="Udieresis" d="M335 843q0 23 16.5 39.5t39.5 16.5t39.5 -16.5t16.5 -39.5t-16.5 -39.5t-39.5 -16.5t-39.5 16.5t-16.5 39.5zM152 843q0 23 16.5 39.5t39.5 16.5t39.5 -16.5t16.5 -39.5t-16.5 -39.5t-39.5 -16.5t-39.5 16.5t-16.5 39.5zM441 720h47v-535q0 -97 -58.5 -148t-129.5 -51 q-76 0 -133 55t-57 133v546h47v-511q0 -96 39.5 -139.5t103.5 -43.5q65 0 103 41.5t38 125.5v527z" unicode="Ü"/>
<glyph glyph-name="Yacute" d="M383 925l37 -42l-174 -118l-22 30zM281 360l152 360h53l-181 -415v-305h-47v305l-181 415h53z" unicode="Ý"/>
<glyph glyph-name="Thorn" d="M192 533v-347h84q91 0 135 45.5t44 125.5q0 93 -41.5 134.5t-103.5 41.5h-118zM145 0v720h47v-147h115q104 0 151 -61.5t47 -153.5q0 -104 -59 -158t-163 -54h-91v-146h-47z" unicode="Þ"/>
<glyph glyph-name="germandbls" d="M264 364v40q65 3 107 45.5t42 107.5q0 56 -32.5 96.5t-87.5 40.5q-46 0 -72 -32t-26 -88v-574h-47v581q0 53 41.5 103t108.5 50q73 0 117.5 -53t44.5 -128q0 -105 -102 -165q131 -44 131 -200q0 -97 -44 -148t-110 -51q-42 0 -79 27l21 34q31 -21 62 -21q47 0 75 43 t28 111q0 94 -44.5 134.5t-133.5 46.5z" unicode="ß"/>
<glyph glyph-name="agrave" d="M217 734l159 -130l-22 -30l-174 118zM396 136v137q-62 32 -115 32q-62 0 -92.5 -44t-30.5 -108q0 -49 26.5 -86.5t73.5 -37.5q45 0 77 28.5t61 78.5zM466 -5l-43 -6q-15 45 -20 90q-31 -45 -64 -67.5t-81 -22.5q-69 0 -108 48.5t-39 119.5q0 79 42.5 133.5t116.5 54.5 q57 0 129 -35v21q0 91 -24 130t-84 39q-50 0 -127 -35l-11 43q82 32 141 32q72 0 112 -46.5t40 -130.5v-9l-6 -216v-6q0 -53 26 -137z" unicode="à"/>
<glyph glyph-name="aacute" d="M393 734l37 -42l-174 -118l-22 30zM396 136v137q-62 32 -115 32q-62 0 -92.5 -44t-30.5 -108q0 -49 26.5 -86.5t73.5 -37.5q45 0 77 28.5t61 78.5zM466 -5l-43 -6q-15 45 -20 90q-31 -45 -64 -67.5t-81 -22.5q-69 0 -108 48.5t-39 119.5q0 79 42.5 133.5t116.5 54.5 q57 0 129 -35v21q0 91 -24 130t-84 39q-50 0 -127 -35l-11 43q82 32 141 32q72 0 112 -46.5t40 -130.5v-9l-6 -216v-6q0 -53 26 -137z" unicode="á"/>
<glyph glyph-name="acircumflex" d="M300 675l-140 -105l-23 25l163 142l163 -142l-23 -25zM396 136v137q-62 32 -115 32q-62 0 -92.5 -44t-30.5 -108q0 -49 26.5 -86.5t73.5 -37.5q45 0 77 28.5t61 78.5zM466 -5l-43 -6q-15 45 -20 90q-31 -45 -64 -67.5t-81 -22.5q-69 0 -108 48.5t-39 119.5 q0 79 42.5 133.5t116.5 54.5q57 0 129 -35v21q0 91 -24 130t-84 39q-50 0 -127 -35l-11 43q82 32 141 32q72 0 112 -46.5t40 -130.5v-9l-6 -216v-6q0 -53 26 -137z" unicode="â"/>
<glyph glyph-name="atilde" d="M447 692l37 -15q-14 -33 -40.5 -55.5t-60.5 -22.5q-33 0 -84 32q-48 32 -76 32q-42 0 -71 -67l-36 13q42 94 111 94q9 0 17.5 -1.5t18.5 -6t14 -6.5t16.5 -9.5t14.5 -8.5q55 -33 74 -33q44 0 65 54zM396 136v137q-62 32 -115 32q-62 0 -92.5 -44t-30.5 -108 q0 -49 26.5 -86.5t73.5 -37.5q45 0 77 28.5t61 78.5zM466 -5l-43 -6q-15 45 -20 90q-31 -45 -64 -67.5t-81 -22.5q-69 0 -108 48.5t-39 119.5q0 79 42.5 133.5t116.5 54.5q57 0 129 -35v21q0 91 -24 130t-84 39q-50 0 -127 -35l-11 43q82 32 141 32q72 0 112 -46.5 t40 -130.5v-9l-6 -216v-6q0 -53 26 -137z" unicode="ã"/>
<glyph glyph-name="adieresis" d="M325 652q0 23 16.5 39.5t39.5 16.5t39.5 -16.5t16.5 -39.5t-16.5 -39.5t-39.5 -16.5t-39.5 16.5t-16.5 39.5zM142 652q0 23 16.5 39.5t39.5 16.5t39.5 -16.5t16.5 -39.5t-16.5 -39.5t-39.5 -16.5t-39.5 16.5t-16.5 39.5zM396 136v137q-62 32 -115 32q-62 0 -92.5 -44 t-30.5 -108q0 -49 26.5 -86.5t73.5 -37.5q45 0 77 28.5t61 78.5zM466 -5l-43 -6q-15 45 -20 90q-31 -45 -64 -67.5t-81 -22.5q-69 0 -108 48.5t-39 119.5q0 79 42.5 133.5t116.5 54.5q57 0 129 -35v21q0 91 -24 130t-84 39q-50 0 -127 -35l-11 43q82 32 141 32 q72 0 112 -46.5t40 -130.5v-9l-6 -216v-6q0 -53 26 -137z" unicode="ä"/>
<glyph glyph-name="aring" d="M249 660q0 -19 13.5 -32.5t32.5 -13.5t32.5 13.5t13.5 32.5t-13.5 32.5t-32.5 13.5t-32.5 -13.5t-13.5 -32.5zM213 660q0 34 24 58t58 24t58 -24t24 -58t-24 -58t-58 -24t-58 24t-24 58zM396 136v137q-62 32 -115 32q-62 0 -92.5 -44t-30.5 -108q0 -49 26.5 -86.5 t73.5 -37.5q45 0 77 28.5t61 78.5zM466 -5l-43 -6q-15 45 -20 90q-31 -45 -64 -67.5t-81 -22.5q-69 0 -108 48.5t-39 119.5q0 79 42.5 133.5t116.5 54.5q57 0 129 -35v21q0 91 -24 130t-84 39q-50 0 -127 -35l-11 43q82 32 141 32q72 0 112 -46.5t40 -130.5v-9l-6 -216v-6 q0 -53 26 -137z" unicode="å"/>
<glyph glyph-name="ae" d="M323 259v-128q0 -54 15 -78t52 -24q53 0 146 56l17 -39q-99 -57 -162 -57q-69 0 -95 46q-45 -46 -110 -46q-67 0 -103 48.5t-36 118.5q0 77 40 131.5t115 54.5q38 0 74 -18v76q0 100 -64 100q-20 0 -42.5 -8.5t-35.5 -16t-41 -26.5l-11 42q82 49 130 49q56 0 84 -41 q38 41 97 41q73 0 116 -75q41 -71 41 -176q0 -20 -1 -30h-226zM276 151v128q-37 23 -77 23q-54 0 -79.5 -45.5t-25.5 -103.5q0 -50 26.5 -87t75.5 -37q28 0 45 8.5t24 27t9 34t2 43.5v9zM323 299h179q0 31 -5 62.5t-17 64.5t-36.5 53.5t-58.5 20.5q-33 0 -47.5 -22.5 t-14.5 -74.5v-104z" unicode="æ"/>
<glyph glyph-name="ccedilla" d="M474 112l32 -34q-82 -89 -175 -89q-4 0 -6 1l-15 -45q39 -1 65.5 -17t26.5 -52q0 -33 -27 -53t-61 -20q-36 0 -94 25l12 33q46 -18 71 -18q17 0 34.5 9.5t17.5 25.5q0 33 -58 33q-10 0 -22 -1t-14 -1l29 84q-75 13 -127.5 77t-52.5 189q0 77 19.5 134t52.5 87.5t69 45 t76 14.5q111 0 182 -107l-42 -28q-48 95 -140 95q-22 0 -43 -5.5t-45 -21.5t-41.5 -41t-29 -67.5t-11.5 -97.5q0 -124 52 -181t121 -57q75 0 144 83z" unicode="ç"/>
<glyph glyph-name="egrave" d="M217 734l159 -130l-22 -30l-174 118zM144 297h315v12q0 73 -41.5 132t-111.5 59q-72 0 -117 -61t-45 -136v-6zM478 81l20 -44q-108 -48 -189 -48q-73 0 -123 41.5t-69.5 100.5t-19.5 131t20 132t70.5 103t124.5 43q36 0 68.5 -14t61.5 -44.5t46.5 -88.5t17.5 -136h-362 q11 -228 167 -228q80 0 167 52z" unicode="è"/>
<glyph glyph-name="eacute" d="M403 734l37 -42l-174 -118l-22 30zM144 297h315v12q0 73 -41.5 132t-111.5 59q-72 0 -117 -61t-45 -136v-6zM478 81l20 -44q-108 -48 -189 -48q-73 0 -123 41.5t-69.5 100.5t-19.5 131t20 132t70.5 103t124.5 43q36 0 68.5 -14t61.5 -44.5t46.5 -88.5t17.5 -136h-362 q11 -228 167 -228q80 0 167 52z" unicode="é"/>
<glyph glyph-name="ecircumflex" d="M300 675l-140 -105l-23 25l163 142l163 -142l-23 -25zM144 297h315v12q0 73 -41.5 132t-111.5 59q-72 0 -117 -61t-45 -136v-6zM478 81l20 -44q-108 -48 -189 -48q-73 0 -123 41.5t-69.5 100.5t-19.5 131t20 132t70.5 103t124.5 43q36 0 68.5 -14t61.5 -44.5t46.5 -88.5 t17.5 -136h-362q11 -228 167 -228q80 0 167 52z" unicode="ê"/>
<glyph glyph-name="edieresis" d="M335 652q0 23 16.5 39.5t39.5 16.5t39.5 -16.5t16.5 -39.5t-16.5 -39.5t-39.5 -16.5t-39.5 16.5t-16.5 39.5zM152 652q0 23 16.5 39.5t39.5 16.5t39.5 -16.5t16.5 -39.5t-16.5 -39.5t-39.5 -16.5t-39.5 16.5t-16.5 39.5zM144 297h315v12q0 73 -41.5 132t-111.5 59 q-72 0 -117 -61t-45 -136v-6zM478 81l20 -44q-108 -48 -189 -48q-73 0 -123 41.5t-69.5 100.5t-19.5 131t20 132t70.5 103t124.5 43q36 0 68.5 -14t61.5 -44.5t46.5 -88.5t17.5 -136h-362q11 -228 167 -228q80 0 167 52z" unicode="ë"/>
<glyph glyph-name="igrave" d="M217 734l159 -130l-22 -30l-174 118zM289 0v489h-154v40h201v-529h-47z" unicode="ì"/>
<glyph glyph-name="iacute" d="M363 734l37 -42l-174 -118l-22 30zM289 0v489h-154v40h201v-529h-47z" unicode="í"/>
<glyph glyph-name="icircumflex" d="M260 675l-140 -105l-23 25l163 142l163 -142l-23 -25zM289 0v489h-154v40h201v-529h-47z" unicode="î"/>
<glyph glyph-name="idieresis" d="M335 652q0 23 16.5 39.5t39.5 16.5t39.5 -16.5t16.5 -39.5t-16.5 -39.5t-39.5 -16.5t-39.5 16.5t-16.5 39.5zM152 652q0 23 16.5 39.5t39.5 16.5t39.5 -16.5t16.5 -39.5t-16.5 -39.5t-39.5 -16.5t-39.5 16.5t-16.5 39.5zM289 0v489h-154v40h201v-529h-47z" unicode="ï"/>
<glyph glyph-name="eth" d="M310 640l-142 -68l-30 30l138 66q-57 40 -111 54l33 20q63 -12 122 -53l109 53l29 -31l-103 -50q67 -59 107.5 -152.5t40.5 -208.5q0 -311 -203 -311q-36 0 -69.5 13.5t-64.5 43t-49.5 86t-18.5 133.5q0 142 59.5 208.5t142.5 66.5q73 0 121 -57l2 2q-37 89 -113 155z M300 29q46 0 78.5 21.5t48.5 58.5t22.5 74.5t6.5 81.5t-6.5 81t-22.5 74t-48.5 58.5t-78.5 21.5t-78.5 -21.5t-48 -58.5t-22 -74t-6.5 -81t6.5 -81.5t22 -74.5t48 -58.5t78.5 -21.5z" unicode="ð"/>
<glyph glyph-name="ntilde" d="M437 692l37 -15q-14 -33 -40.5 -55.5t-60.5 -22.5q-33 0 -84 32q-48 32 -76 32q-42 0 -71 -67l-36 13q42 94 111 94q9 0 17.5 -1.5t18.5 -6t14 -6.5t16.5 -9.5t14.5 -8.5q55 -33 74 -33q44 0 65 54zM168 218v-218h-47v265q0 165 -21 270h44l19 -152h2q15 61 71 109 t117 48q66 0 94.5 -46.5t28.5 -116.5v-377h-47v355q0 25 -0.5 39t-5 37.5t-12.5 36t-24 22.5t-40 10q-30 0 -60 -15.5t-57.5 -47.5t-44.5 -89t-17 -130z" unicode="ñ"/>
<glyph glyph-name="ograve" d="M217 734l159 -130l-22 -30l-174 118zM300 29q46 0 78.5 21.5t48.5 58.5t22.5 74.5t6.5 81.5t-6.5 81t-22.5 74t-48.5 58.5t-78.5 21.5t-78.5 -21.5t-48 -58.5t-22 -74t-6.5 -81t6.5 -81.5t22 -74.5t48 -58.5t78.5 -21.5zM300 -11q-36 0 -69.5 13.5t-64.5 43t-49.5 86 t-18.5 133.5q0 142 59.5 208.5t142.5 66.5q36 0 69.5 -13.5t64.5 -42.5t50 -85.5t19 -133.5t-18.5 -133.5t-50 -86t-65 -43t-69.5 -13.5z" unicode="ò"/>
<glyph glyph-name="oacute" d="M403 734l37 -42l-174 -118l-22 30zM300 29q46 0 78.5 21.5t48.5 58.5t22.5 74.5t6.5 81.5t-6.5 81t-22.5 74t-48.5 58.5t-78.5 21.5t-78.5 -21.5t-48 -58.5t-22 -74t-6.5 -81t6.5 -81.5t22 -74.5t48 -58.5t78.5 -21.5zM300 -11q-36 0 -69.5 13.5t-64.5 43t-49.5 86 t-18.5 133.5q0 142 59.5 208.5t142.5 66.5q36 0 69.5 -13.5t64.5 -42.5t50 -85.5t19 -133.5t-18.5 -133.5t-50 -86t-65 -43t-69.5 -13.5z" unicode="ó"/>
<glyph glyph-name="ocircumflex" d="M300 675l-140 -105l-23 25l163 142l163 -142l-23 -25zM300 29q46 0 78.5 21.5t48.5 58.5t22.5 74.5t6.5 81.5t-6.5 81t-22.5 74t-48.5 58.5t-78.5 21.5t-78.5 -21.5t-48 -58.5t-22 -74t-6.5 -81t6.5 -81.5t22 -74.5t48 -58.5t78.5 -21.5zM300 -11q-36 0 -69.5 13.5 t-64.5 43t-49.5 86t-18.5 133.5q0 142 59.5 208.5t142.5 66.5q36 0 69.5 -13.5t64.5 -42.5t50 -85.5t19 -133.5t-18.5 -133.5t-50 -86t-65 -43t-69.5 -13.5z" unicode="ô"/>
<glyph glyph-name="otilde" d="M447 692l37 -15q-14 -33 -40.5 -55.5t-60.5 -22.5q-33 0 -84 32q-48 32 -76 32q-42 0 -71 -67l-36 13q42 94 111 94q9 0 17.5 -1.5t18.5 -6t14 -6.5t16.5 -9.5t14.5 -8.5q55 -33 74 -33q44 0 65 54zM300 29q46 0 78.5 21.5t48.5 58.5t22.5 74.5t6.5 81.5t-6.5 81 t-22.5 74t-48.5 58.5t-78.5 21.5t-78.5 -21.5t-48 -58.5t-22 -74t-6.5 -81t6.5 -81.5t22 -74.5t48 -58.5t78.5 -21.5zM300 -11q-36 0 -69.5 13.5t-64.5 43t-49.5 86t-18.5 133.5q0 142 59.5 208.5t142.5 66.5q36 0 69.5 -13.5t64.5 -42.5t50 -85.5t19 -133.5t-18.5 -133.5 t-50 -86t-65 -43t-69.5 -13.5z" unicode="õ"/>
<glyph glyph-name="odieresis" d="M335 652q0 23 16.5 39.5t39.5 16.5t39.5 -16.5t16.5 -39.5t-16.5 -39.5t-39.5 -16.5t-39.5 16.5t-16.5 39.5zM152 652q0 23 16.5 39.5t39.5 16.5t39.5 -16.5t16.5 -39.5t-16.5 -39.5t-39.5 -16.5t-39.5 16.5t-16.5 39.5zM300 29q46 0 78.5 21.5t48.5 58.5t22.5 74.5 t6.5 81.5t-6.5 81t-22.5 74t-48.5 58.5t-78.5 21.5t-78.5 -21.5t-48 -58.5t-22 -74t-6.5 -81t6.5 -81.5t22 -74.5t48 -58.5t78.5 -21.5zM300 -11q-36 0 -69.5 13.5t-64.5 43t-49.5 86t-18.5 133.5q0 142 59.5 208.5t142.5 66.5q36 0 69.5 -13.5t64.5 -42.5t50 -85.5 t19 -133.5t-18.5 -133.5t-50 -86t-65 -43t-69.5 -13.5z" unicode="ö"/>
<glyph glyph-name="divide" d="M343 515q0 -18 -12.5 -30.5t-30.5 -12.5t-30.5 12.5t-12.5 30.5t12.5 30.5t30.5 12.5t30.5 -12.5t12.5 -30.5zM343 205q0 -18 -12.5 -30.5t-30.5 -12.5t-30.5 12.5t-12.5 30.5t12.5 30.5t30.5 12.5t30.5 -12.5t12.5 -30.5zM566 382v-44h-532v44h532z" unicode="÷"/>
<glyph glyph-name="oslash" d="M420 435l-219 -366q36 -40 100 -40q46 0 78.5 21.5t48 58.5t22 74.5t6.5 81.5q0 109 -36 170zM178 102l217 363q-36 35 -94 35q-46 0 -78.5 -21.5t-48.5 -58.5t-22.5 -74t-6.5 -81q0 -102 33 -163zM416 500l35 60l31 -22l-39 -64q60 -71 60 -209q0 -143 -59.5 -209.5 t-142.5 -66.5q-68 0 -122 45l-36 -62l-31 22l41 67q-55 71 -55 204q0 142 59.5 208.5t143.5 66.5q64 0 115 -40z" unicode="ø"/>
<glyph glyph-name="ugrave" d="M207 734l159 -130l-22 -30l-174 118zM433 315v214h47v-261q0 -165 21 -268h-44l-20 150h-2q-16 -61 -71.5 -111t-115.5 -50q-66 0 -94.5 48.5t-28.5 118.5v373h47v-351q0 -149 82 -149q68 0 123.5 74t55.5 212z" unicode="ù"/>
<glyph glyph-name="uacute" d="M398 734l37 -42l-174 -118l-22 30zM433 315v214h47v-261q0 -165 21 -268h-44l-20 150h-2q-16 -61 -71.5 -111t-115.5 -50q-66 0 -94.5 48.5t-28.5 118.5v373h47v-351q0 -149 82 -149q68 0 123.5 74t55.5 212z" unicode="ú"/>
<glyph glyph-name="ucircumflex" d="M300 675l-140 -105l-23 25l163 142l163 -142l-23 -25zM433 315v214h47v-261q0 -165 21 -268h-44l-20 150h-2q-16 -61 -71.5 -111t-115.5 -50q-66 0 -94.5 48.5t-28.5 118.5v373h47v-351q0 -149 82 -149q68 0 123.5 74t55.5 212z" unicode="û"/>
<glyph glyph-name="udieresis" d="M335 652q0 23 16.5 39.5t39.5 16.5t39.5 -16.5t16.5 -39.5t-16.5 -39.5t-39.5 -16.5t-39.5 16.5t-16.5 39.5zM152 652q0 23 16.5 39.5t39.5 16.5t39.5 -16.5t16.5 -39.5t-16.5 -39.5t-39.5 -16.5t-39.5 16.5t-16.5 39.5zM433 315v214h47v-261q0 -165 21 -268h-44l-20 150 h-2q-16 -61 -71.5 -111t-115.5 -50q-66 0 -94.5 48.5t-28.5 118.5v373h47v-351q0 -149 82 -149q68 0 123.5 74t55.5 212z" unicode="ü"/>
<glyph glyph-name="yacute" d="M398 734l37 -42l-174 -118l-22 30zM458 529h54l-198 -503q-13 -34 -19.5 -49.5t-24 -49t-32.5 -50t-39 -31.5t-51 -15q-43 0 -75.5 29t-46.5 72l40 21q30 -82 82 -82q18 0 33 8.5t27.5 27t18.5 30t16 33.5l40 91l-172 468h52l143 -406z" unicode="ý"/>
<glyph glyph-name="thorn" d="M173 394v-313q59 -52 118 -52q26 0 53 10.5t55.5 34t46.5 73t18 117.5q0 65 -16 114t-41.5 74t-51 36.5t-50.5 11.5q-84 0 -132 -106zM126 -212v954h47v-277h2q30 40 58.5 57.5t72.5 17.5q35 0 69.5 -15t65.5 -46t50.5 -87.5t19.5 -130.5q0 -75 -22 -131.5t-56 -85 t-67 -42t-63 -13.5q-74 0 -130 45v-246h-47z" unicode="þ"/>
<glyph glyph-name="OE" d="M328 43v632q-44 19 -77 19q-37 0 -65.5 -14.5t-46 -41.5t-29 -56.5t-16.5 -71t-6.5 -72t-1.5 -70.5v-13q0 -41 1 -67.5t5.5 -70.5t15.5 -73t28 -58.5t46.5 -44.5t68.5 -15q37 0 77 17zM583 720v-40h-208v-287h145v-40h-145v-313h216v-40h-263q-36 -14 -78 -14 q-43 0 -77 13.5t-56 34.5t-38 54t-24 63t-12.5 73t-5.5 71.5t-1 69.5q0 108 16.5 183t48 114t68.5 55.5t86 16.5q33 0 73 -14h255z" unicode="Œ"/>
<glyph glyph-name="oe" d="M319 299h183q0 31 -5 62.5t-17 64.5t-36.5 53.5t-58.5 20.5t-50 -23t-16 -74v-104zM272 66v412q-10 22 -45 22q-54 0 -92 -55.5t-38 -179.5q0 -116 37 -176t81 -60q34 0 57 37zM319 259v-128q0 -53 17 -77.5t54 -24.5q53 0 146 56l17 -39q-99 -57 -162 -57q-57 0 -95 42 q-32 -42 -78 -42q-63 0 -115.5 69t-52.5 207q0 132 51.5 203.5t117.5 71.5q42 0 85 -33q34 33 89 33q10 0 19 -1t26 -6.5t30.5 -15.5t29 -30t26.5 -47.5t18 -70.5t7 -97v-13h-230z" unicode="œ"/>
<glyph glyph-name="Scaron" d="M300 821l140 104l23 -25l-163 -141l-163 141l23 25zM487 653l-28 -35q-88 76 -158 76q-56 0 -94.5 -35t-38.5 -91q0 -43 24 -75t89 -72l59 -36q94 -57 130 -96.5t36 -102.5q0 -92 -55.5 -146t-148.5 -54q-121 0 -203 106l36 29q66 -95 167 -95q64 0 109 42t45 106 q0 55 -23 86t-118 87l-67 40q-62 37 -96 77t-34 99q0 79 53 125t133 46q95 0 183 -81z" unicode="Š"/>
<glyph glyph-name="scaron" d="M300 630l140 104l23 -25l-163 -141l-163 141l23 25zM449 484l-20 -39q-77 55 -142 55q-41 0 -73 -27.5t-32 -68.5q0 -29 21.5 -52.5t42.5 -34t53 -22.5q33 -13 49.5 -20t43 -22t39.5 -30t23.5 -39.5t10.5 -54.5q0 -63 -47.5 -101.5t-111.5 -38.5q-48 0 -104.5 25 t-94.5 60l26 38q35 -35 83 -59t92 -24q47 0 78.5 25.5t31.5 71.5q0 23 -7.5 41.5t-17 30t-29.5 23t-32.5 16.5l-37.5 15q-37 14 -57.5 24t-48 28.5t-40.5 44.5t-13 59q0 55 47 93.5t108 38.5q82 0 159 -56z" unicode="š"/>
<glyph glyph-name="Ydieresis" d="M315 843q0 23 16.5 39.5t39.5 16.5t39.5 -16.5t16.5 -39.5t-16.5 -39.5t-39.5 -16.5t-39.5 16.5t-16.5 39.5zM132 843q0 23 16.5 39.5t39.5 16.5t39.5 -16.5t16.5 -39.5t-16.5 -39.5t-39.5 -16.5t-39.5 16.5t-16.5 39.5zM281 360l152 360h53l-181 -415v-305h-47v305 l-181 415h53z" unicode="Ÿ"/>
<glyph glyph-name="circumflex" d="M300 675l-140 -105l-23 25l163 142l163 -142l-23 -25z" unicode="ˆ"/>
<glyph glyph-name="tilde" d="M447 692l37 -15q-14 -33 -40.5 -55.5t-60.5 -22.5q-33 0 -84 32q-48 32 -76 32q-42 0 -71 -67l-36 13q42 94 111 94q9 0 17.5 -1.5t18.5 -6t14 -6.5t16.5 -9.5t14.5 -8.5q55 -33 74 -33q44 0 65 54z" unicode="˜"/>
<glyph glyph-name="Gamma" d="M160 720h338v-47h-291v-673h-47v720z" unicode="Γ"/>
<glyph glyph-name="Theta" d="M154 392h291v-50h-291v50zM300 694q-83 0 -151.5 -87t-68.5 -247q0 -86 22 -153.5t56 -105t70.5 -56.5t71.5 -19t72 20t71 58.5t55.5 105.5t21.5 150q0 87 -22.5 155t-58 105t-71 55.5t-68.5 18.5zM300 -14q-47 0 -93.5 24.5t-86 70t-63.5 118.5t-24 161q0 90 25 163.5 t64.5 118t85.5 68.5t92 24q102 0 184.5 -101.5t82.5 -272.5q0 -90 -24.5 -163.5t-64 -118t-86 -68.5t-92.5 -24z" unicode="Θ"/>
<glyph glyph-name="Phi" d="M324 632v-543h11q62 0 107 44.5t64 103.5t19 121q0 46 -11 92.5t-33 88t-60 67.5t-86 26h-11zM277 88v543q-3 0 -8 0.5t-8 0.5q-63 0 -107 -46.5t-61.5 -106.5t-17.5 -123q0 -61 19 -120t64.5 -103.5t107.5 -44.5h11zM277 734h47v-62q77 0 135.5 -48.5t85.5 -117.5 t27 -145q0 -75 -26.5 -145t-84.5 -119t-134 -49h-3v-62h-47v62q-116 1 -182.5 94.5t-66.5 214.5q0 56 16 110.5t45 100.5t77 74.5t107 28.5h4v63z" unicode="Φ"/>
<glyph glyph-name="alpha" d="M420 327l68 213l42 -11l-93 -257l75 -272h-43l-50 208h-2q-8 -37 -14.5 -61t-20.5 -57t-31 -52.5t-45.5 -34t-63.5 -14.5q-28 0 -56 12.5t-57 40t-47.5 83t-18.5 130.5q0 72 18 129.5t46.5 90t59 49t58.5 16.5q79 0 121 -62.5t52 -150.5h2zM245 500q-54 0 -94.5 -69 t-40.5 -182q0 -63 14 -109t36.5 -68.5t43.5 -32.5t41 -10q46 0 80 46.5t47.5 101t13.5 101.5q0 46 -13 94.5t-47 88t-81 39.5z" unicode="α"/>
<glyph glyph-name="delta" d="M326 470l-171 178v72h294v-40h-272l242 -247q85 -88 85 -196q0 -97 -56.5 -174t-149.5 -77q-90 0 -146 77t-56 169q0 63 19 113.5t48 78t59.5 41.5t58.5 14t43 -11zM457 237q0 78 -42 140t-117 62q-76 0 -121 -74q-34 -56 -34 -135q0 -75 42 -139.5t113 -64.5 q74 0 116.5 66t42.5 145z" unicode="δ"/>
<glyph glyph-name="epsilon" d="M361 305v-40q-86 0 -140 -31t-54 -96q0 -44 47 -76.5t121 -32.5q104 0 161 70l42 -18q-79 -92 -205 -92q-93 0 -153 43.5t-60 111.5q0 52 39.5 89.5t108.5 54.5q-52 16 -83.5 47.5t-31.5 71.5q0 55 53 94t128 39q101 0 150 -46l-40 -20q-36 26 -106 26 q-65 0 -101.5 -27.5t-36.5 -56.5q0 -49 47 -80t114 -31z" unicode="ε"/>
<glyph glyph-name="uni03BC" d="M426 226v303h47v-529h-47v93h-2q-17 -43 -49 -73.5t-73 -30.5q-43 0 -76 28t-50 70h-2v-319h-47v761h47v-319q0 -95 38.5 -138t84.5 -43q21 0 41.5 9t41.5 29.5t33.5 61.5t12.5 97z" unicode="μ"/>
<glyph glyph-name="pi" d="M51 529h498v-47h-110v-482h-47v482h-184v-482h-47v482h-110v47z" unicode="π"/>
<glyph glyph-name="sigma" d="M430 262q0 49 -16 99t-54 89t-89 39q-24 0 -50 -12.5t-51.5 -38t-41.5 -72t-16 -105.5q0 -67 17 -115.5t44 -72t52 -34t48 -10.5q57 0 107 57.5t50 175.5zM544 530v-36l-222 11l-2 -2q76 -15 116.5 -90t40.5 -161q0 -56 -14 -102t-36 -75.5t-49.5 -49.5t-53.5 -28t-50 -8 q-98 0 -153.5 79.5t-55.5 190.5q0 55 18 109.5t51 92.5q29 32 67.5 48t67 18.5t81.5 2.5h194z" unicode="σ"/>
<glyph glyph-name="tau" d="M498 529v-47h-170v-482h-47v482h-114q-35 0 -66 -10v43q44 14 81 14h316z" unicode="τ"/>
<glyph glyph-name="endash" d="M476 339h-352v40h352v-40z" unicode="–"/>
<glyph glyph-name="emdash" d="M600 339h-600v40h600v-40z" unicode="—"/>
<glyph glyph-name="quoteleft" d="M377 734v-42q-61 -18 -78 -59q2 0 8.5 1.5t10.5 1.5q28 0 44.5 -17t16.5 -45t-19.5 -46.5t-46.5 -18.5q-31 0 -50.5 24.5t-19.5 57.5q0 50 40.5 89t93.5 54z" unicode="‘"/>
<glyph glyph-name="quotesinglbase" d="M245 -109v42q61 18 78 59q-9 -3 -19 -3q-28 0 -44.5 17t-16.5 45t19.5 46.5t46.5 18.5q31 0 50.5 -24.5t19.5 -57.5q0 -50 -40.5 -89t-93.5 -54z" unicode="‚"/>
<glyph glyph-name="quotedblleft" d="M488 734v-42q-61 -18 -78 -59q2 0 9 1.5t10 1.5q28 0 44.5 -17t16.5 -45t-19.5 -46.5t-46.5 -18.5q-32 0 -51 24.5t-19 57.5q0 50 40.5 89t93.5 54zM265 734v-42q-61 -18 -78 -59q2 0 8.5 1.5t10.5 1.5q28 0 44.5 -17t16.5 -45t-19.5 -46.5t-46.5 -18.5q-31 0 -50.5 24.5 t-19.5 57.5q0 50 40.5 89t93.5 54z" unicode="“"/>
<glyph glyph-name="quotedblright" d="M356 509v42q61 18 78 59q-2 0 -8.5 -1.5t-10.5 -1.5q-28 0 -44.5 17t-16.5 45t19.5 46.5t46.5 18.5q32 0 51 -24.5t19 -57.5q0 -50 -40.5 -89t-93.5 -54zM133 509v42q61 18 78 59q-2 0 -8.5 -1.5t-10.5 -1.5q-28 0 -44.5 17t-16.5 45t19.5 46.5t46.5 18.5 q31 0 50.5 -24.5t19.5 -57.5q0 -50 -40.5 -89t-93.5 -54z" unicode="”"/>
<glyph glyph-name="dagger" d="M330 376l-10 -376h-40l-10 376l7 99l-132 -8v54l132 -7l-8 206h62l-8 -206l132 7v-54l-132 8z" unicode="†"/>
<glyph glyph-name="daggerdbl" d="M278 492l-133 -7v54l132 -8l-8 189h65l-8 -189l132 8v-54l-133 7v-265l133 8v-54l-132 7l8 -188h-65l8 188l-132 -7v54l133 -8v265z" unicode="‡"/>
<glyph glyph-name="ellipsis" d="M436 48q0 26 18.5 44.5t43.5 18.5q26 0 44.5 -18.5t18.5 -44.5q0 -25 -18.5 -43.5t-44.5 -18.5t-44 18t-18 44zM237 48q0 26 18.5 44.5t43.5 18.5t44 -18.5t19 -44.5q0 -25 -18.5 -43.5t-44.5 -18.5q-25 0 -43.5 18t-18.5 44zM38 48q0 26 18.5 44.5t43.5 18.5 q26 0 44.5 -18.5t18.5 -44.5q0 -25 -18.5 -43.5t-44.5 -18.5t-44 18t-18 44z" unicode="…"/>
<glyph glyph-name="perthousand" d="M206 87q0 -68 42 -68q21 0 37.5 18.5t24.5 46t11.5 52t3.5 44.5q0 66 -41 66q-22 0 -38 -18t-24.5 -45t-12 -51.5t-3.5 -44.5zM162 95q0 40 11.5 79.5t41 70.5t71.5 31q41 0 62 -27.5t21 -70.5q0 -30 -7 -61t-20.5 -60.5t-39 -48.5t-57.5 -19q-83 0 -83 106zM435 87 q0 -68 42 -68q21 0 37.5 18.5t24.5 46t11.5 52t3.5 44.5q0 66 -41 66q-22 0 -38 -18t-24.5 -45t-12 -51.5t-3.5 -44.5zM391 95q0 40 11.5 79.5t41 70.5t71.5 31q41 0 62 -27.5t21 -70.5q0 -30 -7 -61t-20.5 -60.5t-39 -48.5t-57.5 -19q-83 0 -83 106zM37 553q0 40 11.5 79.5 t41 70.5t71.5 31q41 0 62 -27.5t21 -70.5q0 -30 -7 -61t-20.5 -60.5t-39 -48.5t-57.5 -19q-83 0 -83 106zM373 734h42l-368 -734h-42zM81 545q0 -68 42 -68q21 0 37.5 18.5t24.5 46t11.5 52t3.5 44.5q0 66 -41 66q-22 0 -38 -18t-24.5 -45t-12 -51.5t-3.5 -44.5z" unicode="‰"/>
<glyph glyph-name="guilsinglleft" d="M393 605l29 -30l-229 -219l229 -219l-29 -32l-259 251z" unicode="‹"/>
<glyph glyph-name="guilsinglright" d="M207 605l259 -249l-259 -251l-29 32l229 219l-229 219z" unicode="›"/>
<glyph glyph-name="uni203E" d="M450 728h-300v36h300v-36z" unicode="‾"/>
<glyph glyph-name="fraction" d="M447 734h41l-332 -734h-38z" unicode="⁄"/>
<glyph glyph-name="Euro" d="M368 320v-41h-201q13 -251 172 -251q60 0 96.5 39.5t36.5 87.5v4h43q0 -15 -3.5 -34t-15.5 -44t-30 -45t-51 -34t-75 -14q-200 0 -219 291h-61v41h59v80h-59v41h62q3 39 9.5 75t22 77t38.5 70.5t61.5 49.5t88.5 20q70 0 115 -40.5t49 -109.5h-44q0 39 -32 74t-88 35 q-46 0 -80.5 -22.5t-53.5 -61t-28.5 -79.5t-12.5 -88h215v-41h-217v-80h203z" unicode="€"/>
<glyph glyph-name="trademark" d="M239 734v-40h-94v-242h-40v242h-95v40h229zM572 734v-282h-40v242h-2l-96 -242h-26l-93 242h-2v-242h-40v282h68l81 -199l84 199h66z" unicode="™"/>
<glyph glyph-name="uni2190" d="M136 382h460v-44h-460q13 -20 31 -63t18 -60q0 -16 -14 -16q-8 0 -21 20q-56 83 -125 123q-21 10 -21 18t21 18q69 40 125 123q13 20 21 20q14 0 14 -16q0 -17 -18 -60t-31 -63z" unicode="←"/>
<glyph glyph-name="arrowup" d="M322 524v-460h-44v460q-20 -13 -63 -31t-60 -18q-16 0 -16 14q0 8 20 21q83 56 123 125q10 21 18 21t18 -21q40 -69 123 -125q20 -13 20 -21q0 -14 -16 -14q-17 0 -60 18t-63 31z" unicode="↑"/>
<glyph glyph-name="uni2192" d="M4 382h460q-13 20 -31 63t-18 60q0 16 14 16q8 0 21 -20q56 -83 125 -123q21 -10 21 -18t-21 -18q-69 -40 -125 -123q-13 -20 -21 -20q-14 0 -14 16q0 17 18 60t31 63h-460v44z" unicode="→"/>
<glyph glyph-name="arrowdown" d="M322 656v-460q20 13 63 31t60 18q16 0 16 -14q0 -8 -20 -21q-83 -56 -123 -125q-10 -21 -18 -21t-18 21q-40 69 -123 125q-20 13 -20 21q0 14 16 14q17 0 60 -18t63 -31v460h44z" unicode="↓"/>
<glyph glyph-name="partialdiff" d="M267 25q86 0 143 83t70 206q-17 48 -67 91t-116 43q-75 0 -130 -64t-55 -155q0 -89 42.5 -146.5t112.5 -57.5zM129 717l-21 29q71 57 168 57q105 0 180 -101t75 -288q0 -116 -27.5 -209.5t-89.5 -154t-149 -60.5q-64 0 -109.5 35t-66 86.5t-20.5 113.5q0 114 67 186 t158 72q72 0 123 -38.5t70 -76.5h1q2 15 2 54q0 157 -64.5 251.5t-151.5 94.5q-81 0 -145 -51z" unicode="∂"/>
<glyph glyph-name="product" d="M601 683h-105v-781h-41v781h-309v-781h-41v781h-106v39h602v-39z" unicode="∏"/>
<glyph glyph-name="summation" d="M165 680l213 -300l-219 -340h316v-40h-350v58l202 324l-202 282v56h347v-40h-307z" unicode="∑"/>
<glyph glyph-name="minus" d="M566 382v-44h-532v44h532z" unicode="−"/>
<glyph glyph-name="radical" d="M3 433h142l79 -298l194 662h179v-44h-147l-226 -764l-115 400h-106v44z" unicode="√"/>
<glyph glyph-name="infinity" d="M554 363q0 45 -22.5 79t-65.5 34q-73 0 -141 -117q23 -31 39.5 -51t47 -42t57.5 -22q44 0 64.5 35.5t20.5 83.5zM46 359q0 -48 20.5 -83.5t64.5 -35.5q27 0 57.5 22t47 42t39.5 51q-68 117 -141 117q-43 0 -65.5 -34t-22.5 -79zM300 320q-37 -56 -76 -88t-93 -32 q-64 0 -96.5 47t-32.5 113t32.5 113t96.5 47q54 0 93 -32t76 -88q37 56 76 88t93 32q64 0 96.5 -47t32.5 -113t-32.5 -113t-96.5 -47q-54 0 -93 32t-76 88z" unicode="∞"/>
<glyph glyph-name="intersection" d="M590 0h-44v444q0 101 -75.5 176t-170.5 75t-170.5 -75t-75.5 -176v-444h-44v433q0 127 83.5 214t206.5 87t206.5 -87t83.5 -214v-433z" unicode="∩"/>
<glyph glyph-name="approxequal" d="M527 509l33 -23q-25 -47 -64.5 -80.5t-85.5 -33.5q-30 0 -122.5 37.5t-117.5 37.5q-27 0 -50.5 -16t-34.5 -30.5t-29 -45.5q-3 -5 -5 -8l-32 23q68 121 145 121q44 0 131.5 -37.5t112.5 -37.5q36 0 68.5 28t50.5 65zM549 373l32 -23q-25 -47 -64.5 -80.5t-85.5 -33.5 q-30 0 -122.5 37.5t-117.5 37.5q-27 0 -50.5 -16t-34.5 -30.5t-29 -45.5q-3 -5 -5 -8l-32 23q68 121 145 121q44 0 131.5 -37.5t112.5 -37.5q36 0 68.5 28t51.5 65z" unicode="≈"/>
<glyph glyph-name="notequal" d="M267 266l-69 -132l-37 20l61 112h-178v43h200l56 105h-256v43h278l67 130l36 -20l-58 -110h189v-43h-211l-57 -105h268v-43h-289z" unicode="≠"/>
<glyph glyph-name="equivalence" d="M566 248v-44h-532v44h532zM566 382v-44h-532v44h532zM566 516v-44h-532v44h532z" unicode="≡"/>
<glyph glyph-name="lessequal" d="M98 0v44h404v-44h-404zM98 432l378 288l26 -35l-334 -253l334 -253l-26 -35z" unicode="≤"/>
<glyph glyph-name="greaterequal" d="M98 0v44h404v-44h-404zM124 720l378 -288l-378 -288l-26 35l334 253l-334 253z" unicode="≥"/>
<glyph glyph-name="dotmath" d="M250 360q0 15 10.5 25.5t25.5 10.5t25.5 -10.5t10.5 -25.5t-10.5 -25.5t-25.5 -10.5t-25.5 10.5t-10.5 25.5z" unicode="⋅"/>
<glyph glyph-name="lozenge" d="M496 360l-175 322q-4 7 -21 48h-2q-8 -21 -21 -48l-173 -319l175 -324q14 -26 20 -47h3q4 15 19 47zM537 361l-219 -407h-35l-220 407l219 408h35z" unicode="◊"/>
<glyph glyph-name="spade" d="M542 0h-484l4 22q229 7 229 247h-2q-22 -50 -62 -80t-93 -30t-92 37.5t-39 90.5q0 37 22 75t39.5 55.5t60.5 54.5q7 7 11 10q69 59 108 109.5t55 120.5h2q16 -70 55 -120.5t108 -109.5q71 -61 93 -89q40 -52 40 -106q0 -53 -39 -90.5t-92 -37.5t-93 30t-62 80h-2 q0 -240 229 -247z" unicode="♠"/>
<glyph glyph-name="club" d="M503 0h-406l6 21q46 11 77 26t59 44.5t42 80t14 124.5h-2q-18 -54 -60 -96t-93 -42q-62 0 -99.5 49t-37.5 113q0 55 30.5 107.5t78.5 52.5q38 0 86 -30q-32 62 -32 106q0 59 36.5 107.5t97.5 48.5t97.5 -48.5t36.5 -107.5q0 -44 -32 -106q48 30 86 30q48 0 78.5 -52.5 t30.5 -107.5q0 -64 -37.5 -113t-99.5 -49q-51 0 -93 42t-60 96h-2q0 -74 14 -124.5t42 -80t59 -44.5t77 -26z" unicode="♣"/>
<glyph glyph-name="heart" d="M301 -12h-2q-14 56 -45.5 118t-59 101t-75.5 103q-35 47 -55.5 79t-40.5 81.5t-20 92.5q0 63 40.5 106t103.5 43q56 0 98 -43.5t54 -101.5h2q12 58 54 101.5t98 43.5q63 0 103.5 -43t40.5 -106q0 -43 -20 -92.5t-40.5 -81.5t-55.5 -79q-48 -64 -75.5 -103t-59 -101 t-45.5 -118z" unicode="♥"/>
<glyph glyph-name="diamond" d="M300 712q108 -166 297 -362q-189 -196 -297 -362q-108 166 -297 362q189 196 297 362z" unicode="♦"/>
</font>
</defs>
</svg>
